<?xml version="1.0" standalone="no"?>
<!DOCTYPE svg PUBLIC "-//W3C//DTD SVG 1.1//EN" "http://www.w3.org/Graphics/SVG/1.1/DTD/svg11.dtd" >
<svg xmlns="http://www.w3.org/2000/svg" xmlns:xlink="http://www.w3.org/1999/xlink" version="1.1">
<metadata>
Created by FontForge 20150824 at Sat Apr  9 15:08:47 2016
 By Everything Fonts
Copyright (c) Mark Simonson, 2005. All rights reserved.
</metadata>
<defs>
<font id="ProximaNova-ThinIt" horiz-adv-x="528" >
  <font-face 
    font-family="Proxima Nova Th"
    font-weight="250"
    font-style="italic"
    font-stretch="normal"
    units-per-em="1000"
    panose-1="2 0 5 6 3 0 0 2 0 4"
    ascent="790"
    descent="-210"
    x-height="483"
    cap-height="667"
    bbox="-225 -252 1152 886"
    underline-thickness="20"
    underline-position="-133"
    stemh="30"
    stemv="34"
    unicode-range="U+000D-FB04"
  />
<missing-glyph horiz-adv-x="527" 
d="M459 -90h-351v842h351v-842zM427 -60v782h-288v-782h288z" />
    <glyph glyph-name="f_b" unicode="fb" horiz-adv-x="812" 
d="M76 0h-30l101 456h-80l6 27h80l11 51c20 90 64 143 140 143c26 0 45 -4 67 -19l-15 -23c-16 12 -36 15 -55 15c-61 0 -91 -43 -107 -116l-11 -51h98l-6 -27h-98zM507 -12c-84 0 -147 42 -180 99l-19 -87h-30l147 667h30l-57 -261c39 52 100 89 172 89
c111 0 190 -74 190 -198c0 -167 -104 -309 -253 -309zM507 15c133 0 219 139 219 278c0 108 -62 175 -158 175c-75 0 -144 -49 -180 -104l-55 -251c25 -53 88 -98 174 -98z" />
    <glyph glyph-name="f_f" unicode="ff" horiz-adv-x="492" 
d="M76 0h-30l101 456h-80l6 27h80l11 51c20 90 64 143 140 143c36 0 59 -9 85 -34l-20 -20c-16 17 -36 27 -68 27c-61 0 -91 -43 -107 -116l-11 -51h98l-6 -27h-98zM322 0h-30l101 456h-80l6 27h80l11 51c20 90 64 143 140 143c36 0 59 -9 85 -34l-20 -20
c-16 17 -36 27 -68 27c-61 0 -91 -43 -107 -116l-11 -51h98l-6 -27h-98z" />
    <glyph glyph-name="f_h" unicode="fh" horiz-adv-x="774" 
d="M76 0h-30l101 456h-80l6 27h80l11 51c20 90 64 143 140 143c26 0 45 -4 67 -19l-15 -23c-16 12 -36 15 -55 15c-61 0 -91 -43 -107 -116l-11 -51h98l-6 -27h-98zM634 0h-30l75 339c2 9 6 28 6 37c0 65 -49 92 -115 92s-134 -46 -179 -94l-83 -374h-30l147 667h30
l-57 -260c45 44 111 88 178 88c79 0 138 -36 138 -116c0 -8 -3 -31 -6 -42z" />
    <glyph glyph-name="fi" unicode="fi" horiz-adv-x="448" 
d="M76 0h-30l101 456h-80l6 27h80l11 51c20 90 64 143 140 143c26 0 45 -4 67 -19l-15 -23c-16 12 -36 15 -55 15c-61 0 -91 -43 -107 -116l-11 -51h98l-6 -27h-98zM421 566c-15 0 -27 12 -27 26c0 19 18 32 33 32s27 -12 27 -26c0 -19 -18 -32 -33 -32zM308 0h-30l107 483
h30z" />
    <glyph glyph-name="f_j" unicode="fj" horiz-adv-x="448" 
d="M76 0h-30l101 456h-80l6 27h80l11 51c20 90 64 143 140 143c26 0 45 -4 67 -19l-15 -23c-16 12 -36 15 -55 15c-61 0 -91 -43 -107 -116l-11 -51h98l-6 -27h-98zM166 -196c-40 0 -78 14 -99 43l21 22c15 -21 44 -38 75 -38c49 0 83 27 98 93l124 559h30l-124 -559
c-19 -83 -58 -120 -125 -120zM421 566c-15 0 -27 12 -27 26c0 19 18 32 33 32s27 -12 27 -26c0 -19 -18 -32 -33 -32z" />
    <glyph glyph-name="f_k" unicode="fk" horiz-adv-x="742" 
d="M76 0h-30l101 456h-80l6 27h80l11 51c20 90 64 143 140 143c26 0 45 -4 67 -19l-15 -23c-16 12 -36 15 -55 15c-61 0 -91 -43 -107 -116l-11 -51h98l-6 -27h-98zM663 0h-37l-161 246l-124 -95l-33 -151h-30l147 667h30l-105 -475l377 291h46l-284 -218z" />
    <glyph glyph-name="fl" unicode="fl" horiz-adv-x="448" 
d="M76 0h-30l101 456h-80l6 27h80l11 51c20 90 64 143 140 143c26 0 45 -4 67 -19l-15 -23c-16 12 -36 15 -55 15c-61 0 -91 -43 -107 -116l-11 -51h98l-6 -27h-98zM308 0h-30l147 667h30z" />
    <glyph glyph-name="f_f_i" unicode="ffi" horiz-adv-x="694" 
d="M322 0h-30l101 456h-80l6 27h80l11 51c20 90 64 143 140 143c26 0 45 -4 67 -19l-15 -23c-16 12 -36 15 -55 15c-61 0 -91 -43 -107 -116l-11 -51h98l-6 -27h-98zM667 566c-15 0 -27 12 -27 26c0 19 18 32 33 32s27 -12 27 -26c0 -19 -18 -32 -33 -32zM554 0h-30l107 483
h30zM76 0h-30l101 456h-80l6 27h80l11 51c20 90 64 143 140 143c36 0 59 -9 85 -34l-20 -20c-16 17 -36 27 -68 27c-61 0 -91 -43 -107 -116l-11 -51h98l-6 -27h-98z" />
    <glyph glyph-name="f_f_j" unicode="ffj" horiz-adv-x="694" 
d="M322 0h-30l101 456h-80l6 27h80l11 51c20 90 64 143 140 143c26 0 45 -4 67 -19l-15 -23c-16 12 -36 15 -55 15c-61 0 -91 -43 -107 -116l-11 -51h98l-6 -27h-98zM412 -196c-40 0 -78 14 -99 43l21 22c15 -21 44 -38 75 -38c49 0 83 27 98 93l124 559h30l-124 -559
c-19 -83 -58 -120 -125 -120zM667 566c-15 0 -27 12 -27 26c0 19 18 32 33 32s27 -12 27 -26c0 -19 -18 -32 -33 -32zM76 0h-30l101 456h-80l6 27h80l11 51c20 90 64 143 140 143c36 0 59 -9 85 -34l-20 -20c-16 17 -36 27 -68 27c-61 0 -91 -43 -107 -116l-11 -51h98
l-6 -27h-98z" />
    <glyph glyph-name="f_f_l" unicode="ffl" horiz-adv-x="694" 
d="M322 0h-30l101 456h-80l6 27h80l11 51c20 90 64 143 140 143c26 0 45 -4 67 -19l-15 -23c-16 12 -36 15 -55 15c-61 0 -91 -43 -107 -116l-11 -51h98l-6 -27h-98zM554 0h-30l147 667h30zM76 0h-30l101 456h-80l6 27h80l11 51c20 90 64 143 140 143c36 0 59 -9 85 -34
l-20 -20c-16 17 -36 27 -68 27c-61 0 -91 -43 -107 -116l-11 -51h98l-6 -27h-98z" />
    <glyph glyph-name=".notdef" horiz-adv-x="527" 
d="M459 -90h-351v842h351v-842zM427 -60v782h-288v-782h288z" />
    <glyph glyph-name=".null" horiz-adv-x="0" 
 />
    <glyph glyph-name=".null" horiz-adv-x="0" 
 />
    <glyph glyph-name="CR" unicode="&#xd;" horiz-adv-x="0" 
 />
    <glyph glyph-name="space" unicode=" " horiz-adv-x="260" 
 />
    <glyph glyph-name="nbspace" unicode="&#xa0;" horiz-adv-x="260" 
 />
    <glyph glyph-name="thinspace" unicode="&#x2009;" horiz-adv-x="52" 
 />
    <glyph glyph-name="zero" unicode="0" horiz-adv-x="605" 
d="M273 -12c-137 0 -201 104 -201 252c0 188 107 437 300 437c137 0 199 -103 199 -251c0 -188 -105 -438 -298 -438zM275 18c162 0 262 233 262 411c0 123 -46 218 -168 218c-162 0 -263 -232 -263 -410c0 -123 47 -219 169 -219z" />
    <glyph glyph-name="zero.pzero" horiz-adv-x="605" 
d="M273 -12c-70 0 -122 27 -155 74l-50 -62h-38l72 89c-20 41 -30 92 -30 151c0 188 107 437 300 437c69 0 120 -27 152 -72l51 62h38l-73 -89c21 -41 31 -93 31 -152c0 -188 -105 -438 -298 -438zM275 18c162 0 262 233 262 411c0 45 -6 86 -20 120l-377 -461
c27 -43 70 -70 135 -70zM106 237c0 -45 6 -86 20 -120l376 461c-26 43 -69 69 -133 69c-162 0 -263 -232 -263 -410z" />
    <glyph glyph-name="one" unicode="1" horiz-adv-x="277" 
d="M135 0h-32l137 621l-130 -115l-17 23l159 138h30z" />
    <glyph glyph-name="two" unicode="2" horiz-adv-x="577" 
d="M426 0h-421l9 38c256 169 490 329 490 481c0 81 -68 128 -164 128c-77 0 -134 -27 -175 -69l-22 21c43 46 118 78 197 78c101 0 199 -47 199 -158c0 -168 -244 -332 -481 -489h374z" />
    <glyph glyph-name="three" unicode="3" horiz-adv-x="531" 
d="M229 -12c-105 0 -199 59 -224 139l31 13c27 -74 102 -122 193 -122c118 0 193 76 193 180c0 80 -73 132 -170 132c-27 0 -39 0 -50 -1l8 32c9 -1 60 -1 88 -1c93 0 186 51 186 154c0 73 -67 133 -171 133c-57 0 -118 -20 -174 -75l-21 23c49 51 124 82 195 82
c113 0 202 -58 202 -163c0 -111 -96 -172 -181 -176c63 -14 120 -65 120 -140c0 -111 -86 -210 -225 -210z" />
    <glyph glyph-name="four" unicode="4" horiz-adv-x="524" 
d="M331 0h-32l43 195h-315l8 35l399 437h44l-98 -442h101l-6 -30h-101zM348 225l90 406l-370 -406h280z" />
    <glyph glyph-name="five" unicode="5" horiz-adv-x="574" 
d="M264 -12c-110 0 -177 45 -215 137l30 16c34 -87 99 -123 190 -123c107 0 202 88 202 204c0 102 -75 158 -172 158c-55 0 -104 -19 -153 -54l-22 18l71 323h364l-6 -30h-332l-61 -274c28 22 84 47 146 47c103 0 198 -63 198 -187c0 -125 -99 -235 -240 -235z" />
    <glyph glyph-name="six" unicode="6" horiz-adv-x="577" 
d="M267 -12c-130 0 -199 85 -199 235c0 163 83 454 303 454c89 0 153 -40 182 -108l-29 -18c-23 60 -77 96 -155 96c-157 0 -229 -175 -261 -324c-2 -9 -3 -14 -3 -16c36 41 120 99 208 99c116 0 195 -63 195 -169c0 -131 -101 -249 -241 -249zM270 18
c119 0 205 104 205 214c0 89 -65 144 -166 144c-80 0 -152 -44 -209 -110c-1 -10 -2 -45 -2 -59c0 -109 56 -189 172 -189z" />
    <glyph glyph-name="seven" unicode="7" horiz-adv-x="489" 
d="M106 0h-38l432 637h-377l6 30h417l-5 -22z" />
    <glyph glyph-name="eight" unicode="8" horiz-adv-x="561" 
d="M260 -12c-126 0 -216 59 -216 163c0 110 93 178 216 198c-60 21 -129 69 -129 146c0 123 115 182 215 182c108 0 201 -61 201 -158c0 -104 -87 -164 -203 -179c53 -20 137 -70 137 -163c0 -106 -97 -189 -221 -189zM306 359c118 10 207 63 207 160c0 72 -75 127 -168 127
c-94 0 -181 -54 -181 -150c0 -71 83 -123 142 -137zM259 18c93 0 190 58 190 160c0 82 -90 137 -149 152c-127 -9 -223 -77 -223 -174c0 -91 87 -138 182 -138z" />
    <glyph glyph-name="nine" unicode="9" horiz-adv-x="577" 
d="M348 678c130 0 199 -85 199 -235c0 -163 -83 -454 -303 -454c-89 0 -153 40 -182 108l29 18c23 -60 77 -96 155 -96c157 0 229 175 261 324c2 9 3 14 3 16c-36 -41 -120 -99 -208 -99c-116 0 -195 63 -195 169c0 131 101 249 241 249zM345 648
c-119 0 -205 -104 -205 -214c0 -89 65 -144 166 -144c80 0 152 44 209 110c1 10 2 45 2 59c0 109 -56 189 -172 189z" />
    <glyph glyph-name="zero.tnum" unicode="&#xf639;" horiz-adv-x="577" 
d="M259 -12c-137 0 -201 104 -201 252c0 188 107 437 300 437c137 0 199 -103 199 -251c0 -188 -105 -438 -298 -438zM261 18c162 0 262 233 262 411c0 123 -46 218 -168 218c-162 0 -263 -232 -263 -410c0 -123 47 -219 169 -219z" />
    <glyph glyph-name="zero.tzero" unicode="&#xf638;" horiz-adv-x="577" 
d="M259 -12c-70 0 -122 27 -155 74l-50 -62h-38l72 89c-20 41 -30 92 -30 151c0 188 107 437 300 437c69 0 120 -27 152 -72l51 62h38l-73 -89c21 -41 31 -93 31 -152c0 -188 -105 -438 -298 -438zM261 18c162 0 262 233 262 411c0 45 -6 86 -20 120l-377 -461
c27 -43 70 -70 135 -70zM92 237c0 -45 6 -86 20 -120l376 461c-26 43 -69 69 -133 69c-162 0 -263 -232 -263 -410z" />
    <glyph glyph-name="one.tnum" unicode="&#xf6dc;" horiz-adv-x="577" 
d="M294 0h-32l137 621l-130 -115l-17 23l159 138h30z" />
    <glyph glyph-name="two.tnum" unicode="&#xf63a;" horiz-adv-x="577" 
d="M437 0h-421l9 38c256 169 490 329 490 481c0 81 -68 128 -164 128c-77 0 -134 -27 -175 -69l-22 21c43 46 118 78 197 78c101 0 199 -47 199 -158c0 -168 -244 -332 -481 -489h374z" />
    <glyph glyph-name="three.tnum" unicode="&#xf63b;" horiz-adv-x="577" 
d="M267 -12c-105 0 -199 59 -224 139l31 13c27 -74 102 -122 193 -122c118 0 193 76 193 180c0 80 -73 132 -170 132c-27 0 -39 0 -50 -1l8 32c9 -1 60 -1 88 -1c93 0 186 51 186 154c0 73 -67 133 -171 133c-57 0 -118 -20 -174 -75l-21 23c49 51 124 82 195 82
c113 0 202 -58 202 -163c0 -111 -96 -172 -181 -176c63 -14 120 -65 120 -140c0 -111 -86 -210 -225 -210z" />
    <glyph glyph-name="four.tnum" unicode="&#xf63c;" horiz-adv-x="577" 
d="M357 0h-32l43 195h-315l8 35l399 437h44l-98 -442h101l-6 -30h-101zM374 225l90 406l-370 -406h280z" />
    <glyph glyph-name="five.tnum" unicode="&#xf63d;" horiz-adv-x="577" 
d="M266 -12c-110 0 -177 45 -215 137l30 16c34 -87 99 -123 190 -123c107 0 202 88 202 204c0 102 -75 158 -172 158c-55 0 -104 -19 -153 -54l-22 18l71 323h364l-6 -30h-332l-61 -274c28 22 84 47 146 47c103 0 198 -63 198 -187c0 -125 -99 -235 -240 -235z" />
    <glyph glyph-name="six.tnum" unicode="&#xf63e;" horiz-adv-x="577" 
d="M272 -12c-130 0 -199 85 -199 235c0 163 83 454 303 454c89 0 153 -40 182 -108l-29 -18c-23 60 -77 96 -155 96c-157 0 -229 -175 -261 -324c-2 -9 -3 -14 -3 -16c36 41 120 99 208 99c116 0 195 -63 195 -169c0 -131 -101 -249 -241 -249zM275 18
c119 0 205 104 205 214c0 89 -65 144 -166 144c-80 0 -152 -44 -209 -110c-1 -10 -2 -45 -2 -59c0 -109 56 -189 172 -189z" />
    <glyph glyph-name="seven.tnum" unicode="&#xf63f;" horiz-adv-x="577" 
d="M150 0h-38l432 637h-377l6 30h417l-5 -22z" />
    <glyph glyph-name="eight.tnum" unicode="&#xf640;" horiz-adv-x="577" 
d="M268 -12c-126 0 -216 59 -216 163c0 110 93 178 216 198c-60 21 -129 69 -129 146c0 123 115 182 215 182c108 0 201 -61 201 -158c0 -104 -87 -164 -203 -179c53 -20 137 -70 137 -163c0 -106 -97 -189 -221 -189zM314 359c118 10 207 63 207 160c0 72 -75 127 -168 127
c-94 0 -181 -54 -181 -150c0 -71 83 -123 142 -137zM267 18c93 0 190 58 190 160c0 82 -90 137 -149 152c-127 -9 -223 -77 -223 -174c0 -91 87 -138 182 -138z" />
    <glyph glyph-name="nine.tnum" unicode="&#xf641;" horiz-adv-x="577" 
d="M343 678c130 0 199 -85 199 -235c0 -163 -83 -454 -303 -454c-89 0 -153 40 -182 108l29 18c23 -60 77 -96 155 -96c157 0 229 175 261 324c2 9 3 14 3 16c-36 -41 -120 -99 -208 -99c-116 0 -195 63 -195 169c0 131 101 249 241 249zM340 648
c-119 0 -205 -104 -205 -214c0 -89 65 -144 166 -144c80 0 152 44 209 110c1 10 2 45 2 59c0 109 -56 189 -172 189z" />
    <glyph glyph-name="zero.tonum" unicode="&#xf643;" horiz-adv-x="577" 
d="M540 330c0 -131 -91 -342 -274 -342c-147 0 -217 92 -217 232c0 131 91 342 274 342c147 0 217 -92 217 -232zM506 330c0 127 -58 202 -183 202c-165 0 -240 -197 -240 -312c0 -127 58 -202 183 -202c165 0 240 197 240 312z" />
    <glyph glyph-name="zero.tonumzero" horiz-adv-x="577" 
d="M540 330c0 -131 -91 -342 -274 -342c-72 0 -124 22 -160 60l-44 -48h-38l64 70c-26 39 -39 90 -39 150c0 131 91 342 274 342c71 0 124 -22 160 -60l44 48h38l-64 -70c26 -39 39 -90 39 -150zM83 220c0 -51 9 -93 28 -125l350 383c-30 35 -76 54 -138 54
c-165 0 -240 -197 -240 -312zM506 330c0 50 -9 92 -28 125l-351 -384c30 -34 76 -53 139 -53c165 0 240 197 240 312z" />
    <glyph glyph-name="one.tonum" unicode="&#xf644;" horiz-adv-x="577" 
d="M294 0h-32l111 504l-130 -115l-17 23l159 138h30z" />
    <glyph glyph-name="two.tonum" unicode="&#xf645;" horiz-adv-x="577" 
d="M429 0h-399l6 29c268 114 457 226 457 366c0 82 -71 137 -162 137c-78 0 -138 -25 -195 -82l-21 21c59 60 130 91 216 91c106 0 195 -59 195 -167c0 -153 -200 -276 -419 -365h328z" />
    <glyph glyph-name="three.tonum" unicode="&#xf646;" horiz-adv-x="577" 
d="M243 -127c-105 0 -199 59 -224 139l31 13c27 -74 102 -122 193 -122c118 0 193 76 193 180c0 80 -73 132 -170 132c-27 0 -39 0 -50 -1l8 32c9 -1 60 -1 88 -1c93 0 186 51 186 154c0 73 -67 133 -171 133c-57 0 -118 -20 -174 -75l-21 23c49 51 124 82 195 82
c113 0 202 -58 202 -163c0 -111 -96 -172 -181 -176c63 -14 120 -65 120 -140c0 -111 -86 -210 -225 -210z" />
    <glyph glyph-name="four.tonum" unicode="&#xf647;" horiz-adv-x="577" 
d="M475 78h-101l-43 -195h-32l43 195h-315l7 33l402 439h42l-98 -442h101zM348 108l90 406l-370 -406h280z" />
    <glyph glyph-name="five.tonum" unicode="&#xf648;" horiz-adv-x="577" 
d="M240 -129c-110 0 -177 45 -215 137l30 16c34 -87 99 -123 190 -123c107 0 202 88 202 204c0 102 -75 158 -172 158c-55 0 -104 -19 -153 -54l-22 18l71 323h364l-6 -30h-332l-61 -274c28 22 84 47 146 47c103 0 198 -63 198 -187c0 -125 -99 -235 -240 -235z" />
    <glyph glyph-name="six.tonum" unicode="&#xf649;" horiz-adv-x="577" 
d="M272 -12c-130 0 -199 85 -199 235c0 163 83 454 303 454c89 0 153 -40 182 -108l-29 -18c-23 60 -77 96 -155 96c-157 0 -229 -175 -261 -324c-2 -9 -3 -14 -3 -16c36 41 120 99 208 99c116 0 195 -63 195 -169c0 -131 -101 -249 -241 -249zM275 18
c119 0 205 104 205 214c0 89 -65 144 -166 144c-80 0 -152 -44 -209 -110c-1 -10 -2 -45 -2 -59c0 -109 56 -189 172 -189z" />
    <glyph glyph-name="seven.tonum" unicode="&#xf64a;" horiz-adv-x="577" 
d="M124 -117h-38l432 637h-377l6 30h417l-5 -22z" />
    <glyph glyph-name="eight.tonum" unicode="&#xf64b;" horiz-adv-x="577" 
d="M268 -12c-126 0 -216 59 -216 163c0 110 93 178 216 198c-60 21 -129 69 -129 146c0 123 115 182 215 182c108 0 201 -61 201 -158c0 -104 -87 -164 -203 -179c53 -20 137 -70 137 -163c0 -106 -97 -189 -221 -189zM314 359c118 10 207 63 207 160c0 72 -75 127 -168 127
c-94 0 -181 -54 -181 -150c0 -71 83 -123 142 -137zM267 18c93 0 190 58 190 160c0 82 -90 137 -149 152c-127 -9 -223 -77 -223 -174c0 -91 87 -138 182 -138z" />
    <glyph glyph-name="nine.tonum" unicode="&#xf64c;" horiz-adv-x="577" 
d="M317 562c130 0 199 -85 199 -235c0 -163 -83 -454 -303 -454c-89 0 -153 40 -182 108l29 18c23 -60 77 -96 155 -96c157 0 229 175 261 324c2 9 3 14 3 16c-36 -41 -120 -99 -208 -99c-116 0 -195 63 -195 169c0 131 101 249 241 249zM314 532
c-119 0 -205 -104 -205 -214c0 -89 65 -144 166 -144c80 0 152 44 209 110c1 10 2 45 2 59c0 109 -56 189 -172 189z" />
    <glyph glyph-name="zero.onum" unicode="&#xf730;" horiz-adv-x="605" 
d="M554 330c0 -131 -91 -342 -274 -342c-147 0 -217 92 -217 232c0 131 91 342 274 342c147 0 217 -92 217 -232zM520 330c0 127 -58 202 -183 202c-165 0 -240 -197 -240 -312c0 -127 58 -202 183 -202c165 0 240 197 240 312z" />
    <glyph glyph-name="zero.onumzero" horiz-adv-x="605" 
d="M554 330c0 -131 -91 -342 -274 -342c-72 0 -124 22 -160 60l-44 -48h-38l64 70c-26 39 -39 90 -39 150c0 131 91 342 274 342c71 0 124 -22 160 -60l44 48h38l-64 -70c26 -39 39 -90 39 -150zM97 220c0 -51 9 -93 28 -125l350 383c-30 35 -76 54 -138 54
c-165 0 -240 -197 -240 -312zM520 330c0 50 -9 92 -28 125l-351 -384c30 -34 76 -53 139 -53c165 0 240 197 240 312z" />
    <glyph glyph-name="one.onum" unicode="&#xf731;" horiz-adv-x="277" 
d="M135 0h-32l111 504l-130 -115l-17 23l159 138h30z" />
    <glyph glyph-name="two.onum" unicode="&#xf732;" horiz-adv-x="574" 
d="M413 0h-399l6 29c268 114 457 226 457 366c0 82 -71 137 -162 137c-78 0 -138 -25 -195 -82l-21 21c59 60 130 91 216 91c106 0 195 -59 195 -167c0 -153 -200 -276 -419 -365h328z" />
    <glyph glyph-name="three.onum" unicode="&#xf733;" horiz-adv-x="531" 
d="M203 -127c-105 0 -199 59 -224 139l31 13c27 -74 102 -122 193 -122c118 0 193 76 193 180c0 80 -73 132 -170 132c-27 0 -39 0 -50 -1l8 32c9 -1 60 -1 88 -1c93 0 186 51 186 154c0 73 -67 133 -171 133c-57 0 -118 -20 -174 -75l-21 23c49 51 124 82 195 82
c113 0 202 -58 202 -163c0 -111 -96 -172 -181 -176c63 -14 120 -65 120 -140c0 -111 -86 -210 -225 -210z" />
    <glyph glyph-name="four.onum" unicode="&#xf734;" horiz-adv-x="524" 
d="M449 78h-101l-43 -195h-32l43 195h-315l7 33l402 439h42l-98 -442h101zM322 108l90 406l-370 -406h280z" />
    <glyph glyph-name="five.onum" unicode="&#xf735;" horiz-adv-x="574" 
d="M238 -129c-110 0 -177 45 -215 137l30 16c34 -87 99 -123 190 -123c107 0 202 88 202 204c0 102 -75 158 -172 158c-55 0 -104 -19 -153 -54l-22 18l71 323h364l-6 -30h-332l-61 -274c28 22 84 47 146 47c103 0 198 -63 198 -187c0 -125 -99 -235 -240 -235z" />
    <glyph glyph-name="six.onum" unicode="&#xf736;" horiz-adv-x="577" 
d="M267 -12c-130 0 -199 85 -199 235c0 163 83 454 303 454c89 0 153 -40 182 -108l-29 -18c-23 60 -77 96 -155 96c-157 0 -229 -175 -261 -324c-2 -9 -3 -14 -3 -16c36 41 120 99 208 99c116 0 195 -63 195 -169c0 -131 -101 -249 -241 -249zM270 18
c119 0 205 104 205 214c0 89 -65 144 -166 144c-80 0 -152 -44 -209 -110c-1 -10 -2 -45 -2 -59c0 -109 56 -189 172 -189z" />
    <glyph glyph-name="seven.onum" unicode="&#xf737;" horiz-adv-x="489" 
d="M80 -117h-38l432 637h-377l6 30h417l-5 -22z" />
    <glyph glyph-name="eight.onum" unicode="&#xf738;" horiz-adv-x="561" 
d="M260 -12c-126 0 -216 59 -216 163c0 110 93 178 216 198c-60 21 -129 69 -129 146c0 123 115 182 215 182c108 0 201 -61 201 -158c0 -104 -87 -164 -203 -179c53 -20 137 -70 137 -163c0 -106 -97 -189 -221 -189zM306 359c118 10 207 63 207 160c0 72 -75 127 -168 127
c-94 0 -181 -54 -181 -150c0 -71 83 -123 142 -137zM259 18c93 0 190 58 190 160c0 82 -90 137 -149 152c-127 -9 -223 -77 -223 -174c0 -91 87 -138 182 -138z" />
    <glyph glyph-name="nine.onum" unicode="&#xf739;" horiz-adv-x="577" 
d="M322 562c130 0 199 -85 199 -235c0 -163 -83 -454 -303 -454c-89 0 -153 40 -182 108l29 18c23 -60 77 -96 155 -96c157 0 229 175 261 324c2 9 3 14 3 16c-36 -41 -120 -99 -208 -99c-116 0 -195 63 -195 169c0 131 101 249 241 249zM319 532
c-119 0 -205 -104 -205 -214c0 -89 65 -144 166 -144c80 0 152 44 209 110c1 10 2 45 2 59c0 109 -56 189 -172 189z" />
    <glyph glyph-name="A" unicode="A" horiz-adv-x="636" 
d="M561 0h-35l-35 179h-372l-113 -179h-39l425 667h38zM486 209l-81 421l-267 -421h348z" />
    <glyph glyph-name="B" unicode="B" horiz-adv-x="600" 
d="M296 0h-262l147 667h237c82 0 160 -54 160 -148c0 -98 -72 -172 -156 -182c54 -14 98 -75 98 -139c0 -103 -74 -198 -224 -198zM375 358c124 0 167 85 167 161c0 67 -57 118 -130 118h-205l-62 -279h230zM302 30c120 0 183 84 183 168c0 73 -50 130 -136 130h-211
l-66 -298h230z" />
    <glyph glyph-name="C" unicode="C" horiz-adv-x="667" 
d="M365 -12c-172 0 -291 114 -291 286c0 245 183 404 364 404c104 0 198 -40 252 -129l-30 -19c-52 87 -136 118 -225 118c-159 0 -325 -141 -325 -374c0 -155 99 -256 257 -256c67 0 132 22 198 76l20 -23c-65 -55 -142 -83 -220 -83z" />
    <glyph glyph-name="D" unicode="D" horiz-adv-x="684" 
d="M231 0h-197l147 667h193c149 0 266 -121 266 -283c0 -187 -140 -384 -409 -384zM230 30h6c226 0 370 164 370 354c0 146 -103 253 -238 253h-161l-135 -607h158z" />
    <glyph glyph-name="E" unicode="E" horiz-adv-x="558" 
d="M442 0h-408l147 667h408l-6 -30h-376l-62 -279h369l-7 -30h-369l-66 -298h376z" />
    <glyph glyph-name="F" unicode="F" horiz-adv-x="533" 
d="M66 0h-32l147 667h408l-6 -30h-376l-62 -279h369l-7 -30h-369z" />
    <glyph glyph-name="G" unicode="G" horiz-adv-x="708" 
d="M365 -12c-182 0 -291 123 -291 286c0 236 173 404 364 404c112 0 200 -46 252 -129l-27 -17c-46 80 -133 116 -228 116c-167 0 -325 -154 -325 -374c0 -159 103 -256 257 -256c94 0 164 43 212 88l41 184h-275l6 30h307l-51 -232c-71 -64 -152 -100 -242 -100z" />
    <glyph glyph-name="G.alt1" horiz-adv-x="708" 
d="M355 -12c-167 0 -281 113 -281 286c0 243 181 404 374 404c101 0 190 -44 242 -129l-27 -17c-47 81 -133 116 -222 116c-157 0 -331 -140 -331 -374c0 -159 101 -256 251 -256c173 0 274 124 315 272h-331l6 30h364c-43 -199 -161 -332 -360 -332z" />
    <glyph glyph-name="H" unicode="H" horiz-adv-x="695" 
d="M553 0h-32l72 328h-455l-72 -328h-32l147 667h32l-68 -309h455l68 309h32z" />
    <glyph glyph-name="I" unicode="I" horiz-adv-x="208" 
d="M66 0h-32l147 667h32z" />
    <glyph glyph-name="J" unicode="J" horiz-adv-x="465" 
d="M153 -12c-76 0 -139 32 -169 92l27 20c27 -52 74 -82 142 -82c99 0 157 69 179 167l106 482h32l-106 -482c-30 -133 -108 -197 -211 -197z" />
    <glyph glyph-name="K" unicode="K" horiz-adv-x="571" 
d="M486 0h-39l-226 331l-102 -90l-53 -241h-32l147 667h32l-84 -380l428 380h46l-360 -319z" />
    <glyph glyph-name="L" unicode="L" horiz-adv-x="517" 
d="M401 0h-367l147 667h32l-141 -637h335z" />
    <glyph glyph-name="M" unicode="M" horiz-adv-x="770" 
d="M628 0h-32l139 629l-399 -629h-10l-121 629l-139 -629h-32l147 667h49l114 -597l378 597h53z" />
    <glyph glyph-name="N" unicode="N" horiz-adv-x="690" 
d="M548 0h-32l-313 619l-137 -619h-32l147 667h32l314 -613l136 613h32z" />
    <glyph glyph-name="O" unicode="O" horiz-adv-x="764" 
d="M365 -12c-160 0 -291 99 -291 286c0 228 166 404 364 404c160 0 291 -99 291 -286c0 -228 -166 -404 -364 -404zM367 18c171 0 326 154 326 374c0 169 -119 256 -258 256c-172 0 -325 -154 -325 -374c0 -169 118 -256 257 -256z" />
    <glyph glyph-name="P" unicode="P" horiz-adv-x="555" 
d="M66 0h-32l147 667h219c96 0 166 -76 166 -162c0 -104 -71 -216 -239 -216h-197zM136 319h198c133 0 197 89 197 186c0 69 -58 132 -135 132h-189z" />
    <glyph glyph-name="Q" unicode="Q" horiz-adv-x="764" 
d="M365 -12c-160 0 -291 99 -291 286c0 228 166 404 364 404c160 0 291 -99 291 -286c0 -140 -62 -260 -156 -332l49 -62l-26 -21l-50 64c-54 -34 -116 -53 -181 -53zM367 18c57 0 112 17 160 48l-95 122l26 21l96 -124c82 66 139 174 139 307c0 169 -119 256 -258 256
c-172 0 -325 -154 -325 -374c0 -169 118 -256 257 -256z" />
    <glyph glyph-name="R" unicode="R" horiz-adv-x="579" 
d="M470 0h-37l-140 288h-164l-63 -288h-32l147 667h212c85 0 174 -58 174 -162c0 -125 -92 -217 -240 -217zM331 318h3c129 0 197 88 197 187c0 78 -69 132 -138 132h-186l-71 -319h195z" />
    <glyph glyph-name="S" unicode="S" horiz-adv-x="575" 
d="M273 -12c-110 0 -205 51 -242 115l29 21c46 -66 120 -106 216 -106c133 0 188 91 188 166c0 163 -336 134 -336 318c0 98 99 176 215 176c100 0 183 -42 219 -103l-29 -21c-40 64 -113 94 -190 94c-100 0 -179 -71 -179 -146c0 -149 336 -128 336 -318
c0 -93 -76 -196 -227 -196z" />
    <glyph glyph-name="T" unicode="T" horiz-adv-x="559" 
d="M241 0h-32l141 637h-225l6 30h483l-6 -30h-226z" />
    <glyph glyph-name="U" unicode="U" horiz-adv-x="672" 
d="M319 -12c-142 0 -234 81 -234 212c0 19 2 38 5 53l91 414h32l-91 -414c-2 -8 -6 -28 -6 -49c0 -111 75 -186 203 -186c140 0 202 87 235 235l91 414h32l-91 -414c-37 -165 -105 -265 -267 -265z" />
    <glyph glyph-name="V" unicode="V" horiz-adv-x="636" 
d="M283 0h-38l-131 667h35l121 -630l399 630h39z" />
    <glyph glyph-name="W" unicode="W" horiz-adv-x="852" 
d="M583 0h-38l-39 607l-307 -607h-38l-43 667h34l37 -619l312 619h34l38 -619l311 619h36z" />
    <glyph glyph-name="X" unicode="X" horiz-adv-x="638" 
d="M559 0h-37l-184 321l-320 -321h-47l349 345l-187 322h38l172 -302l300 302h48l-330 -327z" />
    <glyph glyph-name="Y" unicode="Y" horiz-adv-x="610" 
d="M267 0h-32l64 289l-185 378h37l167 -346l319 346h45l-351 -378z" />
    <glyph glyph-name="Z" unicode="Z" horiz-adv-x="578" 
d="M471 0h-472l6 30l558 607h-423l6 30h465l-6 -30l-559 -607h431z" />
    <glyph glyph-name="a" unicode="a" horiz-adv-x="566" 
d="M304 495c84 0 147 -42 180 -99l19 87h30l-107 -483h-30l17 77c-39 -52 -100 -89 -172 -89c-111 0 -190 74 -190 198c0 167 104 309 253 309zM304 468c-133 0 -219 -139 -219 -278c0 -108 62 -175 158 -175c75 0 144 49 180 104l55 251c-25 53 -88 98 -174 98z" />
    <glyph glyph-name="a.alt1" horiz-adv-x="514" 
d="M376 0h-30l12 55c-47 -44 -91 -67 -155 -67c-85 0 -165 44 -165 140c0 115 85 182 182 182c83 0 138 -29 177 -79l23 103c2 11 4 25 4 36c0 58 -54 98 -133 98c-69 0 -121 -29 -158 -67l-19 22c54 49 108 72 177 72c87 0 163 -40 163 -124c0 -13 -3 -30 -5 -40zM208 15
c63 0 113 26 157 72l27 118c-30 53 -95 78 -167 78c-90 0 -153 -66 -153 -152c0 -77 59 -116 136 -116z" />
    <glyph glyph-name="b" unicode="b" horiz-adv-x="566" 
d="M261 -12c-84 0 -147 42 -180 99l-19 -87h-30l147 667h30l-57 -261c39 52 100 89 172 89c111 0 190 -74 190 -198c0 -167 -104 -309 -253 -309zM261 15c133 0 219 139 219 278c0 108 -62 175 -158 175c-75 0 -144 -49 -180 -104l-55 -251c25 -53 88 -98 174 -98z" />
    <glyph glyph-name="c" unicode="c" horiz-adv-x="493" 
d="M260 -12c-118 0 -209 74 -209 212c0 159 116 295 264 295c79 0 134 -30 167 -86l-24 -17c-30 53 -84 76 -140 76c-146 0 -234 -133 -234 -271c0 -121 77 -182 178 -182c58 0 107 27 140 66l19 -21c-44 -45 -92 -72 -161 -72z" />
    <glyph glyph-name="d" unicode="d" horiz-adv-x="566" 
d="M304 495c84 0 147 -42 180 -99l60 271h30l-148 -667h-30l17 77c-39 -52 -100 -89 -172 -89c-111 0 -190 74 -190 198c0 167 104 309 253 309zM304 468c-133 0 -219 -139 -219 -278c0 -108 62 -175 158 -175c75 0 144 49 180 104l55 251c-25 53 -88 98 -174 98z" />
    <glyph glyph-name="e" unicode="e" horiz-adv-x="571" 
d="M275 -12c-143 0 -224 89 -224 212c0 162 119 295 265 295c131 0 201 -94 201 -207c0 -19 -4 -44 -7 -56h-423c-1 -6 -2 -22 -2 -32c0 -104 64 -185 190 -185c51 0 108 19 153 57l15 -22c-42 -34 -104 -62 -168 -62zM90 259h395c1 6 2 19 2 26c0 108 -64 183 -176 183
c-106 0 -202 -96 -221 -209z" />
    <glyph glyph-name="f" unicode="f" horiz-adv-x="246" 
d="M76 0h-30l101 456h-80l6 27h80l11 51c20 90 64 143 140 143c36 0 59 -9 85 -34l-20 -20c-16 17 -36 27 -68 27c-61 0 -91 -43 -107 -116l-11 -51h98l-6 -27h-98z" />
    <glyph glyph-name="f.alt1" horiz-adv-x="246" 
d="M76 0h-30l101 456h-80l6 27h80l11 51c20 90 64 143 140 143c26 0 45 -4 67 -19l-15 -23c-16 12 -36 15 -55 15c-61 0 -91 -43 -107 -116l-11 -51h98l-6 -27h-98z" />
    <glyph glyph-name="g" unicode="g" horiz-adv-x="566" 
d="M212 -196c-88 0 -154 17 -201 81l26 23c35 -54 92 -77 175 -77s156 46 183 166l17 80c-40 -52 -102 -89 -178 -89c-104 0 -184 68 -184 203c0 157 98 304 252 304c72 0 145 -44 181 -99l20 87h30l-108 -486c-31 -138 -109 -193 -213 -193zM240 15c68 0 139 45 180 96
l58 259c-31 59 -104 98 -179 98c-135 0 -216 -145 -216 -276c0 -111 61 -177 157 -177z" />
    <glyph glyph-name="h" unicode="h" 
d="M388 0h-30l75 339c2 9 6 28 6 37c0 65 -49 92 -115 92s-134 -46 -179 -94l-83 -374h-30l147 667h30l-57 -260c45 44 111 88 178 88c79 0 138 -36 138 -116c0 -8 -3 -31 -6 -42z" />
    <glyph glyph-name="i" unicode="i" horiz-adv-x="202" 
d="M175 566c-15 0 -27 12 -27 26c0 19 18 32 33 32s27 -12 27 -26c0 -19 -18 -32 -33 -32zM62 0h-30l107 483h30z" />
    <glyph glyph-name="j" unicode="j" horiz-adv-x="202" 
d="M-80 -196c-40 0 -78 14 -99 43l21 22c15 -21 44 -38 75 -38c49 0 83 27 98 93l124 559h30l-124 -559c-19 -83 -58 -120 -125 -120zM175 566c-15 0 -27 12 -27 26c0 19 18 32 33 32s27 -12 27 -26c0 -19 -18 -32 -33 -32z" />
    <glyph glyph-name="k" unicode="k" horiz-adv-x="496" 
d="M417 0h-37l-161 246l-124 -95l-33 -151h-30l147 667h30l-105 -475l377 291h46l-284 -218z" />
    <glyph glyph-name="l" unicode="l" horiz-adv-x="202" 
d="M62 0h-30l147 667h30z" />
    <glyph glyph-name="l.alt1" horiz-adv-x="243" 
d="M129 -12c-47 0 -82 22 -82 65c0 13 1 21 3 32l129 582h30l-129 -582c-2 -11 -3 -17 -3 -26c0 -30 21 -44 51 -44c21 0 42 10 55 21l12 -24c-16 -13 -38 -24 -66 -24z" />
    <glyph glyph-name="m" unicode="m" horiz-adv-x="770" 
d="M630 0h-30l77 348c1 4 4 17 4 28c0 59 -44 92 -94 92c-54 0 -117 -44 -158 -93l-83 -375h-30l77 348c3 16 4 21 4 35c0 48 -33 85 -95 85c-54 0 -114 -44 -157 -93l-83 -375h-30l107 483h30l-17 -76c27 32 87 88 156 88c77 0 118 -55 118 -97v-2c39 49 100 99 167 99
c62 0 117 -40 117 -116c0 -10 -3 -26 -6 -42z" />
    <glyph glyph-name="n" unicode="n" 
d="M388 0h-30l75 338c2 10 6 25 6 38c0 65 -49 92 -115 92s-134 -45 -179 -93l-83 -375h-30l107 483h30l-17 -76c45 44 111 88 178 88c79 0 138 -36 138 -116c0 -10 -3 -30 -6 -42z" />
    <glyph glyph-name="o" unicode="o" horiz-adv-x="570" 
d="M256 -12c-123 0 -205 81 -205 210c0 154 112 297 261 297c123 0 205 -81 205 -210c0 -154 -112 -297 -261 -297zM256 15c131 0 227 133 227 270c0 110 -63 183 -171 183c-131 0 -227 -133 -227 -270c0 -110 63 -183 171 -183z" />
    <glyph glyph-name="p" unicode="p" horiz-adv-x="562" 
d="M261 -12c-84 0 -147 42 -180 99l-60 -271h-30l148 667h30l-17 -77c39 52 100 89 172 89c111 0 190 -74 190 -198c0 -167 -104 -309 -253 -309zM261 15c133 0 219 139 219 278c0 108 -62 175 -158 175c-75 0 -144 -49 -180 -104l-55 -251c25 -53 88 -98 174 -98z" />
    <glyph glyph-name="q" unicode="q" horiz-adv-x="562" 
d="M304 495c84 0 147 -42 180 -99l19 87h30l-148 -667h-30l58 261c-39 -52 -100 -89 -172 -89c-111 0 -190 74 -190 198c0 167 104 309 253 309zM304 468c-133 0 -219 -139 -219 -278c0 -108 62 -175 158 -175c75 0 144 49 180 104l55 251c-25 53 -88 98 -174 98z" />
    <glyph glyph-name="r" unicode="r" horiz-adv-x="304" 
d="M62 0h-30l107 483h30l-19 -82c52 61 98 91 187 91l-8 -35c-5 1 -16 2 -31 2c-63 0 -124 -49 -156 -97z" />
    <glyph glyph-name="s" unicode="s" horiz-adv-x="454" 
d="M197 -12c-87 0 -148 29 -184 84l27 20c24 -41 79 -77 154 -77c91 0 146 56 146 115c0 115 -262 103 -262 228c0 76 62 137 169 137c83 0 146 -39 168 -79l-25 -19c-20 40 -82 71 -147 71c-81 0 -134 -44 -134 -100c0 -109 262 -94 262 -229c0 -77 -62 -151 -174 -151z
" />
    <glyph glyph-name="t" unicode="t" horiz-adv-x="256" 
d="M135 -12c-52 0 -82 23 -82 73c0 4 1 15 3 24l83 371h-80l6 27h80l29 132h30l-29 -132h98l-6 -27h-98l-83 -371c-1 -6 -2 -13 -2 -22c0 -31 17 -48 50 -48c21 0 42 10 55 21l12 -24c-18 -14 -39 -24 -66 -24z" />
    <glyph glyph-name="u" unicode="u" 
d="M139 483h30l-75 -338c-2 -10 -6 -25 -6 -38c0 -65 49 -92 115 -92s134 45 179 93l83 375h30l-107 -483h-30l17 76c-45 -44 -111 -88 -178 -88c-79 0 -138 36 -138 116c0 10 3 30 6 42z" />
    <glyph glyph-name="v" unicode="v" horiz-adv-x="471" 
d="M199 0h-35l-100 483h33l90 -448l289 448h37z" />
    <glyph glyph-name="w" unicode="w" horiz-adv-x="704" 
d="M468 0h-24l-49 438l-243 -438h-24l-53 483h31l43 -436l242 436h24l48 -436l237 436h35z" />
    <glyph glyph-name="x" unicode="x" horiz-adv-x="472" 
d="M396 0h-36l-125 228l-225 -228h-42l251 248l-133 235h36l116 -214l212 214h42l-239 -235z" />
    <glyph glyph-name="y" unicode="y" horiz-adv-x="471" 
d="M-45 -186l13 31c10 -5 27 -9 46 -9c27 0 49 13 81 61l66 100l-97 486h33l90 -448l289 448h37l-389 -597c-34 -52 -72 -82 -120 -82c-17 0 -36 4 -49 10z" />
    <glyph glyph-name="y.alt1" 
d="M174 -196c-101 0 -158 24 -201 81l26 23c32 -53 93 -77 175 -77c102 0 160 65 183 165l17 78c-51 -46 -110 -86 -177 -86c-70 0 -137 29 -137 114c0 9 0 22 5 44l74 337h30l-75 -338c-3 -15 -5 -31 -5 -40c0 -70 56 -90 114 -90c66 0 135 45 179 93l83 375h30l-108 -487
c-33 -146 -117 -192 -213 -192z" />
    <glyph glyph-name="z" unicode="z" horiz-adv-x="466" 
d="M352 0h-346l5 27l399 429h-303l6 27h342l-6 -27l-401 -429h309z" />
    <glyph glyph-name="A.smcp" unicode="&#xf761;" horiz-adv-x="551" 
d="M325 550h35l120 -550h-34l-32 146h-317l-95 -146h-39zM408 175l-71 337l-222 -337h293z" />
    <glyph glyph-name="B.smcp" unicode="&#xf762;" horiz-adv-x="527" 
d="M265 0h-233l121 550h194c80 0 155 -36 155 -123c0 -67 -43 -132 -125 -148c45 -16 79 -65 79 -115c0 -94 -69 -164 -191 -164zM70 29h201c86 0 150 57 150 135c0 60 -42 105 -118 105h-180zM314 298h20c88 0 134 65 134 129c0 65 -57 94 -127 94h-162l-51 -223h186z" />
    <glyph glyph-name="C.smcp" unicode="&#xf763;" horiz-adv-x="580" 
d="M325 -12c-152 0 -265 95 -265 249c0 177 152 325 323 325c82 0 162 -38 205 -100l-25 -18c-37 55 -109 89 -180 89c-149 0 -289 -128 -289 -296c0 -132 98 -220 231 -220c66 0 129 22 180 71l20 -22c-63 -55 -127 -78 -200 -78z" />
    <glyph glyph-name="D.smcp" unicode="&#xf764;" horiz-adv-x="606" 
d="M215 0h-183l121 550h156c155 0 250 -115 250 -239c0 -152 -120 -311 -344 -311zM215 29h6c195 0 303 142 303 282c0 120 -87 210 -221 210h-124l-109 -492h145z" />
    <glyph glyph-name="E.smcp" unicode="&#xf765;" horiz-adv-x="500" 
d="M386 0h-354l121 550h354l-6 -29h-322l-50 -223h317l-6 -29h-317l-53 -240h322z" />
    <glyph glyph-name="F.smcp" unicode="&#xf766;" horiz-adv-x="476" 
d="M64 0h-32l121 550h354l-6 -29h-322l-50 -223h317l-6 -29h-317z" />
    <glyph glyph-name="G.smcp" unicode="&#xf767;" horiz-adv-x="634" 
d="M325 -12c-149 0 -266 96 -266 244c0 172 140 330 324 330c87 0 167 -41 215 -102l-25 -20c-35 49 -110 93 -190 93c-165 0 -289 -143 -289 -301c0 -126 100 -216 231 -216c72 0 129 26 163 50l38 172h-203l6 29h235l-47 -216c-44 -33 -106 -63 -192 -63z" />
    <glyph glyph-name="G.smcp.alt1" horiz-adv-x="652" 
d="M329 -12c-161 0 -269 104 -269 243c0 190 153 331 320 331c87 0 163 -31 223 -106l-25 -21c-43 63 -119 98 -195 98c-145 0 -289 -120 -289 -297c0 -132 105 -220 231 -220c118 0 227 89 253 222h-255l6 28h284c-12 -144 -130 -278 -284 -278z" />
    <glyph glyph-name="H.smcp" unicode="&#xf768;" horiz-adv-x="622" 
d="M482 0h-31l59 269h-387l-59 -269h-32l121 550h32l-56 -252h387l56 252h31z" />
    <glyph glyph-name="I.smcp" unicode="&#xf769;" horiz-adv-x="204" 
d="M64 0h-32l121 550h32z" />
    <glyph glyph-name="J.smcp" unicode="&#xf76a;" horiz-adv-x="412" 
d="M121 -12c-73 0 -122 30 -147 80l29 18c23 -44 59 -69 118 -69c89 0 134 55 152 134l88 399h32l-88 -399c-24 -110 -87 -163 -184 -163z" />
    <glyph glyph-name="K.smcp" unicode="&#xf76b;" horiz-adv-x="507" 
d="M428 0h-41l-197 269l-83 -71l-43 -198h-32l121 550h32l-68 -309l361 309h45l-310 -263z" />
    <glyph glyph-name="L.smcp" unicode="&#xf76c;" horiz-adv-x="449" 
d="M352 0h-320l121 550h32l-115 -521h288z" />
    <glyph glyph-name="M.smcp" unicode="&#xf76d;" horiz-adv-x="687" 
d="M547 0h-32l112 506l-332 -506h-11l-108 506l-112 -506h-32l121 550h46l103 -485l317 485h49z" />
    <glyph glyph-name="N.smcp" unicode="&#xf76e;" horiz-adv-x="618" 
d="M478 0h-30l-273 505l-111 -505h-32l121 550h30l274 -499l110 499h32z" />
    <glyph glyph-name="O.smcp" unicode="&#xf76f;" horiz-adv-x="669" 
d="M313 -12c-161 0 -253 105 -253 249c0 169 131 325 308 325c161 0 253 -105 253 -249c0 -169 -131 -325 -308 -325zM313 17c164 0 275 142 275 296c0 125 -80 220 -220 220c-164 0 -275 -142 -275 -296c0 -125 80 -220 220 -220z" />
    <glyph glyph-name="P.smcp" unicode="&#xf770;" horiz-adv-x="496" 
d="M64 0h-32l121 550h180c98 0 160 -54 160 -133c0 -98 -73 -182 -195 -182h-182zM122 264h182c97 0 155 69 155 153c0 64 -48 104 -132 104h-148z" />
    <glyph glyph-name="Q.smcp" unicode="&#xf771;" horiz-adv-x="669" 
d="M313 -12c-161 0 -253 105 -253 249c0 169 131 325 308 325c161 0 253 -105 253 -249c0 -105 -50 -205 -131 -265l38 -52l-26 -21l-40 54c-44 -26 -94 -41 -149 -41zM313 17c49 0 94 13 132 35l-78 107l27 22l79 -110c72 55 115 146 115 242c0 125 -80 220 -220 220
c-164 0 -275 -142 -275 -296c0 -125 80 -220 220 -220z" />
    <glyph glyph-name="R.smcp" unicode="&#xf772;" horiz-adv-x="521" 
d="M413 0h-40l-121 235h-136l-52 -235h-32l121 550h184c92 0 157 -58 157 -136c0 -87 -56 -179 -206 -179zM290 264h9c106 0 161 68 161 150c0 65 -55 107 -129 107h-152l-57 -257h168z" />
    <glyph glyph-name="S.smcp" unicode="&#xf773;" horiz-adv-x="494" 
d="M232 -12c-90 0 -170 31 -215 98l29 18c34 -52 105 -87 186 -87c121 0 160 69 160 131c0 143 -295 109 -295 266c0 87 93 148 189 148c85 0 154 -37 188 -88l-26 -19c-30 51 -96 78 -162 78c-82 0 -154 -50 -154 -119c0 -128 295 -94 295 -266c0 -76 -53 -160 -195 -160z
" />
    <glyph glyph-name="T.smcp" unicode="&#xf774;" horiz-adv-x="459" 
d="M191 0h-32l115 521h-182l6 29h397l-6 -29h-183z" />
    <glyph glyph-name="U.smcp" unicode="&#xf775;" horiz-adv-x="603" 
d="M279 -12c-129 0 -208 62 -208 173c0 12 3 31 6 46l76 343h32l-76 -343c-3 -15 -5 -31 -5 -44c0 -97 69 -146 175 -146c112 0 170 65 197 190l76 343h32l-76 -343c-31 -140 -94 -219 -229 -219z" />
    <glyph glyph-name="V.smcp" unicode="&#xf776;" horiz-adv-x="551" 
d="M239 0h-35l-120 550h35l109 -512l336 512h37z" />
    <glyph glyph-name="W.smcp" unicode="&#xf777;" horiz-adv-x="735" 
d="M496 0h-34l-40 494l-257 -494h-35l-43 550h33l37 -500l260 500h33l38 -501l259 501h35z" />
    <glyph glyph-name="X.smcp" unicode="&#xf778;" horiz-adv-x="553" 
d="M479 0h-39l-159 259l-272 -259h-43l300 282l-167 268h40l148 -244l257 244h43l-284 -267z" />
    <glyph glyph-name="Y.smcp" unicode="&#xf779;" horiz-adv-x="531" 
d="M230 0h-32l52 238l-166 312h39l148 -282l268 282h42l-299 -312z" />
    <glyph glyph-name="Z.smcp" unicode="&#xf77a;" horiz-adv-x="510" 
d="M413 0h-424l5 27l487 494h-377l6 29h417l-6 -28l-486 -493h384z" />
    <glyph glyph-name="Aacute" unicode="&#xc1;" horiz-adv-x="636" 
d="M561 0h-35l-35 179h-372l-113 -179h-39l425 667h38zM486 209l-81 421l-267 -421h348zM609 867l-207 -144h-32l192 144h47z" />
    <glyph glyph-name="Abreve" unicode="&#x102;" horiz-adv-x="636" 
d="M561 0h-35l-35 179h-372l-113 -179h-39l425 667h38zM486 209l-81 421l-267 -421h348zM609 799c-52 -54 -122 -88 -194 -88c-71 0 -128 34 -157 88l23 19c25 -49 73 -80 138 -80s127 31 172 80z" />
    <glyph glyph-name="Acircumflex" unicode="&#xc2;" horiz-adv-x="636" 
d="M543 723h-26l-65 120l-114 -120h-30l130 144h36zM561 0h-35l-35 179h-372l-113 -179h-39l425 667h38zM486 209l-81 421l-267 -421h348z" />
    <glyph glyph-name="Adieresis" unicode="&#xc4;" horiz-adv-x="636" 
d="M562 768c0 -17 -14 -31 -31 -31c-14 0 -25 11 -25 25c0 17 14 31 31 31c14 0 25 -11 25 -25zM360 768c0 -17 -14 -31 -31 -31c-14 0 -25 11 -25 25c0 17 14 31 31 31c14 0 25 -11 25 -25zM561 0h-35l-35 179h-372l-113 -179h-39l425 667h38zM486 209l-81 421l-267 -421
h348z" />
    <glyph glyph-name="Agrave" unicode="&#xc0;" horiz-adv-x="636" 
d="M561 0h-35l-35 179h-372l-113 -179h-39l425 667h38zM486 209l-81 421l-267 -421h348zM474 723h-30l-143 144h45z" />
    <glyph glyph-name="Amacron" unicode="&#x100;" horiz-adv-x="636" 
d="M561 0h-35l-35 179h-372l-113 -179h-39l425 667h38zM486 209l-81 421l-267 -421h348zM610 748h-362l6 27h362z" />
    <glyph glyph-name="Aogonek" unicode="&#x104;" horiz-adv-x="636" 
d="M565 -113l21 -13c-17 -31 -43 -60 -88 -60c-42 0 -72 24 -72 68c0 58 41 98 98 127l-33 170h-372l-113 -179h-39l425 667h38l131 -667c-63 -27 -108 -63 -108 -113c0 -31 20 -46 50 -46c27 0 47 16 62 46zM486 209l-81 421l-267 -421h348z" />
    <glyph glyph-name="Aring" unicode="&#xc5;" horiz-adv-x="636" 
d="M561 0h-35l-35 179h-372l-113 -179h-39l425 667h38zM486 209l-81 421l-267 -421h348zM428 692c-49 0 -84 35 -84 84c0 55 47 102 102 102c49 0 84 -35 84 -84c0 -55 -47 -102 -102 -102zM428 716c42 0 78 34 78 76c0 37 -24 62 -60 62c-42 0 -78 -34 -78 -76
c0 -36 24 -62 60 -62z" />
    <glyph glyph-name="Atilde" unicode="&#xc3;" horiz-adv-x="636" 
d="M561 0h-35l-35 179h-372l-113 -179h-39l425 667h38zM486 209l-81 421l-267 -421h348zM494 721c-77 0 -54 113 -116 113c-33 0 -59 -32 -76 -107h-27c15 72 52 134 109 134c77 0 54 -113 116 -113c33 0 59 32 77 107h27c-15 -72 -53 -134 -110 -134z" />
    <glyph glyph-name="uni1EA0" unicode="&#x1ea0;" horiz-adv-x="636" 
d="M561 0h-35l-35 179h-372l-113 -179h-39l425 667h38zM486 209l-81 421l-267 -421h348zM262 -141c0 -18 -15 -32 -32 -32c-15 0 -26 11 -26 26c0 17 14 32 32 32c15 0 26 -11 26 -26z" />
    <glyph glyph-name="uni1EA2" unicode="&#x1ea2;" horiz-adv-x="636" 
d="M561 0h-35l-35 179h-372l-113 -179h-39l425 667h38zM486 209l-81 421l-267 -421h348zM388 764l-20 11c14 26 40 45 68 45c33 0 61 -21 61 -57c0 -25 -11 -47 -33 -66h-30c26 22 39 39 39 66c0 23 -19 35 -37 35s-35 -9 -48 -34z" />
    <glyph glyph-name="uni1EA4" unicode="&#x1ea4;" horiz-adv-x="636" 
d="M525 682h-26l-65 90l-114 -90h-30l130 108h36zM561 0h-35l-35 179h-372l-113 -179h-39l425 667h38zM486 209l-81 421l-267 -421h348zM736 845l-207 -108h-32l192 108h47z" />
    <glyph glyph-name="uni1EAC" unicode="&#x1eac;" horiz-adv-x="636" 
d="M561 0h-35l-35 179h-372l-113 -179h-39l425 667h38zM486 209l-81 421l-267 -421h348zM542 723h-26l-65 120l-114 -120h-30l130 144h36zM262 -141c0 -18 -15 -32 -32 -32c-15 0 -26 11 -26 26c0 17 14 32 32 32c15 0 26 -11 26 -26z" />
    <glyph glyph-name="uni1EA6" unicode="&#x1ea6;" horiz-adv-x="636" 
d="M525 682h-26l-65 90l-114 -90h-30l130 108h36zM561 0h-35l-35 179h-372l-113 -179h-39l425 667h38zM486 209l-81 421l-267 -421h348zM344 737h-30l-143 108h45z" />
    <glyph glyph-name="uni1EA8" unicode="&#x1ea8;" horiz-adv-x="636" 
d="M526 682h-26l-65 90l-114 -90h-30l130 108h36zM561 0h-35l-35 179h-372l-113 -179h-39l425 667h38zM486 209l-81 421l-267 -421h348zM453 806l-20 9c14 19 40 33 68 33c33 0 61 -15 61 -42c0 -19 -11 -36 -33 -50h-30c26 17 39 29 39 50c0 17 -19 26 -37 26
s-35 -7 -48 -26z" />
    <glyph glyph-name="uni1EAE" unicode="&#x1eae;" horiz-adv-x="636" 
d="M561 0h-35l-35 179h-372l-113 -179h-39l425 667h38zM486 209l-81 421l-267 -421h348zM593 844l-207 -108h-32l192 108h47zM603 774c-52 -54 -122 -88 -194 -88c-71 0 -128 34 -157 88l23 19c25 -49 73 -80 138 -80s127 31 172 80z" />
    <glyph glyph-name="uni1EAA" unicode="&#x1eaa;" horiz-adv-x="636" 
d="M521 677h-26l-65 60l-114 -60h-30l130 72h36zM561 0h-35l-35 179h-372l-113 -179h-39l425 667h38zM486 209l-81 421l-267 -421h348zM494 757c-77 0 -54 56 -116 56c-33 0 -59 -16 -76 -53h-27c15 36 52 67 109 67c77 0 54 -57 116 -57c33 0 59 16 77 54h27
c-15 -36 -53 -67 -110 -67z" />
    <glyph glyph-name="uni1EB0" unicode="&#x1eb0;" horiz-adv-x="636" 
d="M561 0h-35l-35 179h-372l-113 -179h-39l425 667h38zM486 209l-81 421l-267 -421h348zM484 741h-30l-143 108h45zM604 774c-52 -54 -122 -88 -194 -88c-71 0 -128 34 -157 88l23 19c25 -49 73 -80 138 -80s127 31 172 80z" />
    <glyph glyph-name="uni1EB2" unicode="&#x1eb2;" horiz-adv-x="636" 
d="M561 0h-35l-35 179h-372l-113 -179h-39l425 667h38zM486 209l-81 421l-267 -421h348zM394 790l-20 9c14 19 40 33 68 33c33 0 61 -15 61 -42c0 -19 -11 -36 -33 -50h-30c26 17 39 29 39 50c0 17 -19 26 -37 26s-35 -7 -48 -26zM604 774c-52 -54 -122 -88 -194 -88
c-71 0 -128 34 -157 88l23 19c25 -49 73 -80 138 -80s127 31 172 80z" />
    <glyph glyph-name="uni1EB4" unicode="&#x1eb4;" horiz-adv-x="636" 
d="M561 0h-35l-35 179h-372l-113 -179h-39l425 667h38zM486 209l-81 421l-267 -421h348zM599 745c-52 -36 -122 -58 -194 -58c-71 0 -128 22 -157 58l23 13c25 -33 73 -53 138 -53s127 20 172 53zM495 763c-77 0 -54 56 -116 56c-33 0 -59 -16 -76 -53h-27
c15 36 52 67 109 67c77 0 54 -57 116 -57c33 0 59 16 77 54h27c-15 -36 -53 -67 -110 -67z" />
    <glyph glyph-name="uni1EB6" unicode="&#x1eb6;" horiz-adv-x="636" 
d="M561 0h-35l-35 179h-372l-113 -179h-39l425 667h38zM486 209l-81 421l-267 -421h348zM262 -141c0 -18 -15 -32 -32 -32c-15 0 -26 11 -26 26c0 17 14 32 32 32c15 0 26 -11 26 -26zM609 799c-52 -54 -122 -88 -194 -88c-71 0 -128 34 -157 88l23 19
c25 -49 73 -80 138 -80s127 31 172 80z" />
    <glyph glyph-name="AE" unicode="&#xc6;" horiz-adv-x="930" 
d="M811 0h-408l39 179h-283l-152 -179h-40l572 667h419l-6 -30h-376l-62 -279h369l-7 -30h-369l-66 -298h376zM449 209l92 417l-358 -417h266z" />
    <glyph glyph-name="AEacute" unicode="&#x1fc;" horiz-adv-x="930" 
d="M763 867l-207 -144h-32l192 144h47zM811 0h-408l39 179h-283l-152 -179h-40l572 667h419l-6 -30h-376l-62 -279h369l-7 -30h-369l-66 -298h376zM449 209l92 417l-358 -417h266z" />
    <glyph glyph-name="uni1E02" unicode="&#x1e02;" horiz-adv-x="600" 
d="M296 0h-262l147 667h237c82 0 160 -54 160 -148c0 -98 -72 -172 -156 -182c54 -14 98 -75 98 -139c0 -103 -74 -198 -224 -198zM375 358c124 0 167 85 167 161c0 67 -57 118 -130 118h-205l-62 -279h230zM302 30c120 0 183 84 183 168c0 73 -50 130 -136 130h-211
l-66 -298h230zM445 765c0 -18 -15 -32 -32 -32c-15 0 -26 11 -26 26c0 17 14 32 32 32c15 0 26 -11 26 -26z" />
    <glyph glyph-name="Cacute" unicode="&#x106;" horiz-adv-x="667" 
d="M675 872l-207 -144h-32l192 144h47zM365 -12c-172 0 -291 114 -291 286c0 245 183 404 364 404c104 0 198 -40 252 -129l-30 -19c-52 87 -136 118 -225 118c-159 0 -325 -141 -325 -374c0 -155 99 -256 257 -256c67 0 132 22 198 76l20 -23c-65 -55 -142 -83 -220 -83z
" />
    <glyph glyph-name="Ccedilla" unicode="&#xc7;" horiz-adv-x="667" 
d="M309 -187c-43 0 -77 15 -99 36l20 25c21 -24 53 -34 82 -34c49 0 71 26 71 56c0 22 -16 36 -43 36c-14 0 -29 -6 -40 -19l-19 13l38 65c-147 18 -245 127 -245 283c0 245 183 404 364 404c104 0 198 -40 252 -129l-30 -19c-52 87 -136 118 -225 118
c-159 0 -325 -141 -325 -374c0 -155 99 -256 257 -256c67 0 132 22 198 76l20 -23c-65 -55 -142 -83 -220 -83c-6 0 -12 0 -18 1l-27 -47c11 9 22 12 35 12c34 0 57 -20 57 -56c0 -49 -40 -85 -103 -85z" />
    <glyph glyph-name="Ccircumflex" unicode="&#x108;" horiz-adv-x="667" 
d="M606 723h-26l-65 120l-114 -120h-30l130 144h36zM365 -12c-172 0 -291 114 -291 286c0 245 183 404 364 404c104 0 198 -40 252 -129l-30 -19c-52 87 -136 118 -225 118c-159 0 -325 -141 -325 -374c0 -155 99 -256 257 -256c67 0 132 22 198 76l20 -23
c-65 -55 -142 -83 -220 -83z" />
    <glyph glyph-name="Cdotaccent" unicode="&#x10a;" horiz-adv-x="667" 
d="M365 -12c-172 0 -291 114 -291 286c0 245 183 404 364 404c104 0 198 -40 252 -129l-30 -19c-52 87 -136 118 -225 118c-159 0 -325 -141 -325 -374c0 -155 99 -256 257 -256c67 0 132 22 198 76l20 -23c-65 -55 -142 -83 -220 -83zM525 765c0 -18 -15 -32 -32 -32
c-15 0 -26 11 -26 26c0 17 14 32 32 32c15 0 26 -11 26 -26z" />
    <glyph glyph-name="Ccaron" unicode="&#x10c;" horiz-adv-x="667" 
d="M509 723h-36l-69 144h26l64 -120l115 120h30zM365 -12c-172 0 -291 114 -291 286c0 245 183 404 364 404c104 0 198 -40 252 -129l-30 -19c-52 87 -136 118 -225 118c-159 0 -325 -141 -325 -374c0 -155 99 -256 257 -256c67 0 132 22 198 76l20 -23
c-65 -55 -142 -83 -220 -83z" />
    <glyph glyph-name="Dcaron" unicode="&#x10e;" horiz-adv-x="684" 
d="M475 723h-36l-69 144h26l64 -120l115 120h30zM231 0h-197l147 667h193c149 0 266 -121 266 -283c0 -187 -140 -384 -409 -384zM230 30h6c226 0 370 164 370 354c0 146 -103 253 -238 253h-161l-135 -607h158z" />
    <glyph glyph-name="Dcroat" unicode="&#x110;" horiz-adv-x="715" 
d="M262 0h-197l70 319h-107l7 30h107l70 318h193c149 0 266 -121 266 -283c0 -187 -140 -384 -409 -384zM354 319h-187l-64 -289h164c226 0 370 164 370 354c0 146 -103 253 -238 253h-161l-64 -288h187z" />
    <glyph glyph-name="uni1E0A" unicode="&#x1e0a;" horiz-adv-x="684" 
d="M231 0h-197l147 667h193c149 0 266 -121 266 -283c0 -187 -140 -384 -409 -384zM230 30h6c226 0 370 164 370 354c0 146 -103 253 -238 253h-161l-135 -607h158zM493 765c0 -18 -15 -32 -32 -32c-15 0 -26 11 -26 26c0 17 14 32 32 32c15 0 26 -11 26 -26z" />
    <glyph glyph-name="Eacute" unicode="&#xc9;" horiz-adv-x="558" 
d="M583 867l-207 -144h-32l192 144h47zM442 0h-408l147 667h408l-6 -30h-376l-62 -279h369l-7 -30h-369l-66 -298h376z" />
    <glyph glyph-name="Ebreve" unicode="&#x114;" horiz-adv-x="558" 
d="M442 0h-408l147 667h408l-6 -30h-376l-62 -279h369l-7 -30h-369l-66 -298h376zM582 799c-52 -54 -122 -88 -194 -88c-71 0 -128 34 -157 88l23 19c25 -49 73 -80 138 -80s127 31 172 80z" />
    <glyph glyph-name="Ecircumflex" unicode="&#xca;" horiz-adv-x="558" 
d="M514 723h-26l-65 120l-114 -120h-30l130 144h36zM442 0h-408l147 667h408l-6 -30h-376l-62 -279h369l-7 -30h-369l-66 -298h376z" />
    <glyph glyph-name="Edieresis" unicode="&#xcb;" horiz-adv-x="558" 
d="M535 768c0 -17 -14 -31 -31 -31c-14 0 -25 11 -25 25c0 17 14 31 31 31c14 0 25 -11 25 -25zM333 768c0 -17 -14 -31 -31 -31c-14 0 -25 11 -25 25c0 17 14 31 31 31c14 0 25 -11 25 -25zM442 0h-408l147 667h408l-6 -30h-376l-62 -279h369l-7 -30h-369l-66 -298h376z
" />
    <glyph glyph-name="Edotaccent" unicode="&#x116;" horiz-adv-x="558" 
d="M442 0h-408l147 667h408l-6 -30h-376l-62 -279h369l-7 -30h-369l-66 -298h376zM434 765c0 -18 -15 -32 -32 -32c-15 0 -26 11 -26 26c0 17 14 32 32 32c15 0 26 -11 26 -26z" />
    <glyph glyph-name="Egrave" unicode="&#xc8;" horiz-adv-x="558" 
d="M442 0h-408l147 667h408l-6 -30h-376l-62 -279h369l-7 -30h-369l-66 -298h376zM449 723h-30l-143 144h45z" />
    <glyph glyph-name="Emacron" unicode="&#x112;" horiz-adv-x="558" 
d="M442 0h-408l147 667h408l-6 -30h-376l-62 -279h369l-7 -30h-369l-66 -298h376zM582 748h-362l6 27h362z" />
    <glyph glyph-name="Eogonek" unicode="&#x118;" horiz-adv-x="558" 
d="M442 0c-63 -27 -108 -63 -108 -113c0 -31 20 -46 50 -46c27 0 47 16 62 46l21 -13c-17 -31 -43 -60 -88 -60c-42 0 -72 24 -72 68c0 52 33 90 82 118h-355l147 667h408l-6 -30h-376l-62 -279h369l-7 -30h-369l-66 -298h376z" />
    <glyph glyph-name="Ecaron" unicode="&#x11a;" horiz-adv-x="558" 
d="M417 723h-36l-69 144h26l64 -120l115 120h30zM442 0h-408l147 667h408l-6 -30h-376l-62 -279h369l-7 -30h-369l-66 -298h376z" />
    <glyph glyph-name="uni1EB8" unicode="&#x1eb8;" horiz-adv-x="558" 
d="M442 0h-408l147 667h408l-6 -30h-376l-62 -279h369l-7 -30h-369l-66 -298h376zM234 -141c0 -18 -15 -32 -32 -32c-15 0 -26 11 -26 26c0 17 14 32 32 32c15 0 26 -11 26 -26z" />
    <glyph glyph-name="uni1EBA" unicode="&#x1eba;" horiz-adv-x="558" 
d="M442 0h-408l147 667h408l-6 -30h-376l-62 -279h369l-7 -30h-369l-66 -298h376zM361 764l-20 11c14 26 40 45 68 45c33 0 61 -21 61 -57c0 -25 -11 -47 -33 -66h-30c26 22 39 39 39 66c0 23 -19 35 -37 35s-35 -9 -48 -34z" />
    <glyph glyph-name="uni1EBC" unicode="&#x1ebc;" horiz-adv-x="558" 
d="M442 0h-408l147 667h408l-6 -30h-376l-62 -279h369l-7 -30h-369l-66 -298h376zM467 721c-77 0 -54 113 -116 113c-33 0 -59 -32 -76 -107h-27c15 72 52 134 109 134c77 0 54 -113 116 -113c33 0 59 32 77 107h27c-15 -72 -53 -134 -110 -134z" />
    <glyph glyph-name="uni1EBE" unicode="&#x1ebe;" horiz-adv-x="558" 
d="M498 682h-26l-65 90l-114 -90h-30l130 108h36zM709 845l-207 -108h-32l192 108h47zM442 0h-408l147 667h408l-6 -30h-376l-62 -279h369l-7 -30h-369l-66 -298h376z" />
    <glyph glyph-name="uni1EC0" unicode="&#x1ec0;" horiz-adv-x="558" 
d="M498 682h-26l-65 90l-114 -90h-30l130 108h36zM442 0h-408l147 667h408l-6 -30h-376l-62 -279h369l-7 -30h-369l-66 -298h376zM317 737h-30l-143 108h45z" />
    <glyph glyph-name="uni1EC2" unicode="&#x1ec2;" horiz-adv-x="558" 
d="M500 682h-26l-65 90l-114 -90h-30l130 108h36zM442 0h-408l147 667h408l-6 -30h-376l-62 -279h369l-7 -30h-369l-66 -298h376zM427 806l-20 9c14 19 40 33 68 33c33 0 61 -15 61 -42c0 -19 -11 -36 -33 -50h-30c26 17 39 29 39 50c0 17 -19 26 -37 26s-35 -7 -48 -26z
" />
    <glyph glyph-name="uni1EC4" unicode="&#x1ec4;" horiz-adv-x="558" 
d="M503 678h-26l-65 60l-114 -60h-30l130 72h36zM442 0h-408l147 667h408l-6 -30h-376l-62 -279h369l-7 -30h-369l-66 -298h376zM467 757c-77 0 -54 56 -116 56c-33 0 -59 -16 -76 -53h-27c15 36 52 67 109 67c77 0 54 -57 116 -57c33 0 59 16 77 54h27
c-15 -36 -53 -67 -110 -67z" />
    <glyph glyph-name="uni1EC6" unicode="&#x1ec6;" horiz-adv-x="558" 
d="M514 723h-26l-65 120l-114 -120h-30l130 144h36zM442 0h-408l147 667h408l-6 -30h-376l-62 -279h369l-7 -30h-369l-66 -298h376zM234 -141c0 -18 -15 -32 -32 -32c-15 0 -26 11 -26 26c0 17 14 32 32 32c15 0 26 -11 26 -26z" />
    <glyph glyph-name="uni1E1E" unicode="&#x1e1e;" horiz-adv-x="533" 
d="M434 765c0 -18 -15 -32 -32 -32c-15 0 -26 11 -26 26c0 17 14 32 32 32c15 0 26 -11 26 -26zM66 0h-32l147 667h408l-6 -30h-376l-62 -279h369l-7 -30h-369z" />
    <glyph glyph-name="Gcircumflex" unicode="&#x11c;" horiz-adv-x="708" 
d="M606 723h-26l-65 120l-114 -120h-30l130 144h36zM365 -12c-182 0 -291 123 -291 286c0 236 173 404 364 404c112 0 200 -46 252 -129l-27 -17c-46 80 -133 116 -228 116c-167 0 -325 -154 -325 -374c0 -159 103 -256 257 -256c94 0 164 43 212 88l41 184h-275l6 30h307
l-51 -232c-71 -64 -152 -100 -242 -100z" />
    <glyph glyph-name="Gbreve" unicode="&#x11e;" horiz-adv-x="708" 
d="M365 -12c-182 0 -291 123 -291 286c0 236 173 404 364 404c112 0 200 -46 252 -129l-27 -17c-46 80 -133 116 -228 116c-167 0 -325 -154 -325 -374c0 -159 103 -256 257 -256c94 0 164 43 212 88l41 184h-275l6 30h307l-51 -232c-71 -64 -152 -100 -242 -100zM674 799
c-52 -54 -122 -88 -194 -88c-71 0 -128 34 -157 88l23 19c25 -49 73 -80 138 -80s127 31 172 80z" />
    <glyph glyph-name="Gdotaccent" unicode="&#x120;" horiz-adv-x="708" 
d="M365 -12c-182 0 -291 123 -291 286c0 236 173 404 364 404c112 0 200 -46 252 -129l-27 -17c-46 80 -133 116 -228 116c-167 0 -325 -154 -325 -374c0 -159 103 -256 257 -256c94 0 164 43 212 88l41 184h-275l6 30h307l-51 -232c-71 -64 -152 -100 -242 -100zM525 765
c0 -18 -15 -32 -32 -32c-15 0 -26 11 -26 26c0 17 14 32 32 32c15 0 26 -11 26 -26z" />
    <glyph glyph-name="Gcommaaccent" unicode="&#x122;" horiz-adv-x="708" 
d="M335 -122c0 -51 -45 -106 -89 -130l-18 20c37 20 65 54 72 84h-6c-14 0 -26 14 -26 28c0 20 16 36 35 36s32 -13 32 -38zM365 -12c-182 0 -291 123 -291 286c0 236 173 404 364 404c112 0 200 -46 252 -129l-27 -17c-46 80 -133 116 -228 116c-167 0 -325 -154 -325 -374
c0 -159 103 -256 257 -256c94 0 164 43 212 88l41 184h-275l6 30h307l-51 -232c-71 -64 -152 -100 -242 -100z" />
    <glyph glyph-name="Gbreve.alt1" horiz-adv-x="749" 
d="M674 799c-52 -54 -122 -88 -194 -88c-71 0 -128 34 -157 88l23 19c25 -49 73 -80 138 -80s127 31 172 80zM355 -12c-167 0 -281 113 -281 286c0 243 181 404 374 404c101 0 190 -44 242 -129l-27 -17c-47 81 -133 116 -222 116c-157 0 -331 -140 -331 -374
c0 -159 101 -256 251 -256c173 0 274 124 315 272h-331l6 30h364c-43 -199 -161 -332 -360 -332z" />
    <glyph glyph-name="Gcommaaccent.alt1" horiz-adv-x="749" 
d="M335 -122c0 -51 -45 -106 -89 -130l-18 20c37 20 65 54 72 84h-6c-14 0 -26 14 -26 28c0 20 16 36 35 36s32 -13 32 -38zM355 -12c-167 0 -281 113 -281 286c0 243 181 404 374 404c101 0 190 -44 242 -129l-27 -17c-47 81 -133 116 -222 116c-157 0 -331 -140 -331 -374
c0 -159 101 -256 251 -256c173 0 274 124 315 272h-331l6 30h364c-43 -199 -161 -332 -360 -332z" />
    <glyph glyph-name="Gcircumflex.alt1" horiz-adv-x="749" 
d="M605 723h-26l-65 120l-114 -120h-30l130 144h36zM355 -12c-167 0 -281 113 -281 286c0 243 181 404 374 404c101 0 190 -44 242 -129l-27 -17c-47 81 -133 116 -222 116c-157 0 -331 -140 -331 -374c0 -159 101 -256 251 -256c173 0 274 124 315 272h-331l6 30h364
c-43 -199 -161 -332 -360 -332z" />
    <glyph glyph-name="Gdotaccent.alt1" horiz-adv-x="749" 
d="M526 765c0 -18 -15 -32 -32 -32c-15 0 -26 11 -26 26c0 17 14 32 32 32c15 0 26 -11 26 -26zM355 -12c-167 0 -281 113 -281 286c0 243 181 404 374 404c101 0 190 -44 242 -129l-27 -17c-47 81 -133 116 -222 116c-157 0 -331 -140 -331 -374c0 -159 101 -256 251 -256
c173 0 274 124 315 272h-331l6 30h364c-43 -199 -161 -332 -360 -332z" />
    <glyph glyph-name="Hbar" unicode="&#x126;" horiz-adv-x="717" 
d="M565 0h-32l72 328h-455l-72 -328h-32l110 501h-87l6 27h87l31 139h32l-31 -139h455l31 139h32l-31 -139h85l-6 -27h-85zM157 358h455l31 143h-455z" />
    <glyph glyph-name="Hcircumflex" unicode="&#x124;" horiz-adv-x="695" 
d="M570 723h-26l-65 120l-114 -120h-30l130 144h36zM553 0h-32l72 328h-455l-72 -328h-32l147 667h32l-68 -309h455l68 309h32z" />
    <glyph glyph-name="uni1E22" unicode="&#x1e22;" horiz-adv-x="695" 
d="M553 0h-32l72 328h-455l-72 -328h-32l147 667h32l-68 -309h455l68 309h32zM490 765c0 -18 -15 -32 -32 -32c-15 0 -26 11 -26 26c0 17 14 32 32 32c15 0 26 -11 26 -26z" />
    <glyph glyph-name="Iacute" unicode="&#xcd;" horiz-adv-x="208" 
d="M66 0h-32l147 667h32zM397 867l-207 -144h-32l192 144h47z" />
    <glyph glyph-name="Ibreve" unicode="&#x12c;" horiz-adv-x="208" 
d="M66 0h-32l147 667h32zM395 799c-52 -54 -122 -88 -194 -88c-71 0 -128 34 -157 88l23 19c25 -49 73 -80 138 -80s127 31 172 80z" />
    <glyph glyph-name="Icircumflex" unicode="&#xce;" horiz-adv-x="208" 
d="M329 723h-26l-65 120l-114 -120h-30l130 144h36zM66 0h-32l147 667h32z" />
    <glyph glyph-name="Idieresis" unicode="&#xcf;" horiz-adv-x="208" 
d="M348 768c0 -17 -14 -31 -31 -31c-14 0 -25 11 -25 25c0 17 14 31 31 31c14 0 25 -11 25 -25zM146 768c0 -17 -14 -31 -31 -31c-14 0 -25 11 -25 25c0 17 14 31 31 31c14 0 25 -11 25 -25zM66 0h-32l147 667h32z" />
    <glyph glyph-name="Idotaccent" unicode="&#x130;" horiz-adv-x="208" 
d="M66 0h-32l147 667h32zM247 765c0 -18 -15 -32 -32 -32c-15 0 -26 11 -26 26c0 17 14 32 32 32c15 0 26 -11 26 -26z" />
    <glyph glyph-name="Igrave" unicode="&#xcc;" horiz-adv-x="208" 
d="M66 0h-32l147 667h32zM261 723h-30l-143 144h45z" />
    <glyph glyph-name="Imacron" unicode="&#x12a;" horiz-adv-x="208" 
d="M66 0h-32l147 667h32zM396 748h-362l6 27h362z" />
    <glyph glyph-name="Iogonek" unicode="&#x12e;" horiz-adv-x="208" 
d="M70 -113l21 -13c-17 -31 -43 -60 -88 -60c-42 0 -72 24 -72 68c0 60 45 102 106 131l144 654h32l-147 -667c-63 -27 -108 -63 -108 -113c0 -31 20 -46 50 -46c27 0 47 16 62 46z" />
    <glyph glyph-name="Itilde" unicode="&#x128;" horiz-adv-x="208" 
d="M66 0h-32l147 667h32zM280 721c-77 0 -54 113 -116 113c-33 0 -59 -32 -76 -107h-27c15 72 52 134 109 134c77 0 54 -113 116 -113c33 0 59 32 77 107h27c-15 -72 -53 -134 -110 -134z" />
    <glyph glyph-name="uni1EC8" unicode="&#x1ec8;" horiz-adv-x="208" 
d="M66 0h-32l147 667h32zM174 764l-20 11c14 26 40 45 68 45c33 0 61 -21 61 -57c0 -25 -11 -47 -33 -66h-30c26 22 39 39 39 66c0 23 -19 35 -37 35s-35 -9 -48 -34z" />
    <glyph glyph-name="uni1ECA" unicode="&#x1eca;" horiz-adv-x="208" 
d="M66 0h-32l147 667h32zM48 -141c0 -18 -15 -32 -32 -32c-15 0 -26 11 -26 26c0 17 14 32 32 32c15 0 26 -11 26 -26z" />
    <glyph glyph-name="IJ" unicode="&#x132;" horiz-adv-x="673" 
d="M66 0h-32l147 667h32zM361 -12c-76 0 -139 32 -169 92l27 20c27 -52 74 -82 142 -82c99 0 157 69 179 167l106 482h32l-106 -482c-30 -133 -108 -197 -211 -197z" />
    <glyph glyph-name="Jcircumflex" unicode="&#x134;" horiz-adv-x="465" 
d="M586 723h-26l-65 120l-114 -120h-30l130 144h36zM153 -12c-76 0 -139 32 -169 92l27 20c27 -52 74 -82 142 -82c99 0 157 69 179 167l106 482h32l-106 -482c-30 -133 -108 -197 -211 -197z" />
    <glyph glyph-name="Kcommaaccent" unicode="&#x136;" horiz-adv-x="571" 
d="M250 -122c0 -51 -45 -106 -89 -130l-18 20c37 20 65 54 72 84h-6c-14 0 -26 14 -26 28c0 20 16 36 35 36s32 -13 32 -38zM486 0h-39l-226 331l-102 -90l-53 -241h-32l147 667h32l-84 -380l428 380h46l-360 -319z" />
    <glyph glyph-name="Lacute" unicode="&#x139;" horiz-adv-x="517" 
d="M564 867l-207 -144h-32l192 144h47zM401 0h-367l147 667h32l-141 -637h335z" />
    <glyph glyph-name="Lcaron" unicode="&#x13d;" horiz-adv-x="517" 
d="M380 641c0 -51 -45 -106 -89 -130l-18 20c37 20 65 54 72 84h-6c-14 0 -26 14 -26 28c0 20 16 36 35 36s32 -13 32 -38zM401 0h-367l147 667h32l-141 -637h335z" />
    <glyph glyph-name="Lcommaaccent" unicode="&#x13b;" horiz-adv-x="517" 
d="M217 -122c0 -51 -45 -106 -89 -130l-18 20c37 20 65 54 72 84h-6c-14 0 -26 14 -26 28c0 20 16 36 35 36s32 -13 32 -38zM401 0h-367l147 667h32l-141 -637h335z" />
    <glyph glyph-name="Ldot" unicode="&#x13f;" horiz-adv-x="517" 
d="M401 0h-367l147 667h32l-141 -637h335zM364 309c-17 0 -30 13 -30 30c0 20 16 35 36 35c17 0 30 -13 30 -30c0 -20 -16 -35 -36 -35z" />
    <glyph glyph-name="Lslash" unicode="&#x141;" horiz-adv-x="557" 
d="M28 246l8 34l112 58l73 329h32l-69 -311l129 67l-7 -34l-129 -67l-65 -292h335l-6 -30h-367l67 304z" />
    <glyph glyph-name="Nacute" unicode="&#x143;" horiz-adv-x="690" 
d="M636 867l-207 -144h-32l192 144h47zM548 0h-32l-313 619l-137 -619h-32l147 667h32l314 -613l136 613h32z" />
    <glyph glyph-name="Ncaron" unicode="&#x147;" horiz-adv-x="690" 
d="M471 723h-36l-69 144h26l64 -120l115 120h30zM548 0h-32l-313 619l-137 -619h-32l147 667h32l314 -613l136 613h32z" />
    <glyph glyph-name="Ncommaaccent" unicode="&#x145;" horiz-adv-x="690" 
d="M296 -122c0 -51 -45 -106 -89 -130l-18 20c37 20 65 54 72 84h-6c-14 0 -26 14 -26 28c0 20 16 36 35 36s32 -13 32 -38zM548 0h-32l-313 619l-137 -619h-32l147 667h32l314 -613l136 613h32z" />
    <glyph glyph-name="Ntilde" unicode="&#xd1;" horiz-adv-x="690" 
d="M519 721c-77 0 -54 113 -116 113c-33 0 -59 -32 -76 -107h-27c15 72 52 134 109 134c77 0 54 -113 116 -113c33 0 59 32 77 107h27c-15 -72 -53 -134 -110 -134zM548 0h-32l-313 619l-137 -619h-32l147 667h32l314 -613l136 613h32z" />
    <glyph glyph-name="Eng" unicode="&#x14a;" horiz-adv-x="690" 
d="M337 -196c-82 0 -140 35 -169 92l27 20c24 -50 72 -82 142 -82c93 0 152 59 178 162l1 4l-313 619l-137 -619h-32l147 667h32l314 -613l136 613h32l-148 -671c-33 -132 -109 -192 -210 -192z" />
    <glyph glyph-name="Oacute" unicode="&#xd3;" horiz-adv-x="764" 
d="M672 867l-207 -144h-32l192 144h47zM365 -12c-160 0 -291 99 -291 286c0 228 166 404 364 404c160 0 291 -99 291 -286c0 -228 -166 -404 -364 -404zM367 18c171 0 326 154 326 374c0 169 -119 256 -258 256c-172 0 -325 -154 -325 -374c0 -169 118 -256 257 -256z" />
    <glyph glyph-name="Obreve" unicode="&#x14e;" horiz-adv-x="764" 
d="M365 -12c-160 0 -291 99 -291 286c0 228 166 404 364 404c160 0 291 -99 291 -286c0 -228 -166 -404 -364 -404zM367 18c171 0 326 154 326 374c0 169 -119 256 -258 256c-172 0 -325 -154 -325 -374c0 -169 118 -256 257 -256zM673 799c-52 -54 -122 -88 -194 -88
c-71 0 -128 34 -157 88l23 19c25 -49 73 -80 138 -80s127 31 172 80z" />
    <glyph glyph-name="Ocircumflex" unicode="&#xd4;" horiz-adv-x="764" 
d="M606 723h-26l-65 120l-114 -120h-30l130 144h36zM365 -12c-160 0 -291 99 -291 286c0 228 166 404 364 404c160 0 291 -99 291 -286c0 -228 -166 -404 -364 -404zM367 18c171 0 326 154 326 374c0 169 -119 256 -258 256c-172 0 -325 -154 -325 -374
c0 -169 118 -256 257 -256z" />
    <glyph glyph-name="Odieresis" unicode="&#xd6;" horiz-adv-x="764" 
d="M627 768c0 -17 -14 -31 -31 -31c-14 0 -25 11 -25 25c0 17 14 31 31 31c14 0 25 -11 25 -25zM425 768c0 -17 -14 -31 -31 -31c-14 0 -25 11 -25 25c0 17 14 31 31 31c14 0 25 -11 25 -25zM365 -12c-160 0 -291 99 -291 286c0 228 166 404 364 404c160 0 291 -99 291 -286
c0 -228 -166 -404 -364 -404zM367 18c171 0 326 154 326 374c0 169 -119 256 -258 256c-172 0 -325 -154 -325 -374c0 -169 118 -256 257 -256z" />
    <glyph glyph-name="Ograve" unicode="&#xd2;" horiz-adv-x="764" 
d="M539 723h-30l-143 144h45zM365 -12c-160 0 -291 99 -291 286c0 228 166 404 364 404c160 0 291 -99 291 -286c0 -228 -166 -404 -364 -404zM367 18c171 0 326 154 326 374c0 169 -119 256 -258 256c-172 0 -325 -154 -325 -374c0 -169 118 -256 257 -256z" />
    <glyph glyph-name="Ohungarumlaut" unicode="&#x150;" horiz-adv-x="764" 
d="M562 867l-147 -144h-28l132 144h43zM698 867l-147 -144h-28l132 144h43zM365 -12c-160 0 -291 99 -291 286c0 228 166 404 364 404c160 0 291 -99 291 -286c0 -228 -166 -404 -364 -404zM367 18c171 0 326 154 326 374c0 169 -119 256 -258 256
c-172 0 -325 -154 -325 -374c0 -169 118 -256 257 -256z" />
    <glyph glyph-name="Omacron" unicode="&#x14c;" horiz-adv-x="764" 
d="M675 748h-362l6 27h362zM365 -12c-160 0 -291 99 -291 286c0 228 166 404 364 404c160 0 291 -99 291 -286c0 -228 -166 -404 -364 -404zM367 18c171 0 326 154 326 374c0 169 -119 256 -258 256c-172 0 -325 -154 -325 -374c0 -169 118 -256 257 -256z" />
    <glyph glyph-name="Oslash" unicode="&#xd8;" horiz-adv-x="764" 
d="M365 -12c-69 0 -133 19 -183 55l-35 -43h-36l49 60c-53 48 -86 120 -86 214c0 228 166 404 364 404c69 0 132 -19 182 -55l36 44h36l-50 -61c53 -48 87 -120 87 -214c0 -228 -166 -404 -364 -404zM367 18c171 0 326 154 326 374c0 82 -28 144 -73 187l-417 -510
c45 -34 102 -51 164 -51zM110 274c0 -82 27 -145 72 -188l417 511c-45 34 -103 51 -164 51c-172 0 -325 -154 -325 -374z" />
    <glyph glyph-name="Oslashacute" unicode="&#x1fe;" horiz-adv-x="764" 
d="M673 867l-207 -144h-32l192 144h47zM365 -12c-69 0 -133 19 -183 55l-35 -43h-36l49 60c-53 48 -86 120 -86 214c0 228 166 404 364 404c69 0 132 -19 182 -55l36 44h36l-50 -61c53 -48 87 -120 87 -214c0 -228 -166 -404 -364 -404zM367 18c171 0 326 154 326 374
c0 82 -28 144 -73 187l-417 -510c45 -34 102 -51 164 -51zM110 274c0 -82 27 -145 72 -188l417 511c-45 34 -103 51 -164 51c-172 0 -325 -154 -325 -374z" />
    <glyph glyph-name="Otilde" unicode="&#xd5;" horiz-adv-x="764" 
d="M365 -12c-160 0 -291 99 -291 286c0 228 166 404 364 404c160 0 291 -99 291 -286c0 -228 -166 -404 -364 -404zM367 18c171 0 326 154 326 374c0 169 -119 256 -258 256c-172 0 -325 -154 -325 -374c0 -169 118 -256 257 -256zM558 721c-77 0 -54 113 -116 113
c-33 0 -59 -32 -76 -107h-27c15 72 52 134 109 134c77 0 54 -113 116 -113c33 0 59 32 77 107h27c-15 -72 -53 -134 -110 -134z" />
    <glyph glyph-name="uni1ECC" unicode="&#x1ecc;" horiz-adv-x="764" 
d="M365 -12c-160 0 -291 99 -291 286c0 228 166 404 364 404c160 0 291 -99 291 -286c0 -228 -166 -404 -364 -404zM367 18c171 0 326 154 326 374c0 169 -119 256 -258 256c-172 0 -325 -154 -325 -374c0 -169 118 -256 257 -256zM326 -141c0 -18 -15 -32 -32 -32
c-15 0 -26 11 -26 26c0 17 14 32 32 32c15 0 26 -11 26 -26z" />
    <glyph glyph-name="uni1ECE" unicode="&#x1ece;" horiz-adv-x="764" 
d="M365 -12c-160 0 -291 99 -291 286c0 228 166 404 364 404c160 0 291 -99 291 -286c0 -228 -166 -404 -364 -404zM367 18c171 0 326 154 326 374c0 169 -119 256 -258 256c-172 0 -325 -154 -325 -374c0 -169 118 -256 257 -256zM453 764l-20 11c14 26 40 45 68 45
c33 0 61 -21 61 -57c0 -25 -11 -47 -33 -66h-30c26 22 39 39 39 66c0 23 -19 35 -37 35s-35 -9 -48 -34z" />
    <glyph glyph-name="uni1ED0" unicode="&#x1ed0;" horiz-adv-x="764" 
d="M590 682h-26l-65 90l-114 -90h-30l130 108h36zM801 845l-207 -108h-32l192 108h47zM365 -12c-160 0 -291 99 -291 286c0 228 166 404 364 404c160 0 291 -99 291 -286c0 -228 -166 -404 -364 -404zM367 18c171 0 326 154 326 374c0 169 -119 256 -258 256
c-172 0 -325 -154 -325 -374c0 -169 118 -256 257 -256z" />
    <glyph glyph-name="uni1ED2" unicode="&#x1ed2;" horiz-adv-x="764" 
d="M589 682h-26l-65 90l-114 -90h-30l130 108h36zM365 -12c-160 0 -291 99 -291 286c0 228 166 404 364 404c160 0 291 -99 291 -286c0 -228 -166 -404 -364 -404zM367 18c171 0 326 154 326 374c0 169 -119 256 -258 256c-172 0 -325 -154 -325 -374
c0 -169 118 -256 257 -256zM408 737h-30l-143 108h45z" />
    <glyph glyph-name="uni1ED4" unicode="&#x1ed4;" horiz-adv-x="764" 
d="M592 682h-26l-65 90l-114 -90h-30l130 108h36zM365 -12c-160 0 -291 99 -291 286c0 228 166 404 364 404c160 0 291 -99 291 -286c0 -228 -166 -404 -364 -404zM367 18c171 0 326 154 326 374c0 169 -119 256 -258 256c-172 0 -325 -154 -325 -374
c0 -169 118 -256 257 -256zM519 806l-20 9c14 19 40 33 68 33c33 0 61 -15 61 -42c0 -19 -11 -36 -33 -50h-30c26 17 39 29 39 50c0 17 -19 26 -37 26s-35 -7 -48 -26z" />
    <glyph glyph-name="uni1ED6" unicode="&#x1ed6;" horiz-adv-x="764" 
d="M587 678h-26l-65 60l-114 -60h-30l130 72h36zM365 -12c-160 0 -291 99 -291 286c0 228 166 404 364 404c160 0 291 -99 291 -286c0 -228 -166 -404 -364 -404zM367 18c171 0 326 154 326 374c0 169 -119 256 -258 256c-172 0 -325 -154 -325 -374
c0 -169 118 -256 257 -256zM559 757c-77 0 -54 56 -116 56c-33 0 -59 -16 -76 -53h-27c15 36 52 67 109 67c77 0 54 -57 116 -57c33 0 59 16 77 54h27c-15 -36 -53 -67 -110 -67z" />
    <glyph glyph-name="uni1ED8" unicode="&#x1ed8;" horiz-adv-x="764" 
d="M606 723h-26l-65 120l-114 -120h-30l130 144h36zM365 -12c-160 0 -291 99 -291 286c0 228 166 404 364 404c160 0 291 -99 291 -286c0 -228 -166 -404 -364 -404zM367 18c171 0 326 154 326 374c0 169 -119 256 -258 256c-172 0 -325 -154 -325 -374
c0 -169 118 -256 257 -256zM326 -141c0 -18 -15 -32 -32 -32c-15 0 -26 11 -26 26c0 17 14 32 32 32c15 0 26 -11 26 -26z" />
    <glyph glyph-name="Ohorn" unicode="&#x1a0;" horiz-adv-x="764" 
d="M365 -12c-160 0 -291 99 -291 286c0 228 166 404 364 404c97 0 184 -37 237 -108c35 20 61 53 68 82h-6c-14 0 -26 14 -26 28c0 20 16 36 35 36s32 -13 32 -38c0 -51 -45 -106 -89 -130c25 -42 40 -94 40 -156c0 -228 -166 -404 -364 -404zM367 18c171 0 326 154 326 374
c0 169 -119 256 -258 256c-172 0 -325 -154 -325 -374c0 -169 118 -256 257 -256z" />
    <glyph glyph-name="uni1EDA" unicode="&#x1eda;" horiz-adv-x="764" 
d="M672 867l-207 -144h-32l192 144h47zM365 -12c-160 0 -291 99 -291 286c0 228 166 404 364 404c97 0 184 -37 237 -108c35 20 61 53 68 82h-6c-14 0 -26 14 -26 28c0 20 16 36 35 36s32 -13 32 -38c0 -51 -45 -106 -89 -130c25 -42 40 -94 40 -156
c0 -228 -166 -404 -364 -404zM367 18c171 0 326 154 326 374c0 169 -119 256 -258 256c-172 0 -325 -154 -325 -374c0 -169 118 -256 257 -256z" />
    <glyph glyph-name="uni1EDC" unicode="&#x1edc;" horiz-adv-x="764" 
d="M365 -12c-160 0 -291 99 -291 286c0 228 166 404 364 404c97 0 184 -37 237 -108c35 20 61 53 68 82h-6c-14 0 -26 14 -26 28c0 20 16 36 35 36s32 -13 32 -38c0 -51 -45 -106 -89 -130c25 -42 40 -94 40 -156c0 -228 -166 -404 -364 -404zM367 18c171 0 326 154 326 374
c0 169 -119 256 -258 256c-172 0 -325 -154 -325 -374c0 -169 118 -256 257 -256zM539 723h-30l-143 144h45z" />
    <glyph glyph-name="uni1EDE" unicode="&#x1ede;" horiz-adv-x="764" 
d="M365 -12c-160 0 -291 99 -291 286c0 228 166 404 364 404c97 0 184 -37 237 -108c35 20 61 53 68 82h-6c-14 0 -26 14 -26 28c0 20 16 36 35 36s32 -13 32 -38c0 -51 -45 -106 -89 -130c25 -42 40 -94 40 -156c0 -228 -166 -404 -364 -404zM367 18c171 0 326 154 326 374
c0 169 -119 256 -258 256c-172 0 -325 -154 -325 -374c0 -169 118 -256 257 -256zM452 764l-20 11c14 26 40 45 68 45c33 0 61 -21 61 -57c0 -25 -11 -47 -33 -66h-30c26 22 39 39 39 66c0 23 -19 35 -37 35s-35 -9 -48 -34z" />
    <glyph glyph-name="uni1EE0" unicode="&#x1ee0;" horiz-adv-x="764" 
d="M365 -12c-160 0 -291 99 -291 286c0 228 166 404 364 404c97 0 184 -37 237 -108c35 20 61 53 68 82h-6c-14 0 -26 14 -26 28c0 20 16 36 35 36s32 -13 32 -38c0 -51 -45 -106 -89 -130c25 -42 40 -94 40 -156c0 -228 -166 -404 -364 -404zM367 18c171 0 326 154 326 374
c0 169 -119 256 -258 256c-172 0 -325 -154 -325 -374c0 -169 118 -256 257 -256zM559 721c-77 0 -54 113 -116 113c-33 0 -59 -32 -76 -107h-27c15 72 52 134 109 134c77 0 54 -113 116 -113c33 0 59 32 77 107h27c-15 -72 -53 -134 -110 -134z" />
    <glyph glyph-name="uni1EE2" unicode="&#x1ee2;" horiz-adv-x="764" 
d="M365 -12c-160 0 -291 99 -291 286c0 228 166 404 364 404c97 0 184 -37 237 -108c35 20 61 53 68 82h-6c-14 0 -26 14 -26 28c0 20 16 36 35 36s32 -13 32 -38c0 -51 -45 -106 -89 -130c25 -42 40 -94 40 -156c0 -228 -166 -404 -364 -404zM367 18c171 0 326 154 326 374
c0 169 -119 256 -258 256c-172 0 -325 -154 -325 -374c0 -169 118 -256 257 -256zM326 -141c0 -18 -15 -32 -32 -32c-15 0 -26 11 -26 26c0 17 14 32 32 32c15 0 26 -11 26 -26z" />
    <glyph glyph-name="OE" unicode="&#x152;" horiz-adv-x="1124" 
d="M1005 0h-408l27 125c-58 -83 -149 -137 -269 -137c-171 0 -281 119 -281 286c0 237 173 403 374 403c111 0 218 -47 257 -189l39 179h408l-6 -30h-376l-62 -279h369l-7 -30h-369l-66 -298h376zM638 186l53 241c-17 141 -112 220 -250 220c-176 0 -331 -156 -331 -373
c0 -158 102 -256 251 -256c109 0 217 62 277 168z" />
    <glyph glyph-name="uni1E56" unicode="&#x1e56;" horiz-adv-x="555" 
d="M66 0h-32l147 667h219c96 0 166 -76 166 -162c0 -104 -71 -216 -239 -216h-197zM136 319h198c133 0 197 89 197 186c0 69 -58 132 -135 132h-189zM436 765c0 -18 -15 -32 -32 -32c-15 0 -26 11 -26 26c0 17 14 32 32 32c15 0 26 -11 26 -26z" />
    <glyph glyph-name="Racute" unicode="&#x154;" horiz-adv-x="579" 
d="M591 867l-207 -144h-32l192 144h47zM470 0h-37l-140 288h-164l-63 -288h-32l147 667h212c85 0 174 -58 174 -162c0 -125 -92 -217 -240 -217zM331 318h3c129 0 197 88 197 187c0 78 -69 132 -138 132h-186l-71 -319h195z" />
    <glyph glyph-name="Rcaron" unicode="&#x158;" horiz-adv-x="579" 
d="M426 723h-36l-69 144h26l64 -120l115 120h30zM470 0h-37l-140 288h-164l-63 -288h-32l147 667h212c85 0 174 -58 174 -162c0 -125 -92 -217 -240 -217zM331 318h3c129 0 197 88 197 187c0 78 -69 132 -138 132h-186l-71 -319h195z" />
    <glyph glyph-name="Rcommaaccent" unicode="&#x156;" horiz-adv-x="579" 
d="M254 -122c0 -51 -45 -106 -89 -130l-18 20c37 20 65 54 72 84h-6c-14 0 -26 14 -26 28c0 20 16 36 35 36s32 -13 32 -38zM470 0h-37l-140 288h-164l-63 -288h-32l147 667h212c85 0 174 -58 174 -162c0 -125 -92 -217 -240 -217zM331 318h3c129 0 197 88 197 187
c0 78 -69 132 -138 132h-186l-71 -319h195z" />
    <glyph glyph-name="Sacute" unicode="&#x15a;" horiz-adv-x="575" 
d="M583 867l-207 -144h-32l192 144h47zM273 -12c-110 0 -205 51 -242 115l29 21c46 -66 120 -106 216 -106c133 0 188 91 188 166c0 163 -336 134 -336 318c0 98 99 176 215 176c100 0 183 -42 219 -103l-29 -21c-40 64 -113 94 -190 94c-100 0 -179 -71 -179 -146
c0 -149 336 -128 336 -318c0 -93 -76 -196 -227 -196z" />
    <glyph glyph-name="Scaron" unicode="&#x160;" horiz-adv-x="575" 
d="M416 723h-36l-69 144h26l64 -120l115 120h30zM273 -12c-110 0 -205 51 -242 115l29 21c46 -66 120 -106 216 -106c133 0 188 91 188 166c0 163 -336 134 -336 318c0 98 99 176 215 176c100 0 183 -42 219 -103l-29 -21c-40 64 -113 94 -190 94c-100 0 -179 -71 -179 -146
c0 -149 336 -128 336 -318c0 -93 -76 -196 -227 -196z" />
    <glyph glyph-name="Scircumflex" unicode="&#x15c;" horiz-adv-x="575" 
d="M514 723h-26l-65 120l-114 -120h-30l130 144h36zM273 -12c-110 0 -205 51 -242 115l29 21c46 -66 120 -106 216 -106c133 0 188 91 188 166c0 163 -336 134 -336 318c0 98 99 176 215 176c100 0 183 -42 219 -103l-29 -21c-40 64 -113 94 -190 94
c-100 0 -179 -71 -179 -146c0 -149 336 -128 336 -318c0 -93 -76 -196 -227 -196z" />
    <glyph glyph-name="Scedilla" unicode="&#x15e;" horiz-adv-x="575" 
d="M201 -187c-43 0 -77 15 -99 36l20 25c21 -24 53 -34 82 -34c49 0 71 26 71 56c0 22 -16 36 -43 36c-14 0 -29 -6 -40 -19l-19 13l39 68c-83 14 -151 57 -181 109l29 21c46 -66 120 -106 216 -106c133 0 188 91 188 166c0 163 -336 134 -336 318c0 98 99 176 215 176
c100 0 183 -42 219 -103l-29 -21c-40 64 -113 94 -190 94c-100 0 -179 -71 -179 -146c0 -149 336 -128 336 -318c0 -93 -76 -196 -227 -196c-11 0 -22 1 -33 2l-28 -48c11 9 22 12 35 12c34 0 57 -20 57 -56c0 -49 -40 -85 -103 -85z" />
    <glyph glyph-name="Scommaaccent" unicode="&#x218;" horiz-adv-x="575" 
d="M243 -122c0 -51 -45 -106 -89 -130l-18 20c37 20 65 54 72 84h-6c-14 0 -26 14 -26 28c0 20 16 36 35 36s32 -13 32 -38zM273 -12c-110 0 -205 51 -242 115l29 21c46 -66 120 -106 216 -106c133 0 188 91 188 166c0 163 -336 134 -336 318c0 98 99 176 215 176
c100 0 183 -42 219 -103l-29 -21c-40 64 -113 94 -190 94c-100 0 -179 -71 -179 -146c0 -149 336 -128 336 -318c0 -93 -76 -196 -227 -196z" />
    <glyph glyph-name="uni1E60" unicode="&#x1e60;" horiz-adv-x="575" 
d="M273 -12c-110 0 -205 51 -242 115l29 21c46 -66 120 -106 216 -106c133 0 188 91 188 166c0 163 -336 134 -336 318c0 98 99 176 215 176c100 0 183 -42 219 -103l-29 -21c-40 64 -113 94 -190 94c-100 0 -179 -71 -179 -146c0 -149 336 -128 336 -318
c0 -93 -76 -196 -227 -196zM433 765c0 -18 -15 -32 -32 -32c-15 0 -26 11 -26 26c0 17 14 32 32 32c15 0 26 -11 26 -26z" />
    <glyph glyph-name="Tbar" unicode="&#x166;" horiz-adv-x="559" 
d="M241 0h-32l71 321h-165l6 27h165l64 289h-225l6 30h483l-6 -30h-226l-64 -289h165l-6 -27h-165z" />
    <glyph glyph-name="Tcaron" unicode="&#x164;" horiz-adv-x="559" 
d="M396 723h-36l-69 144h26l64 -120l115 120h30zM241 0h-32l141 637h-225l6 30h483l-6 -30h-226z" />
    <glyph glyph-name="Tcommaaccent" unicode="&#x162;" horiz-adv-x="559" 
d="M232 -122c0 -51 -45 -106 -89 -130l-18 20c37 20 65 54 72 84h-6c-14 0 -26 14 -26 28c0 20 16 36 35 36s32 -13 32 -38zM241 0h-32l141 637h-225l6 30h483l-6 -30h-226z" />
    <glyph glyph-name="uni021A" unicode="&#x21a;" horiz-adv-x="559" 
d="M232 -122c0 -51 -45 -106 -89 -130l-18 20c37 20 65 54 72 84h-6c-14 0 -26 14 -26 28c0 20 16 36 35 36s32 -13 32 -38zM241 0h-32l141 637h-225l6 30h483l-6 -30h-226z" />
    <glyph glyph-name="uni1E6A" unicode="&#x1e6a;" horiz-adv-x="559" 
d="M241 0h-32l141 637h-225l6 30h483l-6 -30h-226zM422 765c0 -18 -15 -32 -32 -32c-15 0 -26 11 -26 26c0 17 14 32 32 32c15 0 26 -11 26 -26z" />
    <glyph glyph-name="Uacute" unicode="&#xda;" horiz-adv-x="672" 
d="M629 867l-207 -144h-32l192 144h47zM319 -12c-142 0 -234 81 -234 212c0 19 2 38 5 53l91 414h32l-91 -414c-2 -8 -6 -28 -6 -49c0 -111 75 -186 203 -186c140 0 202 87 235 235l91 414h32l-91 -414c-37 -165 -105 -265 -267 -265z" />
    <glyph glyph-name="Ubreve" unicode="&#x16c;" horiz-adv-x="672" 
d="M319 -12c-142 0 -234 81 -234 212c0 19 2 38 5 53l91 414h32l-91 -414c-2 -8 -6 -28 -6 -49c0 -111 75 -186 203 -186c140 0 202 87 235 235l91 414h32l-91 -414c-37 -165 -105 -265 -267 -265zM628 799c-52 -54 -122 -88 -194 -88c-71 0 -128 34 -157 88l23 19
c25 -49 73 -80 138 -80s127 31 172 80z" />
    <glyph glyph-name="Ucircumflex" unicode="&#xdb;" horiz-adv-x="672" 
d="M560 723h-26l-65 120l-114 -120h-30l130 144h36zM319 -12c-142 0 -234 81 -234 212c0 19 2 38 5 53l91 414h32l-91 -414c-2 -8 -6 -28 -6 -49c0 -111 75 -186 203 -186c140 0 202 87 235 235l91 414h32l-91 -414c-37 -165 -105 -265 -267 -265z" />
    <glyph glyph-name="Udieresis" unicode="&#xdc;" horiz-adv-x="672" 
d="M581 768c0 -17 -14 -31 -31 -31c-14 0 -25 11 -25 25c0 17 14 31 31 31c14 0 25 -11 25 -25zM379 768c0 -17 -14 -31 -31 -31c-14 0 -25 11 -25 25c0 17 14 31 31 31c14 0 25 -11 25 -25zM319 -12c-142 0 -234 81 -234 212c0 19 2 38 5 53l91 414h32l-91 -414
c-2 -8 -6 -28 -6 -49c0 -111 75 -186 203 -186c140 0 202 87 235 235l91 414h32l-91 -414c-37 -165 -105 -265 -267 -265z" />
    <glyph glyph-name="Ugrave" unicode="&#xd9;" horiz-adv-x="672" 
d="M319 -12c-142 0 -234 81 -234 212c0 19 2 38 5 53l91 414h32l-91 -414c-2 -8 -6 -28 -6 -49c0 -111 75 -186 203 -186c140 0 202 87 235 235l91 414h32l-91 -414c-37 -165 -105 -265 -267 -265zM493 723h-30l-143 144h45z" />
    <glyph glyph-name="Uhungarumlaut" unicode="&#x170;" horiz-adv-x="672" 
d="M319 -12c-142 0 -234 81 -234 212c0 19 2 38 5 53l91 414h32l-91 -414c-2 -8 -6 -28 -6 -49c0 -111 75 -186 203 -186c140 0 202 87 235 235l91 414h32l-91 -414c-37 -165 -105 -265 -267 -265zM516 867l-147 -144h-28l132 144h43zM652 867l-147 -144h-28l132 144h43z
" />
    <glyph glyph-name="Umacron" unicode="&#x16a;" horiz-adv-x="672" 
d="M319 -12c-142 0 -234 81 -234 212c0 19 2 38 5 53l91 414h32l-91 -414c-2 -8 -6 -28 -6 -49c0 -111 75 -186 203 -186c140 0 202 87 235 235l91 414h32l-91 -414c-37 -165 -105 -265 -267 -265zM628 748h-362l6 27h362z" />
    <glyph glyph-name="Uogonek" unicode="&#x172;" horiz-adv-x="672" 
d="M319 -12c-142 0 -234 81 -234 212c0 19 2 38 5 53l91 414h32l-91 -414c-2 -8 -6 -28 -6 -49c0 -111 75 -186 203 -186c140 0 202 87 235 235l91 414h32l-91 -414c-30 -132 -79 -222 -179 -253c-63 -27 -108 -63 -108 -113c0 -31 20 -46 50 -46c27 0 47 16 62 46l21 -13
c-17 -31 -43 -60 -88 -60c-42 0 -72 24 -72 68c0 45 25 79 63 106h-16z" />
    <glyph glyph-name="Uring" unicode="&#x16e;" horiz-adv-x="672" 
d="M446 692c-49 0 -84 35 -84 84c0 55 47 102 102 102c49 0 84 -35 84 -84c0 -55 -47 -102 -102 -102zM446 716c42 0 78 34 78 76c0 37 -24 62 -60 62c-42 0 -78 -34 -78 -76c0 -36 24 -62 60 -62zM319 -12c-142 0 -234 81 -234 212c0 19 2 38 5 53l91 414h32l-91 -414
c-2 -8 -6 -28 -6 -49c0 -111 75 -186 203 -186c140 0 202 87 235 235l91 414h32l-91 -414c-37 -165 -105 -265 -267 -265z" />
    <glyph glyph-name="Utilde" unicode="&#x168;" horiz-adv-x="672" 
d="M319 -12c-142 0 -234 81 -234 212c0 19 2 38 5 53l91 414h32l-91 -414c-2 -8 -6 -28 -6 -49c0 -111 75 -186 203 -186c140 0 202 87 235 235l91 414h32l-91 -414c-37 -165 -105 -265 -267 -265zM513 721c-77 0 -54 113 -116 113c-33 0 -59 -32 -76 -107h-27
c15 72 52 134 109 134c77 0 54 -113 116 -113c33 0 59 32 77 107h27c-15 -72 -53 -134 -110 -134z" />
    <glyph glyph-name="uni1EE4" unicode="&#x1ee4;" horiz-adv-x="672" 
d="M319 -12c-142 0 -234 81 -234 212c0 19 2 38 5 53l91 414h32l-91 -414c-2 -8 -6 -28 -6 -49c0 -111 75 -186 203 -186c140 0 202 87 235 235l91 414h32l-91 -414c-37 -165 -105 -265 -267 -265zM280 -141c0 -18 -15 -32 -32 -32c-15 0 -26 11 -26 26c0 17 14 32 32 32
c15 0 26 -11 26 -26z" />
    <glyph glyph-name="Uhorn" unicode="&#x1af;" horiz-adv-x="672" 
d="M809 745c0 -67 -65 -129 -150 -161l-73 -331c-37 -165 -105 -265 -267 -265c-142 0 -234 81 -234 212c0 24 3 42 5 53l91 414h32l-91 -414c-2 -8 -6 -28 -6 -49c0 -111 75 -186 203 -186c140 0 202 87 235 235l91 414h32l-12 -53c66 31 101 68 109 105h-6
c-14 0 -26 14 -26 28c0 20 16 36 35 36s32 -13 32 -38z" />
    <glyph glyph-name="uni1EE6" unicode="&#x1ee6;" horiz-adv-x="672" 
d="M319 -12c-142 0 -234 81 -234 212c0 19 2 38 5 53l91 414h32l-91 -414c-2 -8 -6 -28 -6 -49c0 -111 75 -186 203 -186c140 0 202 87 235 235l91 414h32l-91 -414c-37 -165 -105 -265 -267 -265zM407 764l-20 11c14 26 40 45 68 45c33 0 61 -21 61 -57
c0 -25 -11 -47 -33 -66h-30c26 22 39 39 39 66c0 23 -19 35 -37 35s-35 -9 -48 -34z" />
    <glyph glyph-name="uni1EE8" unicode="&#x1ee8;" horiz-adv-x="672" 
d="M629 867l-207 -144h-32l192 144h47zM809 745c0 -67 -65 -129 -150 -161l-73 -331c-37 -165 -105 -265 -267 -265c-142 0 -234 81 -234 212c0 24 3 42 5 53l91 414h32l-91 -414c-2 -8 -6 -28 -6 -49c0 -111 75 -186 203 -186c140 0 202 87 235 235l91 414h32l-12 -53
c66 31 101 68 109 105h-6c-14 0 -26 14 -26 28c0 20 16 36 35 36s32 -13 32 -38z" />
    <glyph glyph-name="uni1EEA" unicode="&#x1eea;" horiz-adv-x="672" 
d="M493 723h-30l-143 144h45zM809 745c0 -67 -65 -129 -150 -161l-73 -331c-37 -165 -105 -265 -267 -265c-142 0 -234 81 -234 212c0 24 3 42 5 53l91 414h32l-91 -414c-2 -8 -6 -28 -6 -49c0 -111 75 -186 203 -186c140 0 202 87 235 235l91 414h32l-12 -53
c66 31 101 68 109 105h-6c-14 0 -26 14 -26 28c0 20 16 36 35 36s32 -13 32 -38z" />
    <glyph glyph-name="uni1EEC" unicode="&#x1eec;" horiz-adv-x="672" 
d="M407 764l-20 11c14 26 40 45 68 45c33 0 61 -21 61 -57c0 -25 -11 -47 -33 -66h-30c26 22 39 39 39 66c0 23 -19 35 -37 35s-35 -9 -48 -34zM809 745c0 -67 -65 -129 -150 -161l-73 -331c-37 -165 -105 -265 -267 -265c-142 0 -234 81 -234 212c0 24 3 42 5 53l91 414h32
l-91 -414c-2 -8 -6 -28 -6 -49c0 -111 75 -186 203 -186c140 0 202 87 235 235l91 414h32l-12 -53c66 31 101 68 109 105h-6c-14 0 -26 14 -26 28c0 20 16 36 35 36s32 -13 32 -38z" />
    <glyph glyph-name="uni1EEE" unicode="&#x1eee;" horiz-adv-x="672" 
d="M809 745c0 -67 -65 -129 -150 -161l-73 -331c-37 -165 -105 -265 -267 -265c-142 0 -234 81 -234 212c0 24 3 42 5 53l91 414h32l-91 -414c-2 -8 -6 -28 -6 -49c0 -111 75 -186 203 -186c140 0 202 87 235 235l91 414h32l-12 -53c66 31 101 68 109 105h-6
c-14 0 -26 14 -26 28c0 20 16 36 35 36s32 -13 32 -38zM513 721c-77 0 -54 113 -116 113c-33 0 -59 -32 -76 -107h-27c15 72 52 134 109 134c77 0 54 -113 116 -113c33 0 59 32 77 107h27c-15 -72 -53 -134 -110 -134z" />
    <glyph glyph-name="uni1EF0" unicode="&#x1ef0;" horiz-adv-x="672" 
d="M280 -141c0 -18 -15 -32 -32 -32c-15 0 -26 11 -26 26c0 17 14 32 32 32c15 0 26 -11 26 -26zM809 745c0 -67 -65 -129 -150 -161l-73 -331c-37 -165 -105 -265 -267 -265c-142 0 -234 81 -234 212c0 24 3 42 5 53l91 414h32l-91 -414c-2 -8 -6 -28 -6 -49
c0 -111 75 -186 203 -186c140 0 202 87 235 235l91 414h32l-12 -53c66 31 101 68 109 105h-6c-14 0 -26 14 -26 28c0 20 16 36 35 36s32 -13 32 -38z" />
    <glyph glyph-name="Wacute" unicode="&#x1e82;" horiz-adv-x="852" 
d="M714 867l-207 -144h-32l192 144h47zM583 0h-38l-39 607l-307 -607h-38l-43 667h34l37 -619l312 619h34l38 -619l311 619h36z" />
    <glyph glyph-name="Wcircumflex" unicode="&#x174;" horiz-adv-x="852" 
d="M648 723h-26l-65 120l-114 -120h-30l130 144h36zM583 0h-38l-39 607l-307 -607h-38l-43 667h34l37 -619l312 619h34l38 -619l311 619h36z" />
    <glyph glyph-name="Wdieresis" unicode="&#x1e84;" horiz-adv-x="852" 
d="M668 768c0 -17 -14 -31 -31 -31c-14 0 -25 11 -25 25c0 17 14 31 31 31c14 0 25 -11 25 -25zM466 768c0 -17 -14 -31 -31 -31c-14 0 -25 11 -25 25c0 17 14 31 31 31c14 0 25 -11 25 -25zM583 0h-38l-39 607l-307 -607h-38l-43 667h34l37 -619l312 619h34l38 -619
l311 619h36z" />
    <glyph glyph-name="Wgrave" unicode="&#x1e80;" horiz-adv-x="852" 
d="M583 0h-38l-39 607l-307 -607h-38l-43 667h34l37 -619l312 619h34l38 -619l311 619h36zM581 723h-30l-143 144h45z" />
    <glyph glyph-name="Yacute" unicode="&#xdd;" horiz-adv-x="610" 
d="M267 0h-32l64 289l-185 378h37l167 -346l319 346h45l-351 -378zM596 867l-207 -144h-32l192 144h47z" />
    <glyph glyph-name="Ycircumflex" unicode="&#x176;" horiz-adv-x="610" 
d="M528 723h-26l-65 120l-114 -120h-30l130 144h36zM267 0h-32l64 289l-185 378h37l167 -346l319 346h45l-351 -378z" />
    <glyph glyph-name="Ydieresis" unicode="&#x178;" horiz-adv-x="610" 
d="M550 768c0 -17 -14 -31 -31 -31c-14 0 -25 11 -25 25c0 17 14 31 31 31c14 0 25 -11 25 -25zM348 768c0 -17 -14 -31 -31 -31c-14 0 -25 11 -25 25c0 17 14 31 31 31c14 0 25 -11 25 -25zM267 0h-32l64 289l-185 378h37l167 -346l319 346h45l-351 -378z" />
    <glyph glyph-name="Ygrave" unicode="&#x1ef2;" horiz-adv-x="610" 
d="M267 0h-32l64 289l-185 378h37l167 -346l319 346h45l-351 -378zM461 723h-30l-143 144h45z" />
    <glyph glyph-name="Zacute" unicode="&#x179;" horiz-adv-x="578" 
d="M578 867l-207 -144h-32l192 144h47zM471 0h-472l6 30l558 607h-423l6 30h465l-6 -30l-559 -607h431z" />
    <glyph glyph-name="Zcaron" unicode="&#x17d;" horiz-adv-x="578" 
d="M414 723h-36l-69 144h26l64 -120l115 120h30zM471 0h-472l6 30l558 607h-423l6 30h465l-6 -30l-559 -607h431z" />
    <glyph glyph-name="Zdotaccent" unicode="&#x17b;" horiz-adv-x="578" 
d="M471 0h-472l6 30l558 607h-423l6 30h465l-6 -30l-559 -607h431zM431 765c0 -18 -15 -32 -32 -32c-15 0 -26 11 -26 26c0 17 14 32 32 32c15 0 26 -11 26 -26z" />
    <glyph glyph-name="Eth" unicode="&#xd0;" horiz-adv-x="715" 
d="M262 0h-197l70 319h-107l7 30h107l70 318h193c149 0 266 -121 266 -283c0 -187 -140 -384 -409 -384zM354 319h-187l-64 -289h164c226 0 370 164 370 354c0 146 -103 253 -238 253h-161l-64 -288h187z" />
    <glyph glyph-name="Thorn" unicode="&#xde;" horiz-adv-x="555" 
d="M66 0h-32l147 667h32l-28 -129h186c91 0 166 -71 166 -162c0 -101 -70 -216 -239 -216h-197zM303 190c137 0 199 92 199 186c0 73 -63 132 -135 132h-189l-70 -318h195z" />
    <glyph glyph-name="aacute" unicode="&#xe1;" horiz-adv-x="566" 
d="M304 495c84 0 147 -42 180 -99l19 87h30l-107 -483h-30l17 77c-39 -52 -100 -89 -172 -89c-111 0 -190 74 -190 198c0 167 104 309 253 309zM304 468c-133 0 -219 -139 -219 -278c0 -108 62 -175 158 -175c75 0 144 49 180 104l55 251c-25 53 -88 98 -174 98zM528 700
l-207 -144h-32l192 144h47z" />
    <glyph glyph-name="abreve" unicode="&#x103;" horiz-adv-x="566" 
d="M304 495c84 0 147 -42 180 -99l19 87h30l-107 -483h-30l17 77c-39 -52 -100 -89 -172 -89c-111 0 -190 74 -190 198c0 167 104 309 253 309zM304 468c-133 0 -219 -139 -219 -278c0 -108 62 -175 158 -175c75 0 144 49 180 104l55 251c-25 53 -88 98 -174 98zM529 632
c-52 -54 -122 -88 -194 -88c-71 0 -128 34 -157 88l23 19c25 -49 73 -80 138 -80s127 31 172 80z" />
    <glyph glyph-name="acircumflex" unicode="&#xe2;" horiz-adv-x="566" 
d="M304 495c84 0 147 -42 180 -99l19 87h30l-107 -483h-30l17 77c-39 -52 -100 -89 -172 -89c-111 0 -190 74 -190 198c0 167 104 309 253 309zM304 468c-133 0 -219 -139 -219 -278c0 -108 62 -175 158 -175c75 0 144 49 180 104l55 251c-25 53 -88 98 -174 98zM461 556
h-26l-65 120l-114 -120h-30l130 144h36z" />
    <glyph glyph-name="adieresis" unicode="&#xe4;" horiz-adv-x="566" 
d="M304 495c84 0 147 -42 180 -99l19 87h30l-107 -483h-30l17 77c-39 -52 -100 -89 -172 -89c-111 0 -190 74 -190 198c0 167 104 309 253 309zM304 468c-133 0 -219 -139 -219 -278c0 -108 62 -175 158 -175c75 0 144 49 180 104l55 251c-25 53 -88 98 -174 98zM482 601
c0 -17 -14 -31 -31 -31c-14 0 -25 11 -25 25c0 17 14 31 31 31c14 0 25 -11 25 -25zM280 601c0 -17 -14 -31 -31 -31c-14 0 -25 11 -25 25c0 17 14 31 31 31c14 0 25 -11 25 -25z" />
    <glyph glyph-name="agrave" unicode="&#xe0;" horiz-adv-x="566" 
d="M304 495c84 0 147 -42 180 -99l19 87h30l-107 -483h-30l17 77c-39 -52 -100 -89 -172 -89c-111 0 -190 74 -190 198c0 167 104 309 253 309zM304 468c-133 0 -219 -139 -219 -278c0 -108 62 -175 158 -175c75 0 144 49 180 104l55 251c-25 53 -88 98 -174 98zM395 556
h-30l-143 144h45z" />
    <glyph glyph-name="amacron" unicode="&#x101;" horiz-adv-x="566" 
d="M304 495c84 0 147 -42 180 -99l19 87h30l-107 -483h-30l17 77c-39 -52 -100 -89 -172 -89c-111 0 -190 74 -190 198c0 167 104 309 253 309zM304 468c-133 0 -219 -139 -219 -278c0 -108 62 -175 158 -175c75 0 144 49 180 104l55 251c-25 53 -88 98 -174 98zM531 581
h-362l6 27h362z" />
    <glyph glyph-name="aogonek" unicode="&#x105;" horiz-adv-x="566" 
d="M430 -113l21 -13c-17 -31 -43 -60 -88 -60c-42 0 -72 24 -72 68c0 61 45 102 108 132l14 63c-39 -52 -100 -89 -172 -89c-111 0 -190 74 -190 198c0 167 104 309 253 309c84 0 147 -42 180 -99l19 87h30l-107 -483c-63 -27 -108 -63 -108 -113c0 -31 20 -46 50 -46
c27 0 47 16 62 46zM304 468c-133 0 -219 -139 -219 -278c0 -108 62 -175 158 -175c75 0 144 49 180 104l55 251c-25 53 -88 98 -174 98z" />
    <glyph glyph-name="aring" unicode="&#xe5;" horiz-adv-x="566" 
d="M304 495c84 0 147 -42 180 -99l19 87h30l-107 -483h-30l17 77c-39 -52 -100 -89 -172 -89c-111 0 -190 74 -190 198c0 167 104 309 253 309zM304 468c-133 0 -219 -139 -219 -278c0 -108 62 -175 158 -175c75 0 144 49 180 104l55 251c-25 53 -88 98 -174 98zM352 546
c-49 0 -84 35 -84 84c0 55 47 102 102 102c49 0 84 -35 84 -84c0 -55 -47 -102 -102 -102zM352 570c42 0 78 34 78 76c0 37 -24 62 -60 62c-42 0 -78 -34 -78 -76c0 -36 24 -62 60 -62z" />
    <glyph glyph-name="atilde" unicode="&#xe3;" horiz-adv-x="566" 
d="M304 495c84 0 147 -42 180 -99l19 87h30l-107 -483h-30l17 77c-39 -52 -100 -89 -172 -89c-111 0 -190 74 -190 198c0 167 104 309 253 309zM304 468c-133 0 -219 -139 -219 -278c0 -108 62 -175 158 -175c75 0 144 49 180 104l55 251c-25 53 -88 98 -174 98zM414 554
c-77 0 -54 113 -116 113c-33 0 -59 -32 -76 -107h-27c15 72 52 134 109 134c77 0 54 -113 116 -113c33 0 59 32 77 107h27c-15 -72 -53 -134 -110 -134z" />
    <glyph glyph-name="uni1EA1" unicode="&#x1ea1;" horiz-adv-x="566" 
d="M304 495c84 0 147 -42 180 -99l19 87h30l-107 -483h-30l17 77c-39 -52 -100 -89 -172 -89c-111 0 -190 74 -190 198c0 167 104 309 253 309zM304 468c-133 0 -219 -139 -219 -278c0 -108 62 -175 158 -175c75 0 144 49 180 104l55 251c-25 53 -88 98 -174 98zM219 -141
c0 -18 -15 -32 -32 -32c-15 0 -26 11 -26 26c0 17 14 32 32 32c15 0 26 -11 26 -26z" />
    <glyph glyph-name="uni1EA3" unicode="&#x1ea3;" horiz-adv-x="566" 
d="M304 495c84 0 147 -42 180 -99l19 87h30l-107 -483h-30l17 77c-39 -52 -100 -89 -172 -89c-111 0 -190 74 -190 198c0 167 104 309 253 309zM304 468c-133 0 -219 -139 -219 -278c0 -108 62 -175 158 -175c75 0 144 49 180 104l55 251c-25 53 -88 98 -174 98zM307 594
l-20 11c14 26 40 45 68 45c33 0 61 -21 61 -57c0 -25 -11 -47 -33 -66h-30c26 22 39 39 39 66c0 23 -19 35 -37 35s-35 -9 -48 -34z" />
    <glyph glyph-name="uni1EA5" unicode="&#x1ea5;" horiz-adv-x="566" 
d="M304 495c84 0 147 -42 180 -99l19 87h30l-107 -483h-30l17 77c-39 -52 -100 -89 -172 -89c-111 0 -190 74 -190 198c0 167 104 309 253 309zM304 468c-133 0 -219 -139 -219 -278c0 -108 62 -175 158 -175c75 0 144 49 180 104l55 251c-25 53 -88 98 -174 98zM461 556
h-26l-65 120l-114 -120h-30l130 144h36zM674 770l-207 -144h-32l192 144h47z" />
    <glyph glyph-name="uni1EAD" unicode="&#x1ead;" horiz-adv-x="566" 
d="M304 495c84 0 147 -42 180 -99l19 87h30l-107 -483h-30l17 77c-39 -52 -100 -89 -172 -89c-111 0 -190 74 -190 198c0 167 104 309 253 309zM304 468c-133 0 -219 -139 -219 -278c0 -108 62 -175 158 -175c75 0 144 49 180 104l55 251c-25 53 -88 98 -174 98zM461 556
h-26l-65 120l-114 -120h-30l130 144h36zM219 -141c0 -18 -15 -32 -32 -32c-15 0 -26 11 -26 26c0 17 14 32 32 32c15 0 26 -11 26 -26z" />
    <glyph glyph-name="uni1EA7" unicode="&#x1ea7;" horiz-adv-x="566" 
d="M304 495c84 0 147 -42 180 -99l19 87h30l-107 -483h-30l17 77c-39 -52 -100 -89 -172 -89c-111 0 -190 74 -190 198c0 167 104 309 253 309zM304 468c-133 0 -219 -139 -219 -278c0 -108 62 -175 158 -175c75 0 144 49 180 104l55 251c-25 53 -88 98 -174 98zM461 556
h-26l-65 120l-114 -120h-30l130 144h36zM280 626h-30l-143 144h45z" />
    <glyph glyph-name="uni1EA9" unicode="&#x1ea9;" horiz-adv-x="566" 
d="M304 495c84 0 147 -42 180 -99l19 87h30l-107 -483h-30l17 77c-39 -52 -100 -89 -172 -89c-111 0 -190 74 -190 198c0 167 104 309 253 309zM304 468c-133 0 -219 -139 -219 -278c0 -108 62 -175 158 -175c75 0 144 49 180 104l55 251c-25 53 -88 98 -174 98zM461 556
h-26l-65 120l-114 -120h-30l130 144h36zM382 734l-20 11c14 26 40 45 68 45c33 0 61 -21 61 -57c0 -25 -11 -47 -33 -66h-30c26 22 39 39 39 66c0 23 -19 35 -37 35s-35 -9 -48 -34z" />
    <glyph glyph-name="uni1EAF" unicode="&#x1eaf;" horiz-adv-x="566" 
d="M304 495c84 0 147 -42 180 -99l19 87h30l-107 -483h-30l17 77c-39 -52 -100 -89 -172 -89c-111 0 -190 74 -190 198c0 167 104 309 253 309zM304 468c-133 0 -219 -139 -219 -278c0 -108 62 -175 158 -175c75 0 144 49 180 104l55 251c-25 53 -88 98 -174 98zM512 756
l-207 -144h-32l192 144h47zM523 609c-52 -54 -122 -88 -194 -88c-71 0 -128 34 -157 88l23 19c25 -49 73 -80 138 -80s127 31 172 80z" />
    <glyph glyph-name="uni1EAB" unicode="&#x1eab;" horiz-adv-x="566" 
d="M304 495c84 0 147 -42 180 -99l19 87h30l-107 -483h-30l17 77c-39 -52 -100 -89 -172 -89c-111 0 -190 74 -190 198c0 167 104 309 253 309zM304 468c-133 0 -219 -139 -219 -278c0 -108 62 -175 158 -175c75 0 144 49 180 104l55 251c-25 53 -88 98 -174 98zM453 523
h-26l-65 120l-114 -120h-30l130 144h36zM442 682c-77 0 -54 113 -116 113c-33 0 -59 -32 -76 -107h-27c15 72 52 134 109 134c77 0 54 -113 116 -113c33 0 59 32 77 107h27c-15 -72 -53 -134 -110 -134z" />
    <glyph glyph-name="uni1EB1" unicode="&#x1eb1;" horiz-adv-x="566" 
d="M304 495c84 0 147 -42 180 -99l19 87h30l-107 -483h-30l17 77c-39 -52 -100 -89 -172 -89c-111 0 -190 74 -190 198c0 167 104 309 253 309zM304 468c-133 0 -219 -139 -219 -278c0 -108 62 -175 158 -175c75 0 144 49 180 104l55 251c-25 53 -88 98 -174 98zM425 612
h-30l-143 144h45zM524 614c-52 -54 -122 -88 -194 -88c-71 0 -128 34 -157 88l23 19c25 -49 73 -80 138 -80s127 31 172 80z" />
    <glyph glyph-name="uni1EB3" unicode="&#x1eb3;" horiz-adv-x="566" 
d="M304 495c84 0 147 -42 180 -99l19 87h30l-107 -483h-30l17 77c-39 -52 -100 -89 -172 -89c-111 0 -190 74 -190 198c0 167 104 309 253 309zM304 468c-133 0 -219 -139 -219 -278c0 -108 62 -175 158 -175c75 0 144 49 180 104l55 251c-25 53 -88 98 -174 98zM325 674
l-20 11c14 26 40 45 68 45c33 0 61 -21 61 -57c0 -25 -11 -47 -33 -66h-30c26 22 39 39 39 66c0 23 -19 35 -37 35s-35 -9 -48 -34zM525 614c-52 -54 -122 -88 -194 -88c-71 0 -128 34 -157 88l23 19c25 -49 73 -80 138 -80s127 31 172 80z" />
    <glyph glyph-name="uni1EB5" unicode="&#x1eb5;" horiz-adv-x="566" 
d="M304 495c84 0 147 -42 180 -99l19 87h30l-107 -483h-30l17 77c-39 -52 -100 -89 -172 -89c-111 0 -190 74 -190 198c0 167 104 309 253 309zM304 468c-133 0 -219 -139 -219 -278c0 -108 62 -175 158 -175c75 0 144 49 180 104l55 251c-25 53 -88 98 -174 98zM528 624
c-52 -54 -122 -88 -194 -88c-71 0 -128 34 -157 88l23 19c25 -49 73 -80 138 -80s127 31 172 80zM442 682c-77 0 -54 113 -116 113c-33 0 -59 -32 -76 -107h-27c15 72 52 134 109 134c77 0 54 -113 116 -113c33 0 59 32 77 107h27c-15 -72 -53 -134 -110 -134z" />
    <glyph glyph-name="uni1EB7" unicode="&#x1eb7;" horiz-adv-x="566" 
d="M304 495c84 0 147 -42 180 -99l19 87h30l-107 -483h-30l17 77c-39 -52 -100 -89 -172 -89c-111 0 -190 74 -190 198c0 167 104 309 253 309zM304 468c-133 0 -219 -139 -219 -278c0 -108 62 -175 158 -175c75 0 144 49 180 104l55 251c-25 53 -88 98 -174 98zM219 -141
c0 -18 -15 -32 -32 -32c-15 0 -26 11 -26 26c0 17 14 32 32 32c15 0 26 -11 26 -26zM529 632c-52 -54 -122 -88 -194 -88c-71 0 -128 34 -157 88l23 19c25 -49 73 -80 138 -80s127 31 172 80z" />
    <glyph glyph-name="ae" unicode="&#xe6;" horiz-adv-x="958" 
d="M304 468c-133 0 -219 -139 -219 -278c0 -108 62 -175 158 -175c75 0 144 49 180 104l55 251c-25 53 -88 98 -174 98zM460 152l-34 -152h-30l17 77c-39 -52 -100 -89 -172 -89c-111 0 -190 74 -190 198c0 167 104 309 253 309c84 0 147 -42 180 -99l19 87h30l-22 -101
c37 54 109 113 198 113c131 0 195 -94 195 -207c0 -19 -4 -44 -7 -56h-417c-1 -6 -2 -22 -2 -32c0 -104 64 -185 190 -185c51 0 102 19 147 57l15 -22c-42 -34 -98 -62 -162 -62c-116 0 -192 66 -208 164zM483 259h389c1 6 2 19 2 26c0 108 -58 183 -170 183
c-106 0 -202 -96 -221 -209z" />
    <glyph glyph-name="aeacute" unicode="&#x1fd;" horiz-adv-x="958" 
d="M719 700l-207 -144h-32l192 144h47zM304 468c-133 0 -219 -139 -219 -278c0 -108 62 -175 158 -175c75 0 144 49 180 104l55 251c-25 53 -88 98 -174 98zM460 152l-34 -152h-30l17 77c-39 -52 -100 -89 -172 -89c-111 0 -190 74 -190 198c0 167 104 309 253 309
c84 0 147 -42 180 -99l19 87h30l-22 -101c37 54 109 113 198 113c131 0 195 -94 195 -207c0 -19 -4 -44 -7 -56h-417c-1 -6 -2 -22 -2 -32c0 -104 64 -185 190 -185c51 0 102 19 147 57l15 -22c-42 -34 -98 -62 -162 -62c-116 0 -192 66 -208 164zM483 259h389
c1 6 2 19 2 26c0 108 -58 183 -170 183c-106 0 -202 -96 -221 -209z" />
    <glyph glyph-name="aacute.alt1" horiz-adv-x="514" 
d="M504 700l-207 -144h-32l192 144h47zM376 0h-30l12 55c-47 -44 -91 -67 -155 -67c-85 0 -165 44 -165 140c0 115 85 182 182 182c83 0 138 -29 177 -79l23 103c2 11 4 25 4 36c0 58 -54 98 -133 98c-69 0 -121 -29 -158 -67l-19 22c54 49 108 72 177 72
c87 0 163 -40 163 -124c0 -13 -3 -30 -5 -40zM208 15c63 0 113 26 157 72l27 118c-30 53 -95 78 -167 78c-90 0 -153 -66 -153 -152c0 -77 59 -116 136 -116z" />
    <glyph glyph-name="abreve.alt1" horiz-adv-x="514" 
d="M376 0h-30l12 55c-47 -44 -91 -67 -155 -67c-85 0 -165 44 -165 140c0 115 85 182 182 182c83 0 138 -29 177 -79l23 103c2 11 4 25 4 36c0 58 -54 98 -133 98c-69 0 -121 -29 -158 -67l-19 22c54 49 108 72 177 72c87 0 163 -40 163 -124c0 -13 -3 -30 -5 -40zM208 15
c63 0 113 26 157 72l27 118c-30 53 -95 78 -167 78c-90 0 -153 -66 -153 -152c0 -77 59 -116 136 -116zM503 632c-52 -54 -122 -88 -194 -88c-71 0 -128 34 -157 88l23 19c25 -49 73 -80 138 -80s127 31 172 80z" />
    <glyph glyph-name="acircumflex.alt1" horiz-adv-x="514" 
d="M436 556h-26l-65 120l-114 -120h-30l130 144h36zM376 0h-30l12 55c-47 -44 -91 -67 -155 -67c-85 0 -165 44 -165 140c0 115 85 182 182 182c83 0 138 -29 177 -79l23 103c2 11 4 25 4 36c0 58 -54 98 -133 98c-69 0 -121 -29 -158 -67l-19 22c54 49 108 72 177 72
c87 0 163 -40 163 -124c0 -13 -3 -30 -5 -40zM208 15c63 0 113 26 157 72l27 118c-30 53 -95 78 -167 78c-90 0 -153 -66 -153 -152c0 -77 59 -116 136 -116z" />
    <glyph glyph-name="adieresis.alt1" horiz-adv-x="514" 
d="M456 601c0 -17 -14 -31 -31 -31c-14 0 -25 11 -25 25c0 17 14 31 31 31c14 0 25 -11 25 -25zM254 601c0 -17 -14 -31 -31 -31c-14 0 -25 11 -25 25c0 17 14 31 31 31c14 0 25 -11 25 -25zM376 0h-30l12 55c-47 -44 -91 -67 -155 -67c-85 0 -165 44 -165 140
c0 115 85 182 182 182c83 0 138 -29 177 -79l23 103c2 11 4 25 4 36c0 58 -54 98 -133 98c-69 0 -121 -29 -158 -67l-19 22c54 49 108 72 177 72c87 0 163 -40 163 -124c0 -13 -3 -30 -5 -40zM208 15c63 0 113 26 157 72l27 118c-30 53 -95 78 -167 78
c-90 0 -153 -66 -153 -152c0 -77 59 -116 136 -116z" />
    <glyph glyph-name="agrave.alt1" horiz-adv-x="514" 
d="M376 0h-30l12 55c-47 -44 -91 -67 -155 -67c-85 0 -165 44 -165 140c0 115 85 182 182 182c83 0 138 -29 177 -79l23 103c2 11 4 25 4 36c0 58 -54 98 -133 98c-69 0 -121 -29 -158 -67l-19 22c54 49 108 72 177 72c87 0 163 -40 163 -124c0 -13 -3 -30 -5 -40zM208 15
c63 0 113 26 157 72l27 118c-30 53 -95 78 -167 78c-90 0 -153 -66 -153 -152c0 -77 59 -116 136 -116zM370 556h-30l-143 144h45z" />
    <glyph glyph-name="amacron.alt1" horiz-adv-x="514" 
d="M505 581h-362l6 27h362zM370 0h-30l12 55c-47 -44 -91 -67 -155 -67c-85 0 -165 44 -165 140c0 115 85 182 182 182c83 0 138 -29 177 -79l23 103c2 11 4 25 4 36c0 58 -54 98 -133 98c-69 0 -121 -29 -158 -67l-19 22c54 49 108 72 177 72c87 0 163 -40 163 -124
c0 -13 -3 -30 -5 -40zM202 15c63 0 113 26 157 72l27 118c-30 53 -95 78 -167 78c-90 0 -153 -66 -153 -152c0 -77 59 -116 136 -116z" />
    <glyph glyph-name="aogonek.alt1" horiz-adv-x="514" 
d="M376 0c-63 -27 -108 -63 -108 -113c0 -31 20 -46 50 -46c27 0 47 16 62 46l21 -13c-17 -31 -43 -60 -88 -60c-42 0 -72 24 -72 68c0 61 45 102 108 132l9 41c-47 -44 -91 -67 -155 -67c-85 0 -165 44 -165 140c0 115 85 182 182 182c83 0 138 -29 177 -79l23 103
c2 11 4 25 4 36c0 58 -54 98 -133 98c-69 0 -121 -29 -158 -67l-19 22c54 49 108 72 177 72c87 0 163 -40 163 -124c0 -13 -3 -30 -5 -40zM208 15c63 0 113 26 157 72l27 118c-30 53 -95 78 -167 78c-90 0 -153 -66 -153 -152c0 -77 59 -116 136 -116z" />
    <glyph glyph-name="aring.alt1" horiz-adv-x="514" 
d="M330 553c-49 0 -84 35 -84 84c0 55 47 102 102 102c49 0 84 -35 84 -84c0 -55 -47 -102 -102 -102zM330 577c42 0 78 34 78 76c0 37 -24 62 -60 62c-42 0 -78 -34 -78 -76c0 -36 24 -62 60 -62zM376 0h-30l12 55c-47 -44 -91 -67 -155 -67c-85 0 -165 44 -165 140
c0 115 85 182 182 182c83 0 138 -29 177 -79l23 103c2 11 4 25 4 36c0 58 -54 98 -133 98c-69 0 -121 -29 -158 -67l-19 22c54 49 108 72 177 72c87 0 163 -40 163 -124c0 -13 -3 -30 -5 -40zM208 15c63 0 113 26 157 72l27 118c-30 53 -95 78 -167 78
c-90 0 -153 -66 -153 -152c0 -77 59 -116 136 -116z" />
    <glyph glyph-name="atilde.alt1" horiz-adv-x="514" 
d="M376 0h-30l12 55c-47 -44 -91 -67 -155 -67c-85 0 -165 44 -165 140c0 115 85 182 182 182c83 0 138 -29 177 -79l23 103c2 11 4 25 4 36c0 58 -54 98 -133 98c-69 0 -121 -29 -158 -67l-19 22c54 49 108 72 177 72c87 0 163 -40 163 -124c0 -13 -3 -30 -5 -40zM208 15
c63 0 113 26 157 72l27 118c-30 53 -95 78 -167 78c-90 0 -153 -66 -153 -152c0 -77 59 -116 136 -116zM388 554c-77 0 -54 113 -116 113c-33 0 -59 -32 -76 -107h-27c15 72 52 134 109 134c77 0 54 -113 116 -113c33 0 59 32 77 107h27c-15 -72 -53 -134 -110 -134z" />
    <glyph glyph-name="uni1EA1.alt1" horiz-adv-x="514" 
d="M376 0h-30l12 55c-47 -44 -91 -67 -155 -67c-85 0 -165 44 -165 140c0 115 85 182 182 182c83 0 138 -29 177 -79l23 103c2 11 4 25 4 36c0 58 -54 98 -133 98c-69 0 -121 -29 -158 -67l-19 22c54 49 108 72 177 72c87 0 163 -40 163 -124c0 -13 -3 -30 -5 -40zM208 15
c63 0 113 26 157 72l27 118c-30 53 -95 78 -167 78c-90 0 -153 -66 -153 -152c0 -77 59 -116 136 -116zM193 -141c0 -18 -15 -32 -32 -32c-15 0 -26 11 -26 26c0 17 14 32 32 32c15 0 26 -11 26 -26z" />
    <glyph glyph-name="uni1EA3.alt1" horiz-adv-x="514" 
d="M376 0h-30l12 55c-47 -44 -91 -67 -155 -67c-85 0 -165 44 -165 140c0 115 85 182 182 182c83 0 138 -29 177 -79l23 103c2 11 4 25 4 36c0 58 -54 98 -133 98c-69 0 -121 -29 -158 -67l-19 22c54 49 108 72 177 72c87 0 163 -40 163 -124c0 -13 -3 -30 -5 -40zM208 15
c63 0 113 26 157 72l27 118c-30 53 -95 78 -167 78c-90 0 -153 -66 -153 -152c0 -77 59 -116 136 -116zM282 594l-20 11c14 26 40 45 68 45c33 0 61 -21 61 -57c0 -25 -11 -47 -33 -66h-30c26 22 39 39 39 66c0 23 -19 35 -37 35s-35 -9 -48 -34z" />
    <glyph glyph-name="uni1EA5.alt1" horiz-adv-x="514" 
d="M435 556h-26l-65 120l-114 -120h-30l130 144h36zM648 770l-207 -144h-32l192 144h47zM376 0h-30l12 55c-47 -44 -91 -67 -155 -67c-85 0 -165 44 -165 140c0 115 85 182 182 182c83 0 138 -29 177 -79l23 103c2 11 4 25 4 36c0 58 -54 98 -133 98
c-69 0 -121 -29 -158 -67l-19 22c54 49 108 72 177 72c87 0 163 -40 163 -124c0 -13 -3 -30 -5 -40zM208 15c63 0 113 26 157 72l27 118c-30 53 -95 78 -167 78c-90 0 -153 -66 -153 -152c0 -77 59 -116 136 -116z" />
    <glyph glyph-name="uni1EAD.alt1" horiz-adv-x="514" 
d="M435 556h-26l-65 120l-114 -120h-30l130 144h36zM376 0h-30l12 55c-47 -44 -91 -67 -155 -67c-85 0 -165 44 -165 140c0 115 85 182 182 182c83 0 138 -29 177 -79l23 103c2 11 4 25 4 36c0 58 -54 98 -133 98c-69 0 -121 -29 -158 -67l-19 22c54 49 108 72 177 72
c87 0 163 -40 163 -124c0 -13 -3 -30 -5 -40zM208 15c63 0 113 26 157 72l27 118c-30 53 -95 78 -167 78c-90 0 -153 -66 -153 -152c0 -77 59 -116 136 -116zM193 -141c0 -18 -15 -32 -32 -32c-15 0 -26 11 -26 26c0 17 14 32 32 32c15 0 26 -11 26 -26z" />
    <glyph glyph-name="uni1EA7.alt1" horiz-adv-x="514" 
d="M434 556h-26l-65 120l-114 -120h-30l130 144h36zM376 0h-30l12 55c-47 -44 -91 -67 -155 -67c-85 0 -165 44 -165 140c0 115 85 182 182 182c83 0 138 -29 177 -79l23 103c2 11 4 25 4 36c0 58 -54 98 -133 98c-69 0 -121 -29 -158 -67l-19 22c54 49 108 72 177 72
c87 0 163 -40 163 -124c0 -13 -3 -30 -5 -40zM208 15c63 0 113 26 157 72l27 118c-30 53 -95 78 -167 78c-90 0 -153 -66 -153 -152c0 -77 59 -116 136 -116zM253 626h-30l-143 144h45z" />
    <glyph glyph-name="uni1EA9.alt1" horiz-adv-x="514" 
d="M434 556h-26l-65 120l-114 -120h-30l130 144h36zM376 0h-30l12 55c-47 -44 -91 -67 -155 -67c-85 0 -165 44 -165 140c0 115 85 182 182 182c83 0 138 -29 177 -79l23 103c2 11 4 25 4 36c0 58 -54 98 -133 98c-69 0 -121 -29 -158 -67l-19 22c54 49 108 72 177 72
c87 0 163 -40 163 -124c0 -13 -3 -30 -5 -40zM208 15c63 0 113 26 157 72l27 118c-30 53 -95 78 -167 78c-90 0 -153 -66 -153 -152c0 -77 59 -116 136 -116zM355 734l-20 11c14 26 40 45 68 45c33 0 61 -21 61 -57c0 -25 -11 -47 -33 -66h-30c26 22 39 39 39 66
c0 23 -19 35 -37 35s-35 -9 -48 -34z" />
    <glyph glyph-name="uni1EAF.alt1" horiz-adv-x="514" 
d="M486 756l-207 -144h-32l192 144h47zM376 0h-30l12 55c-47 -44 -91 -67 -155 -67c-85 0 -165 44 -165 140c0 115 85 182 182 182c83 0 138 -29 177 -79l23 103c2 11 4 25 4 36c0 58 -54 98 -133 98c-69 0 -121 -29 -158 -67l-19 22c54 49 108 72 177 72
c87 0 163 -40 163 -124c0 -13 -3 -30 -5 -40zM208 15c63 0 113 26 157 72l27 118c-30 53 -95 78 -167 78c-90 0 -153 -66 -153 -152c0 -77 59 -116 136 -116zM498 609c-52 -54 -122 -88 -194 -88c-71 0 -128 34 -157 88l23 19c25 -49 73 -80 138 -80s127 31 172 80z" />
    <glyph glyph-name="uni1EAB.alt1" horiz-adv-x="514" 
d="M428 523h-26l-65 120l-114 -120h-30l130 144h36zM376 0h-30l12 55c-47 -44 -91 -67 -155 -67c-85 0 -165 44 -165 140c0 115 85 182 182 182c83 0 138 -29 177 -79l23 103c2 11 4 25 4 36c0 58 -54 98 -133 98c-69 0 -121 -29 -158 -67l-19 22c54 49 108 72 177 72
c87 0 163 -40 163 -124c0 -13 -3 -30 -5 -40zM208 15c63 0 113 26 157 72l27 118c-30 53 -95 78 -167 78c-90 0 -153 -66 -153 -152c0 -77 59 -116 136 -116zM417 682c-77 0 -54 113 -116 113c-33 0 -59 -32 -76 -107h-27c15 72 52 134 109 134c77 0 54 -113 116 -113
c33 0 59 32 77 107h27c-15 -72 -53 -134 -110 -134z" />
    <glyph glyph-name="uni1EB1.alt1" horiz-adv-x="514" 
d="M376 0h-30l12 55c-47 -44 -91 -67 -155 -67c-85 0 -165 44 -165 140c0 115 85 182 182 182c83 0 138 -29 177 -79l23 103c2 11 4 25 4 36c0 58 -54 98 -133 98c-69 0 -121 -29 -158 -67l-19 22c54 49 108 72 177 72c87 0 163 -40 163 -124c0 -13 -3 -30 -5 -40zM208 15
c63 0 113 26 157 72l27 118c-30 53 -95 78 -167 78c-90 0 -153 -66 -153 -152c0 -77 59 -116 136 -116zM393 612h-30l-143 144h45zM499 614c-52 -54 -122 -88 -194 -88c-71 0 -128 34 -157 88l23 19c25 -49 73 -80 138 -80s127 31 172 80z" />
    <glyph glyph-name="uni1EB3.alt1" horiz-adv-x="514" 
d="M376 0h-30l12 55c-47 -44 -91 -67 -155 -67c-85 0 -165 44 -165 140c0 115 85 182 182 182c83 0 138 -29 177 -79l23 103c2 11 4 25 4 36c0 58 -54 98 -133 98c-69 0 -121 -29 -158 -67l-19 22c54 49 108 72 177 72c87 0 163 -40 163 -124c0 -13 -3 -30 -5 -40zM208 15
c63 0 113 26 157 72l27 118c-30 53 -95 78 -167 78c-90 0 -153 -66 -153 -152c0 -77 59 -116 136 -116zM299 674l-20 11c14 26 40 45 68 45c33 0 61 -21 61 -57c0 -25 -11 -47 -33 -66h-30c26 22 39 39 39 66c0 23 -19 35 -37 35s-35 -9 -48 -34zM499 614
c-52 -54 -122 -88 -194 -88c-71 0 -128 34 -157 88l23 19c25 -49 73 -80 138 -80s127 31 172 80z" />
    <glyph glyph-name="uni1EB5.alt1" horiz-adv-x="514" 
d="M499 614c-52 -54 -122 -88 -194 -88c-71 0 -128 34 -157 88l23 19c25 -49 73 -80 138 -80s127 31 172 80zM376 0h-30l12 55c-47 -44 -91 -67 -155 -67c-85 0 -165 44 -165 140c0 115 85 182 182 182c83 0 138 -29 177 -79l23 103c2 11 4 25 4 36c0 58 -54 98 -133 98
c-69 0 -121 -29 -158 -67l-19 22c54 49 108 72 177 72c87 0 163 -40 163 -124c0 -13 -3 -30 -5 -40zM208 15c63 0 113 26 157 72l27 118c-30 53 -95 78 -167 78c-90 0 -153 -66 -153 -152c0 -77 59 -116 136 -116zM409 652c-77 0 -54 113 -116 113c-33 0 -59 -32 -76 -107
h-27c15 72 52 134 109 134c77 0 54 -113 116 -113c33 0 59 32 77 107h27c-15 -72 -53 -134 -110 -134z" />
    <glyph glyph-name="uni1EB7.alt1" horiz-adv-x="514" 
d="M376 0h-30l12 55c-47 -44 -91 -67 -155 -67c-85 0 -165 44 -165 140c0 115 85 182 182 182c83 0 138 -29 177 -79l23 103c2 11 4 25 4 36c0 58 -54 98 -133 98c-69 0 -121 -29 -158 -67l-19 22c54 49 108 72 177 72c87 0 163 -40 163 -124c0 -13 -3 -30 -5 -40zM208 15
c63 0 113 26 157 72l27 118c-30 53 -95 78 -167 78c-90 0 -153 -66 -153 -152c0 -77 59 -116 136 -116zM193 -141c0 -18 -15 -32 -32 -32c-15 0 -26 11 -26 26c0 17 14 32 32 32c15 0 26 -11 26 -26zM503 632c-52 -54 -122 -88 -194 -88c-71 0 -128 34 -157 88l23 19
c25 -49 73 -80 138 -80s127 31 172 80z" />
    <glyph glyph-name="ae.alt1" horiz-adv-x="908" 
d="M847 232h-397c-1 -3 -2 -20 -2 -31c0 -103 47 -186 174 -186c54 0 102 22 143 57l15 -22c-44 -37 -102 -62 -158 -62c-103 0 -178 48 -196 147c-33 -88 -115 -147 -211 -147c-88 0 -177 44 -177 140c0 120 102 182 194 182c77 0 154 -31 188 -79l15 69c5 23 8 52 8 65
c0 74 -70 103 -148 103c-63 0 -120 -27 -162 -67l-19 22c53 50 120 72 182 72c95 0 174 -35 174 -131c36 76 112 131 195 131c121 0 189 -83 189 -207c0 -20 -6 -53 -7 -56zM456 259h366c2 9 2 17 2 26c0 110 -55 183 -164 183s-180 -114 -204 -209zM407 170l8 35
c-26 50 -111 78 -178 78c-91 0 -165 -67 -165 -152c0 -75 69 -116 148 -116c84 0 168 68 187 155z" />
    <glyph glyph-name="aeacute.alt1" horiz-adv-x="908" 
d="M847 232h-397c-1 -3 -2 -20 -2 -31c0 -103 47 -186 174 -186c54 0 102 22 143 57l15 -22c-44 -37 -102 -62 -158 -62c-103 0 -178 48 -196 147c-33 -88 -115 -147 -211 -147c-88 0 -177 44 -177 140c0 120 102 182 194 182c77 0 154 -31 188 -79l15 69c5 23 8 52 8 65
c0 74 -70 103 -148 103c-63 0 -120 -27 -162 -67l-19 22c53 50 120 72 182 72c95 0 174 -35 174 -131c36 76 112 131 195 131c121 0 189 -83 189 -207c0 -20 -6 -53 -7 -56zM456 259h366c2 9 2 17 2 26c0 110 -55 183 -164 183s-180 -114 -204 -209zM407 170l8 35
c-26 50 -111 78 -178 78c-91 0 -165 -67 -165 -152c0 -75 69 -116 148 -116c84 0 168 68 187 155zM671 700l-207 -144h-32l192 144h47z" />
    <glyph glyph-name="uni1E03" unicode="&#x1e03;" horiz-adv-x="566" 
d="M261 -12c-84 0 -147 42 -180 99l-19 -87h-30l147 667h30l-57 -261c39 52 100 89 172 89c111 0 190 -74 190 -198c0 -167 -104 -309 -253 -309zM261 15c133 0 219 139 219 278c0 108 -62 175 -158 175c-75 0 -144 -49 -180 -104l-55 -251c25 -53 88 -98 174 -98zM437 765
c0 -18 -15 -32 -32 -32c-15 0 -26 11 -26 26c0 17 14 32 32 32c15 0 26 -11 26 -26z" />
    <glyph glyph-name="cacute" unicode="&#x107;" horiz-adv-x="493" 
d="M545 700l-207 -144h-32l192 144h47zM260 -12c-118 0 -209 74 -209 212c0 159 116 295 264 295c79 0 134 -30 167 -86l-24 -17c-30 53 -84 76 -140 76c-146 0 -234 -133 -234 -271c0 -121 77 -182 178 -182c58 0 107 27 140 66l19 -21c-44 -45 -92 -72 -161 -72z" />
    <glyph glyph-name="ccedilla" unicode="&#xe7;" horiz-adv-x="493" 
d="M205 -187c-43 0 -77 15 -99 36l20 25c21 -24 53 -34 82 -34c49 0 71 26 71 56c0 22 -16 36 -43 36c-14 0 -29 -6 -40 -19l-19 13l38 66c-95 16 -164 88 -164 208c0 159 116 295 264 295c79 0 134 -30 167 -86l-24 -17c-30 53 -84 76 -140 76c-146 0 -234 -133 -234 -271
c0 -121 77 -182 178 -182c58 0 107 27 140 66l19 -21c-44 -45 -92 -72 -161 -72c-6 0 -11 0 -17 1l-27 -47c11 9 22 12 35 12c34 0 57 -20 57 -56c0 -49 -40 -85 -103 -85z" />
    <glyph glyph-name="ccircumflex" unicode="&#x109;" horiz-adv-x="493" 
d="M477 556h-26l-65 120l-114 -120h-30l130 144h36zM260 -12c-118 0 -209 74 -209 212c0 159 116 295 264 295c79 0 134 -30 167 -86l-24 -17c-30 53 -84 76 -140 76c-146 0 -234 -133 -234 -271c0 -121 77 -182 178 -182c58 0 107 27 140 66l19 -21
c-44 -45 -92 -72 -161 -72z" />
    <glyph glyph-name="cdotaccent" unicode="&#x10b;" horiz-adv-x="493" 
d="M260 -12c-118 0 -209 74 -209 212c0 159 116 295 264 295c79 0 134 -30 167 -86l-24 -17c-30 53 -84 76 -140 76c-146 0 -234 -133 -234 -271c0 -121 77 -182 178 -182c58 0 107 27 140 66l19 -21c-44 -45 -92 -72 -161 -72zM398 598c0 -18 -15 -32 -32 -32
c-15 0 -26 11 -26 26c0 17 14 32 32 32c15 0 26 -11 26 -26z" />
    <glyph glyph-name="ccaron" unicode="&#x10d;" horiz-adv-x="493" 
d="M378 556h-36l-69 144h26l64 -120l115 120h30zM260 -12c-118 0 -209 74 -209 212c0 159 116 295 264 295c79 0 134 -30 167 -86l-24 -17c-30 53 -84 76 -140 76c-146 0 -234 -133 -234 -271c0 -121 77 -182 178 -182c58 0 107 27 140 66l19 -21c-44 -45 -92 -72 -161 -72z
" />
    <glyph glyph-name="dcaron" unicode="&#x10f;" horiz-adv-x="605" 
d="M691 642c0 -51 -45 -106 -89 -130l-18 20c37 20 65 54 72 84h-6c-14 0 -26 14 -26 28c0 20 16 36 35 36s32 -13 32 -38zM304 495c84 0 147 -42 180 -99l60 271h30l-148 -667h-30l17 77c-39 -52 -100 -89 -172 -89c-111 0 -190 74 -190 198c0 167 104 309 253 309z
M304 468c-133 0 -219 -139 -219 -278c0 -108 62 -175 158 -175c75 0 144 49 180 104l55 251c-25 53 -88 98 -174 98z" />
    <glyph glyph-name="dcroat" unicode="&#x111;" horiz-adv-x="569" 
d="M304 495c84 0 147 -42 180 -99l32 145h-185l5 27h186l22 99h30l-22 -99h55l-4 -27h-57l-120 -541h-30l17 77c-39 -52 -100 -89 -172 -89c-111 0 -190 74 -190 198c0 167 104 309 253 309zM304 468c-133 0 -219 -139 -219 -278c0 -108 62 -175 158 -175
c75 0 144 49 180 104l55 251c-25 53 -88 98 -174 98z" />
    <glyph glyph-name="uni1E0B" unicode="&#x1e0b;" horiz-adv-x="566" 
d="M304 495c84 0 147 -42 180 -99l60 271h30l-148 -667h-30l17 77c-39 -52 -100 -89 -172 -89c-111 0 -190 74 -190 198c0 167 104 309 253 309zM304 468c-133 0 -219 -139 -219 -278c0 -108 62 -175 158 -175c75 0 144 49 180 104l55 251c-25 53 -88 98 -174 98zM419 765
c0 -18 -15 -32 -32 -32c-15 0 -26 11 -26 26c0 17 14 32 32 32c15 0 26 -11 26 -26z" />
    <glyph glyph-name="eacute" unicode="&#xe9;" horiz-adv-x="571" 
d="M540 700l-207 -144h-32l192 144h47zM275 -12c-143 0 -224 89 -224 212c0 162 119 295 265 295c131 0 201 -94 201 -207c0 -19 -4 -44 -7 -56h-423c-1 -6 -2 -22 -2 -32c0 -104 64 -185 190 -185c51 0 108 19 153 57l15 -22c-42 -34 -104 -62 -168 -62zM90 259h395
c1 6 2 19 2 26c0 108 -64 183 -176 183c-106 0 -202 -96 -221 -209z" />
    <glyph glyph-name="ebreve" unicode="&#x115;" horiz-adv-x="571" 
d="M275 -12c-143 0 -224 89 -224 212c0 162 119 295 265 295c131 0 201 -94 201 -207c0 -19 -4 -44 -7 -56h-423c-1 -6 -2 -22 -2 -32c0 -104 64 -185 190 -185c51 0 108 19 153 57l15 -22c-42 -34 -104 -62 -168 -62zM90 259h395c1 6 2 19 2 26c0 108 -64 183 -176 183
c-106 0 -202 -96 -221 -209zM539 632c-52 -54 -122 -88 -194 -88c-71 0 -128 34 -157 88l23 19c25 -49 73 -80 138 -80s127 31 172 80z" />
    <glyph glyph-name="ecircumflex" unicode="&#xea;" horiz-adv-x="571" 
d="M472 556h-26l-65 120l-114 -120h-30l130 144h36zM275 -12c-143 0 -224 89 -224 212c0 162 119 295 265 295c131 0 201 -94 201 -207c0 -19 -4 -44 -7 -56h-423c-1 -6 -2 -22 -2 -32c0 -104 64 -185 190 -185c51 0 108 19 153 57l15 -22c-42 -34 -104 -62 -168 -62z
M90 259h395c1 6 2 19 2 26c0 108 -64 183 -176 183c-106 0 -202 -96 -221 -209z" />
    <glyph glyph-name="edieresis" unicode="&#xeb;" horiz-adv-x="571" 
d="M492 601c0 -17 -14 -31 -31 -31c-14 0 -25 11 -25 25c0 17 14 31 31 31c14 0 25 -11 25 -25zM290 601c0 -17 -14 -31 -31 -31c-14 0 -25 11 -25 25c0 17 14 31 31 31c14 0 25 -11 25 -25zM275 -12c-143 0 -224 89 -224 212c0 162 119 295 265 295c131 0 201 -94 201 -207
c0 -19 -4 -44 -7 -56h-423c-1 -6 -2 -22 -2 -32c0 -104 64 -185 190 -185c51 0 108 19 153 57l15 -22c-42 -34 -104 -62 -168 -62zM90 259h395c1 6 2 19 2 26c0 108 -64 183 -176 183c-106 0 -202 -96 -221 -209z" />
    <glyph glyph-name="edotaccent" unicode="&#x117;" horiz-adv-x="571" 
d="M275 -12c-143 0 -224 89 -224 212c0 162 119 295 265 295c131 0 201 -94 201 -207c0 -19 -4 -44 -7 -56h-423c-1 -6 -2 -22 -2 -32c0 -104 64 -185 190 -185c51 0 108 19 153 57l15 -22c-42 -34 -104 -62 -168 -62zM90 259h395c1 6 2 19 2 26c0 108 -64 183 -176 183
c-106 0 -202 -96 -221 -209zM392 598c0 -18 -15 -32 -32 -32c-15 0 -26 11 -26 26c0 17 14 32 32 32c15 0 26 -11 26 -26z" />
    <glyph glyph-name="egrave" unicode="&#xe8;" horiz-adv-x="571" 
d="M275 -12c-143 0 -224 89 -224 212c0 162 119 295 265 295c131 0 201 -94 201 -207c0 -19 -4 -44 -7 -56h-423c-1 -6 -2 -22 -2 -32c0 -104 64 -185 190 -185c51 0 108 19 153 57l15 -22c-42 -34 -104 -62 -168 -62zM90 259h395c1 6 2 19 2 26c0 108 -64 183 -176 183
c-106 0 -202 -96 -221 -209zM406 556h-30l-143 144h45z" />
    <glyph glyph-name="emacron" unicode="&#x113;" horiz-adv-x="571" 
d="M275 -12c-143 0 -224 89 -224 212c0 162 119 295 265 295c131 0 201 -94 201 -207c0 -19 -4 -44 -7 -56h-423c-1 -6 -2 -22 -2 -32c0 -104 64 -185 190 -185c51 0 108 19 153 57l15 -22c-42 -34 -104 -62 -168 -62zM90 259h395c1 6 2 19 2 26c0 108 -64 183 -176 183
c-106 0 -202 -96 -221 -209zM541 581h-362l6 27h362z" />
    <glyph glyph-name="eogonek" unicode="&#x119;" horiz-adv-x="571" 
d="M275 -12c-143 0 -224 89 -224 212c0 162 119 295 265 295c131 0 201 -94 201 -207c0 -19 -4 -44 -7 -56h-423c-1 -6 -2 -22 -2 -32c0 -104 64 -185 190 -185c51 0 108 19 153 57l15 -22c-26 -21 -58 -39 -94 -50c-63 -27 -108 -63 -108 -113c0 -31 20 -46 50 -46
c27 0 47 16 62 46l21 -13c-17 -31 -43 -60 -88 -60c-42 0 -72 24 -72 68c0 45 25 79 63 106h-2zM90 259h395c1 6 2 19 2 26c0 108 -64 183 -176 183c-106 0 -202 -96 -221 -209z" />
    <glyph glyph-name="ecaron" unicode="&#x11b;" horiz-adv-x="571" 
d="M375 556h-36l-69 144h26l64 -120l115 120h30zM275 -12c-143 0 -224 89 -224 212c0 162 119 295 265 295c131 0 201 -94 201 -207c0 -19 -4 -44 -7 -56h-423c-1 -6 -2 -22 -2 -32c0 -104 64 -185 190 -185c51 0 108 19 153 57l15 -22c-42 -34 -104 -62 -168 -62zM90 259
h395c1 6 2 19 2 26c0 108 -64 183 -176 183c-106 0 -202 -96 -221 -209z" />
    <glyph glyph-name="uni1EB9" unicode="&#x1eb9;" horiz-adv-x="571" 
d="M275 -12c-143 0 -224 89 -224 212c0 162 119 295 265 295c131 0 201 -94 201 -207c0 -19 -4 -44 -7 -56h-423c-1 -6 -2 -22 -2 -32c0 -104 64 -185 190 -185c51 0 108 19 153 57l15 -22c-42 -34 -104 -62 -168 -62zM90 259h395c1 6 2 19 2 26c0 108 -64 183 -176 183
c-106 0 -202 -96 -221 -209zM229 -141c0 -18 -15 -32 -32 -32c-15 0 -26 11 -26 26c0 17 14 32 32 32c15 0 26 -11 26 -26z" />
    <glyph glyph-name="uni1EBB" unicode="&#x1ebb;" horiz-adv-x="571" 
d="M275 -12c-143 0 -224 89 -224 212c0 162 119 295 265 295c131 0 201 -94 201 -207c0 -19 -4 -44 -7 -56h-423c-1 -6 -2 -22 -2 -32c0 -104 64 -185 190 -185c51 0 108 19 153 57l15 -22c-42 -34 -104 -62 -168 -62zM90 259h395c1 6 2 19 2 26c0 108 -64 183 -176 183
c-106 0 -202 -96 -221 -209zM317 594l-20 11c14 26 40 45 68 45c33 0 61 -21 61 -57c0 -25 -11 -47 -33 -66h-30c26 22 39 39 39 66c0 23 -19 35 -37 35s-35 -9 -48 -34z" />
    <glyph glyph-name="uni1EBD" unicode="&#x1ebd;" horiz-adv-x="571" 
d="M275 -12c-143 0 -224 89 -224 212c0 162 119 295 265 295c131 0 201 -94 201 -207c0 -19 -4 -44 -7 -56h-423c-1 -6 -2 -22 -2 -32c0 -104 64 -185 190 -185c51 0 108 19 153 57l15 -22c-42 -34 -104 -62 -168 -62zM90 259h395c1 6 2 19 2 26c0 108 -64 183 -176 183
c-106 0 -202 -96 -221 -209zM424 554c-77 0 -54 113 -116 113c-33 0 -59 -32 -76 -107h-27c15 72 52 134 109 134c77 0 54 -113 116 -113c33 0 59 32 77 107h27c-15 -72 -53 -134 -110 -134z" />
    <glyph glyph-name="uni1EBF" unicode="&#x1ebf;" horiz-adv-x="571" 
d="M471 556h-26l-65 120l-114 -120h-30l130 144h36zM684 770l-207 -144h-32l192 144h47zM275 -12c-143 0 -224 89 -224 212c0 162 119 295 265 295c131 0 201 -94 201 -207c0 -19 -4 -44 -7 -56h-423c-1 -6 -2 -22 -2 -32c0 -104 64 -185 190 -185c51 0 108 19 153 57
l15 -22c-42 -34 -104 -62 -168 -62zM90 259h395c1 6 2 19 2 26c0 108 -64 183 -176 183c-106 0 -202 -96 -221 -209z" />
    <glyph glyph-name="uni1EC1" unicode="&#x1ec1;" horiz-adv-x="571" 
d="M471 556h-26l-65 120l-114 -120h-30l130 144h36zM275 -12c-143 0 -224 89 -224 212c0 162 119 295 265 295c131 0 201 -94 201 -207c0 -19 -4 -44 -7 -56h-423c-1 -6 -2 -22 -2 -32c0 -104 64 -185 190 -185c51 0 108 19 153 57l15 -22c-42 -34 -104 -62 -168 -62z
M90 259h395c1 6 2 19 2 26c0 108 -64 183 -176 183c-106 0 -202 -96 -221 -209zM290 626h-30l-143 144h45z" />
    <glyph glyph-name="uni1EC3" unicode="&#x1ec3;" horiz-adv-x="571" 
d="M472 556h-26l-65 120l-114 -120h-30l130 144h36zM275 -12c-143 0 -224 89 -224 212c0 162 119 295 265 295c131 0 201 -94 201 -207c0 -19 -4 -44 -7 -56h-423c-1 -6 -2 -22 -2 -32c0 -104 64 -185 190 -185c51 0 108 19 153 57l15 -22c-42 -34 -104 -62 -168 -62z
M90 259h395c1 6 2 19 2 26c0 108 -64 183 -176 183c-106 0 -202 -96 -221 -209zM393 734l-20 11c14 26 40 45 68 45c33 0 61 -21 61 -57c0 -25 -11 -47 -33 -66h-30c26 22 39 39 39 66c0 23 -19 35 -37 35s-35 -9 -48 -34z" />
    <glyph glyph-name="uni1EC5" unicode="&#x1ec5;" horiz-adv-x="571" 
d="M464 523h-26l-65 120l-114 -120h-30l130 144h36zM275 -12c-143 0 -224 89 -224 212c0 162 119 295 265 295c131 0 201 -94 201 -207c0 -19 -4 -44 -7 -56h-423c-1 -6 -2 -22 -2 -32c0 -104 64 -185 190 -185c51 0 108 19 153 57l15 -22c-42 -34 -104 -62 -168 -62z
M90 259h395c1 6 2 19 2 26c0 108 -64 183 -176 183c-106 0 -202 -96 -221 -209zM453 682c-77 0 -54 113 -116 113c-33 0 -59 -32 -76 -107h-27c15 72 52 134 109 134c77 0 54 -113 116 -113c33 0 59 32 77 107h27c-15 -72 -53 -134 -110 -134z" />
    <glyph glyph-name="uni1EC7" unicode="&#x1ec7;" horiz-adv-x="571" 
d="M471 556h-26l-65 120l-114 -120h-30l130 144h36zM275 -12c-143 0 -224 89 -224 212c0 162 119 295 265 295c131 0 201 -94 201 -207c0 -19 -4 -44 -7 -56h-423c-1 -6 -2 -22 -2 -32c0 -104 64 -185 190 -185c51 0 108 19 153 57l15 -22c-42 -34 -104 -62 -168 -62z
M90 259h395c1 6 2 19 2 26c0 108 -64 183 -176 183c-106 0 -202 -96 -221 -209zM229 -141c0 -18 -15 -32 -32 -32c-15 0 -26 11 -26 26c0 17 14 32 32 32c15 0 26 -11 26 -26z" />
    <glyph glyph-name="fl.alt1" horiz-adv-x="489" 
d="M76 0h-30l101 456h-80l6 27h80l11 51c20 90 64 143 140 143c26 0 45 -4 67 -19l-15 -23c-16 12 -36 15 -55 15c-61 0 -91 -43 -107 -116l-11 -51h98l-6 -27h-98zM375 -12c-47 0 -82 22 -82 65c0 13 1 21 3 32l129 582h30l-129 -582c-2 -11 -3 -17 -3 -26
c0 -30 21 -44 51 -44c21 0 42 10 55 21l12 -24c-16 -13 -38 -24 -66 -24z" />
    <glyph glyph-name="f_f_l.alt1" horiz-adv-x="735" 
d="M322 0h-30l101 456h-80l6 27h80l11 51c20 90 64 143 140 143c26 0 45 -4 67 -19l-15 -23c-16 12 -36 15 -55 15c-61 0 -91 -43 -107 -116l-11 -51h98l-6 -27h-98zM621 -12c-47 0 -82 22 -82 65c0 13 1 21 3 32l129 582h30l-129 -582c-2 -11 -3 -17 -3 -26
c0 -30 21 -44 51 -44c21 0 42 10 55 21l12 -24c-16 -13 -38 -24 -66 -24zM76 0h-30l101 456h-80l6 27h80l11 51c20 90 64 143 140 143c36 0 59 -9 85 -34l-20 -20c-16 17 -36 27 -68 27c-61 0 -91 -43 -107 -116l-11 -51h98l-6 -27h-98z" />
    <glyph glyph-name="uni1E1F" unicode="&#x1e1f;" horiz-adv-x="246" 
d="M352 765c0 -18 -15 -32 -32 -32c-15 0 -26 11 -26 26c0 17 14 32 32 32c15 0 26 -11 26 -26zM76 0h-30l101 456h-80l6 27h80l11 51c20 90 64 143 140 143c36 0 59 -9 85 -34l-20 -20c-16 17 -36 27 -68 27c-61 0 -91 -43 -107 -116l-11 -51h98l-6 -27h-98z" />
    <glyph glyph-name="gcircumflex" unicode="&#x11d;" horiz-adv-x="566" 
d="M456 551h-26l-65 120l-114 -120h-30l130 144h36zM212 -196c-88 0 -154 17 -201 81l26 23c35 -54 92 -77 175 -77s156 46 183 166l17 80c-40 -52 -102 -89 -178 -89c-104 0 -184 68 -184 203c0 157 98 304 252 304c72 0 145 -44 181 -99l20 87h30l-108 -486
c-31 -138 -109 -193 -213 -193zM240 15c68 0 139 45 180 96l58 259c-31 59 -104 98 -179 98c-135 0 -216 -145 -216 -276c0 -111 61 -177 157 -177z" />
    <glyph glyph-name="gbreve" unicode="&#x11f;" horiz-adv-x="566" 
d="M212 -196c-88 0 -154 17 -201 81l26 23c35 -54 92 -77 175 -77s156 46 183 166l17 80c-40 -52 -102 -89 -178 -89c-104 0 -184 68 -184 203c0 157 98 304 252 304c72 0 145 -44 181 -99l20 87h30l-108 -486c-31 -138 -109 -193 -213 -193zM240 15c68 0 139 45 180 96
l58 259c-31 59 -104 98 -179 98c-135 0 -216 -145 -216 -276c0 -111 61 -177 157 -177zM525 632c-52 -54 -122 -88 -194 -88c-71 0 -128 34 -157 88l23 19c25 -49 73 -80 138 -80s127 31 172 80z" />
    <glyph glyph-name="gdotaccent" unicode="&#x121;" horiz-adv-x="566" 
d="M212 -196c-88 0 -154 17 -201 81l26 23c35 -54 92 -77 175 -77s156 46 183 166l17 80c-40 -52 -102 -89 -178 -89c-104 0 -184 68 -184 203c0 157 98 304 252 304c72 0 145 -44 181 -99l20 87h30l-108 -486c-31 -138 -109 -193 -213 -193zM240 15c68 0 139 45 180 96
l58 259c-31 59 -104 98 -179 98c-135 0 -216 -145 -216 -276c0 -111 61 -177 157 -177zM378 598c0 -18 -15 -32 -32 -32c-15 0 -26 11 -26 26c0 17 14 32 32 32c15 0 26 -11 26 -26z" />
    <glyph glyph-name="gcommaaccent" unicode="&#x123;" horiz-adv-x="566" 
d="M321 603c0 51 45 106 89 130l18 -20c-37 -20 -65 -54 -72 -84h6c14 0 26 -14 26 -28c0 -20 -16 -36 -35 -36s-32 13 -32 38zM212 -196c-88 0 -154 17 -201 81l26 23c35 -54 92 -77 175 -77s156 46 183 166l17 80c-40 -52 -102 -89 -178 -89c-104 0 -184 68 -184 203
c0 157 98 304 252 304c72 0 145 -44 181 -99l20 87h30l-108 -486c-31 -138 -109 -193 -213 -193zM240 15c68 0 139 45 180 96l58 259c-31 59 -104 98 -179 98c-135 0 -216 -145 -216 -276c0 -111 61 -177 157 -177z" />
    <glyph glyph-name="hbar" unicode="&#x127;" horiz-adv-x="530" 
d="M390 0h-30l75 339c2 9 6 28 6 37c0 65 -49 92 -115 92s-134 -46 -179 -94l-83 -374h-30l119 541h-76l6 27h76l22 99h30l-22 -99h166l-6 -27h-166l-29 -134c45 44 111 88 178 88c79 0 138 -36 138 -116c0 -8 -3 -31 -6 -42z" />
    <glyph glyph-name="hcircumflex" unicode="&#x125;" 
d="M491 723h-26l-65 120l-114 -120h-30l130 144h36zM388 0h-30l75 339c2 9 6 28 6 37c0 65 -49 92 -115 92s-134 -46 -179 -94l-83 -374h-30l147 667h30l-57 -260c45 44 111 88 178 88c79 0 138 -36 138 -116c0 -8 -3 -31 -6 -42z" />
    <glyph glyph-name="uni1E23" unicode="&#x1e23;" 
d="M388 0h-30l75 339c2 9 6 28 6 37c0 65 -49 92 -115 92s-134 -46 -179 -94l-83 -374h-30l147 667h30l-57 -260c45 44 111 88 178 88c79 0 138 -36 138 -116c0 -8 -3 -31 -6 -42zM410 765c0 -18 -15 -32 -32 -32c-15 0 -26 11 -26 26c0 17 14 32 32 32c15 0 26 -11 26 -26z
" />
    <glyph glyph-name="dotlessi" unicode="&#x131;" horiz-adv-x="202" 
d="M62 0h-30l107 483h30z" />
    <glyph glyph-name="iacute" unicode="&#xed;" horiz-adv-x="202" 
d="M356 700l-207 -144h-32l192 144h47zM62 0h-30l107 483h30z" />
    <glyph glyph-name="ibreve" unicode="&#x12d;" horiz-adv-x="202" 
d="M62 0h-30l107 483h30zM356 632c-52 -54 -122 -88 -194 -88c-71 0 -128 34 -157 88l23 19c25 -49 73 -80 138 -80s127 31 172 80z" />
    <glyph glyph-name="icircumflex" unicode="&#xee;" horiz-adv-x="202" 
d="M288 556h-26l-65 120l-114 -120h-30l130 144h36zM62 0h-30l107 483h30z" />
    <glyph glyph-name="idieresis" unicode="&#xef;" horiz-adv-x="202" 
d="M308 601c0 -17 -14 -31 -31 -31c-14 0 -25 11 -25 25c0 17 14 31 31 31c14 0 25 -11 25 -25zM106 601c0 -17 -14 -31 -31 -31c-14 0 -25 11 -25 25c0 17 14 31 31 31c14 0 25 -11 25 -25zM62 0h-30l107 483h30z" />
    <glyph glyph-name="igrave" unicode="&#xec;" horiz-adv-x="202" 
d="M62 0h-30l107 483h30zM222 556h-30l-143 144h45z" />
    <glyph glyph-name="imacron" unicode="&#x12b;" horiz-adv-x="202" 
d="M62 0h-30l107 483h30zM357 581h-362l6 27h362z" />
    <glyph glyph-name="iogonek" unicode="&#x12f;" horiz-adv-x="202" 
d="M66 -113l21 -13c-17 -31 -43 -60 -88 -60c-42 0 -72 24 -72 68c0 61 46 102 108 132l104 469h30l-107 -483c-63 -27 -108 -63 -108 -113c0 -31 20 -46 50 -46c27 0 47 16 62 46zM175 566c-15 0 -27 12 -27 26c0 19 18 32 33 32s27 -12 27 -26c0 -19 -18 -32 -33 -32z" />
    <glyph glyph-name="itilde" unicode="&#x129;" horiz-adv-x="202" 
d="M62 0h-30l107 483h30zM240 554c-77 0 -54 113 -116 113c-33 0 -59 -32 -76 -107h-27c15 72 52 134 109 134c77 0 54 -113 116 -113c33 0 59 32 77 107h27c-15 -72 -53 -134 -110 -134z" />
    <glyph glyph-name="uni1EC9" unicode="&#x1ec9;" horiz-adv-x="202" 
d="M62 0h-30l107 483h30zM133 594l-20 11c14 26 40 45 68 45c33 0 61 -21 61 -57c0 -25 -11 -47 -33 -66h-30c26 22 39 39 39 66c0 23 -19 35 -37 35s-35 -9 -48 -34z" />
    <glyph glyph-name="uni1ECB" unicode="&#x1ecb;" horiz-adv-x="202" 
d="M175 566c-15 0 -27 12 -27 26c0 19 18 32 33 32s27 -12 27 -26c0 -19 -18 -32 -33 -32zM62 0h-30l107 483h30zM45 -141c0 -18 -15 -32 -32 -32c-15 0 -26 11 -26 26c0 17 14 32 32 32c15 0 26 -11 26 -26z" />
    <glyph glyph-name="ij" unicode="&#x133;" horiz-adv-x="404" 
d="M175 566c-15 0 -27 12 -27 26c0 19 18 32 33 32s27 -12 27 -26c0 -19 -18 -32 -33 -32zM62 0h-30l107 483h30zM122 -196c-40 0 -78 14 -99 43l21 22c15 -21 44 -38 75 -38c49 0 83 27 98 93l124 559h30l-124 -559c-19 -83 -58 -120 -125 -120zM377 566
c-15 0 -27 12 -27 26c0 19 18 32 33 32s27 -12 27 -26c0 -19 -18 -32 -33 -32z" />
    <glyph glyph-name="uni0237" unicode="&#x237;" horiz-adv-x="202" 
d="M-80 -196c-40 0 -78 14 -99 43l21 22c15 -21 44 -38 75 -38c49 0 83 27 98 93l124 559h30l-124 -559c-19 -83 -58 -120 -125 -120z" />
    <glyph glyph-name="jcircumflex" unicode="&#x135;" horiz-adv-x="202" 
d="M289 556h-26l-65 120l-114 -120h-30l130 144h36zM-80 -196c-40 0 -78 14 -99 43l21 22c15 -21 44 -38 75 -38c49 0 83 27 98 93l124 559h30l-124 -559c-19 -83 -58 -120 -125 -120z" />
    <glyph glyph-name="kcommaaccent" unicode="&#x137;" horiz-adv-x="496" 
d="M218 -122c0 -51 -45 -106 -89 -130l-18 20c37 20 65 54 72 84h-6c-14 0 -26 14 -26 28c0 20 16 36 35 36s32 -13 32 -38zM417 0h-37l-161 246l-124 -95l-33 -151h-30l147 667h30l-105 -475l377 291h46l-284 -218z" />
    <glyph glyph-name="kgreenlandic" unicode="&#x138;" horiz-adv-x="496" 
d="M417 0h-37l-161 246l-124 -95l-33 -151h-30l107 483h30l-65 -291l377 291h46l-284 -218z" />
    <glyph glyph-name="lacute" unicode="&#x13a;" horiz-adv-x="202" 
d="M393 867l-207 -144h-32l192 144h47zM62 0h-30l147 667h30z" />
    <glyph glyph-name="lcommaaccent" unicode="&#x13c;" horiz-adv-x="202" 
d="M54 -122c0 -51 -45 -106 -89 -130l-18 20c37 20 65 54 72 84h-6c-14 0 -26 14 -26 28c0 20 16 36 35 36s32 -13 32 -38zM62 0h-30l147 667h30z" />
    <glyph glyph-name="lcaron" unicode="&#x13e;" horiz-adv-x="237" 
d="M342 641c0 -51 -45 -106 -89 -130l-18 20c37 20 65 54 72 84h-6c-14 0 -26 14 -26 28c0 20 16 36 35 36s32 -13 32 -38zM62 0h-30l147 667h30z" />
    <glyph glyph-name="ldot" unicode="&#x140;" horiz-adv-x="240" 
d="M62 0h-30l147 667h30zM218 212c-17 0 -30 13 -30 30c0 20 16 35 36 35c17 0 30 -13 30 -30c0 -20 -16 -35 -36 -35z" />
    <glyph glyph-name="lslash" unicode="&#x142;" horiz-adv-x="268" 
d="M12 248l8 32l120 61l72 326h30l-68 -309l121 62l-7 -32l-121 -62l-72 -326h-30l68 309z" />
    <glyph glyph-name="lacute.alt1" horiz-adv-x="243" 
d="M392 872l-207 -144h-32l192 144h47zM129 -12c-47 0 -82 22 -82 65c0 13 1 21 3 32l129 582h30l-129 -582c-2 -11 -3 -17 -3 -26c0 -30 21 -44 51 -44c21 0 42 10 55 21l12 -24c-16 -13 -38 -24 -66 -24z" />
    <glyph glyph-name="lcommaaccent.alt1" horiz-adv-x="243" 
d="M54 -122c0 -51 -45 -106 -89 -130l-18 20c37 20 65 54 72 84h-6c-14 0 -26 14 -26 28c0 20 16 36 35 36s32 -13 32 -38zM129 -12c-47 0 -82 22 -82 65c0 13 1 21 3 32l129 582h30l-129 -582c-2 -11 -3 -17 -3 -26c0 -30 21 -44 51 -44c21 0 42 10 55 21l12 -24
c-16 -13 -38 -24 -66 -24z" />
    <glyph glyph-name="lcaron.alt1" horiz-adv-x="243" 
d="M342 641c0 -51 -45 -106 -89 -130l-18 20c37 20 65 54 72 84h-6c-14 0 -26 14 -26 28c0 20 16 36 35 36s32 -13 32 -38zM129 -12c-47 0 -82 22 -82 65c0 13 1 21 3 32l129 582h30l-129 -582c-2 -11 -3 -17 -3 -26c0 -30 21 -44 51 -44c21 0 42 10 55 21l12 -24
c-16 -13 -38 -24 -66 -24z" />
    <glyph glyph-name="ldot.alt1" horiz-adv-x="240" 
d="M129 -12c-47 0 -82 22 -82 65c0 13 1 21 3 32l129 582h30l-129 -582c-2 -11 -3 -17 -3 -26c0 -30 21 -44 51 -44c21 0 42 10 55 21l12 -24c-16 -13 -38 -24 -66 -24zM218 212c-17 0 -30 13 -30 30c0 20 16 35 36 35c17 0 30 -13 30 -30c0 -20 -16 -35 -36 -35z" />
    <glyph glyph-name="lslash.alt1" horiz-adv-x="276" 
d="M12 248l8 32l119 60l73 327h30l-69 -309l122 62l-7 -32l-122 -62l-53 -241c-2 -11 -3 -17 -3 -26c0 -30 21 -44 51 -44c21 0 42 10 55 21l12 -24c-16 -13 -38 -24 -66 -24c-47 0 -82 22 -82 65c0 13 1 21 3 32l49 224z" />
    <glyph glyph-name="nacute" unicode="&#x144;" 
d="M521 700l-207 -144h-32l192 144h47zM388 0h-30l75 338c2 10 6 25 6 38c0 65 -49 92 -115 92s-134 -45 -179 -93l-83 -375h-30l107 483h30l-17 -76c45 44 111 88 178 88c79 0 138 -36 138 -116c0 -10 -3 -30 -6 -42z" />
    <glyph glyph-name="napostrophe" unicode="&#x149;" 
d="M242 687c0 -51 -45 -106 -89 -130l-18 20c37 20 65 54 72 84h-6c-14 0 -26 14 -26 28c0 20 16 36 35 36s32 -13 32 -38zM388 0h-30l75 338c2 10 6 25 6 38c0 65 -49 92 -115 92s-134 -45 -179 -93l-83 -375h-30l107 483h30l-17 -76c45 44 111 88 178 88
c79 0 138 -36 138 -116c0 -10 -3 -30 -6 -42z" />
    <glyph glyph-name="ncaron" unicode="&#x148;" 
d="M354 556h-36l-69 144h26l64 -120l115 120h30zM388 0h-30l75 338c2 10 6 25 6 38c0 65 -49 92 -115 92s-134 -45 -179 -93l-83 -375h-30l107 483h30l-17 -76c45 44 111 88 178 88c79 0 138 -36 138 -116c0 -10 -3 -30 -6 -42z" />
    <glyph glyph-name="ncommaaccent" unicode="&#x146;" 
d="M219 -122c0 -51 -45 -106 -89 -130l-18 20c37 20 65 54 72 84h-6c-14 0 -26 14 -26 28c0 20 16 36 35 36s32 -13 32 -38zM388 0h-30l75 338c2 10 6 25 6 38c0 65 -49 92 -115 92s-134 -45 -179 -93l-83 -375h-30l107 483h30l-17 -76c45 44 111 88 178 88
c79 0 138 -36 138 -116c0 -10 -3 -30 -6 -42z" />
    <glyph glyph-name="ntilde" unicode="&#xf1;" 
d="M388 0h-30l75 338c2 10 6 25 6 38c0 65 -49 92 -115 92s-134 -45 -179 -93l-83 -375h-30l107 483h30l-17 -76c45 44 111 88 178 88c79 0 138 -36 138 -116c0 -10 -3 -30 -6 -42zM405 554c-77 0 -54 113 -116 113c-33 0 -59 -32 -76 -107h-27c15 72 52 134 109 134
c77 0 54 -113 116 -113c33 0 59 32 77 107h27c-15 -72 -53 -134 -110 -134z" />
    <glyph glyph-name="eng" unicode="&#x14b;" 
d="M462 337l-91 -413c-18 -79 -56 -120 -125 -120c-38 0 -76 12 -99 43l23 23c15 -21 42 -39 73 -39c50 0 83 27 98 93l92 414c3 15 6 27 6 39c0 66 -53 91 -115 91c-66 0 -134 -45 -179 -93l-83 -375h-30l107 483h30l-17 -76c45 44 111 88 178 88c76 0 138 -34 138 -117
c0 -13 -3 -26 -6 -41z" />
    <glyph glyph-name="oacute" unicode="&#xf3;" horiz-adv-x="570" 
d="M540 700l-207 -144h-32l192 144h47zM256 -12c-123 0 -205 81 -205 210c0 154 112 297 261 297c123 0 205 -81 205 -210c0 -154 -112 -297 -261 -297zM256 15c131 0 227 133 227 270c0 110 -63 183 -171 183c-131 0 -227 -133 -227 -270c0 -110 63 -183 171 -183z" />
    <glyph glyph-name="obreve" unicode="&#x14f;" horiz-adv-x="570" 
d="M256 -12c-123 0 -205 81 -205 210c0 154 112 297 261 297c123 0 205 -81 205 -210c0 -154 -112 -297 -261 -297zM256 15c131 0 227 133 227 270c0 110 -63 183 -171 183c-131 0 -227 -133 -227 -270c0 -110 63 -183 171 -183zM541 632c-52 -54 -122 -88 -194 -88
c-71 0 -128 34 -157 88l23 19c25 -49 73 -80 138 -80s127 31 172 80z" />
    <glyph glyph-name="ocircumflex" unicode="&#xf4;" horiz-adv-x="570" 
d="M473 556h-26l-65 120l-114 -120h-30l130 144h36zM256 -12c-123 0 -205 81 -205 210c0 154 112 297 261 297c123 0 205 -81 205 -210c0 -154 -112 -297 -261 -297zM256 15c131 0 227 133 227 270c0 110 -63 183 -171 183c-131 0 -227 -133 -227 -270
c0 -110 63 -183 171 -183z" />
    <glyph glyph-name="odieresis" unicode="&#xf6;" horiz-adv-x="570" 
d="M494 601c0 -17 -14 -31 -31 -31c-14 0 -25 11 -25 25c0 17 14 31 31 31c14 0 25 -11 25 -25zM292 601c0 -17 -14 -31 -31 -31c-14 0 -25 11 -25 25c0 17 14 31 31 31c14 0 25 -11 25 -25zM256 -12c-123 0 -205 81 -205 210c0 154 112 297 261 297c123 0 205 -81 205 -210
c0 -154 -112 -297 -261 -297zM256 15c131 0 227 133 227 270c0 110 -63 183 -171 183c-131 0 -227 -133 -227 -270c0 -110 63 -183 171 -183z" />
    <glyph glyph-name="ograve" unicode="&#xf2;" horiz-adv-x="570" 
d="M256 -12c-123 0 -205 81 -205 210c0 154 112 297 261 297c123 0 205 -81 205 -210c0 -154 -112 -297 -261 -297zM256 15c131 0 227 133 227 270c0 110 -63 183 -171 183c-131 0 -227 -133 -227 -270c0 -110 63 -183 171 -183zM407 556h-30l-143 144h45z" />
    <glyph glyph-name="ohungarumlaut" unicode="&#x151;" horiz-adv-x="570" 
d="M428 700l-147 -144h-28l132 144h43zM564 700l-147 -144h-28l132 144h43zM256 -12c-123 0 -205 81 -205 210c0 154 112 297 261 297c123 0 205 -81 205 -210c0 -154 -112 -297 -261 -297zM256 15c131 0 227 133 227 270c0 110 -63 183 -171 183
c-131 0 -227 -133 -227 -270c0 -110 63 -183 171 -183z" />
    <glyph glyph-name="omacron" unicode="&#x14d;" horiz-adv-x="570" 
d="M542 581h-362l6 27h362zM256 -12c-123 0 -205 81 -205 210c0 154 112 297 261 297c123 0 205 -81 205 -210c0 -154 -112 -297 -261 -297zM256 15c131 0 227 133 227 270c0 110 -63 183 -171 183c-131 0 -227 -133 -227 -270c0 -110 63 -183 171 -183z" />
    <glyph glyph-name="oslash" unicode="&#xf8;" horiz-adv-x="570" 
d="M65 0h-36l62 64c-26 34 -40 80 -40 134c0 154 112 297 261 297c59 0 108 -19 143 -52l39 40h35l-56 -59c28 -35 44 -83 44 -139c0 -154 -112 -297 -261 -297c-62 0 -113 20 -149 56zM256 15c131 0 227 133 227 270c0 46 -12 86 -33 116l-322 -335c30 -33 73 -51 128 -51z
M85 198c0 -44 10 -82 28 -111l321 334c-29 30 -70 47 -122 47c-131 0 -227 -133 -227 -270z" />
    <glyph glyph-name="oslashacute" unicode="&#x1ff;" horiz-adv-x="570" 
d="M540 700l-207 -144h-32l192 144h47zM65 0h-36l62 64c-26 34 -40 80 -40 134c0 154 112 297 261 297c59 0 108 -19 143 -52l39 40h35l-56 -59c28 -35 44 -83 44 -139c0 -154 -112 -297 -261 -297c-62 0 -113 20 -149 56zM256 15c131 0 227 133 227 270
c0 46 -12 86 -33 116l-322 -335c30 -33 73 -51 128 -51zM85 198c0 -44 10 -82 28 -111l321 334c-29 30 -70 47 -122 47c-131 0 -227 -133 -227 -270z" />
    <glyph glyph-name="otilde" unicode="&#xf5;" horiz-adv-x="570" 
d="M256 -12c-123 0 -205 81 -205 210c0 154 112 297 261 297c123 0 205 -81 205 -210c0 -154 -112 -297 -261 -297zM256 15c131 0 227 133 227 270c0 110 -63 183 -171 183c-131 0 -227 -133 -227 -270c0 -110 63 -183 171 -183zM425 554c-77 0 -54 113 -116 113
c-33 0 -59 -32 -76 -107h-27c15 72 52 134 109 134c77 0 54 -113 116 -113c33 0 59 32 77 107h27c-15 -72 -53 -134 -110 -134z" />
    <glyph glyph-name="uni1ECD" unicode="&#x1ecd;" horiz-adv-x="570" 
d="M256 -12c-123 0 -205 81 -205 210c0 154 112 297 261 297c123 0 205 -81 205 -210c0 -154 -112 -297 -261 -297zM256 15c131 0 227 133 227 270c0 110 -63 183 -171 183c-131 0 -227 -133 -227 -270c0 -110 63 -183 171 -183zM230 -141c0 -18 -15 -32 -32 -32
c-15 0 -26 11 -26 26c0 17 14 32 32 32c15 0 26 -11 26 -26z" />
    <glyph glyph-name="uni1ECF" unicode="&#x1ecf;" horiz-adv-x="570" 
d="M256 -12c-123 0 -205 81 -205 210c0 154 112 297 261 297c123 0 205 -81 205 -210c0 -154 -112 -297 -261 -297zM256 15c131 0 227 133 227 270c0 110 -63 183 -171 183c-131 0 -227 -133 -227 -270c0 -110 63 -183 171 -183zM318 594l-20 11c14 26 40 45 68 45
c33 0 61 -21 61 -57c0 -25 -11 -47 -33 -66h-30c26 22 39 39 39 66c0 23 -19 35 -37 35s-35 -9 -48 -34z" />
    <glyph glyph-name="uni1ED1" unicode="&#x1ed1;" horiz-adv-x="570" 
d="M473 556h-26l-65 120l-114 -120h-30l130 144h36zM686 770l-207 -144h-32l192 144h47zM256 -12c-123 0 -205 81 -205 210c0 154 112 297 261 297c123 0 205 -81 205 -210c0 -154 -112 -297 -261 -297zM256 15c131 0 227 133 227 270c0 110 -63 183 -171 183
c-131 0 -227 -133 -227 -270c0 -110 63 -183 171 -183z" />
    <glyph glyph-name="uni1ED3" unicode="&#x1ed3;" horiz-adv-x="570" 
d="M472 556h-26l-65 120l-114 -120h-30l130 144h36zM256 -12c-123 0 -205 81 -205 210c0 154 112 297 261 297c123 0 205 -81 205 -210c0 -154 -112 -297 -261 -297zM256 15c131 0 227 133 227 270c0 110 -63 183 -171 183c-131 0 -227 -133 -227 -270
c0 -110 63 -183 171 -183zM291 626h-30l-143 144h45z" />
    <glyph glyph-name="uni1ED5" unicode="&#x1ed5;" horiz-adv-x="570" 
d="M473 556h-26l-65 120l-114 -120h-30l130 144h36zM256 -12c-123 0 -205 81 -205 210c0 154 112 297 261 297c123 0 205 -81 205 -210c0 -154 -112 -297 -261 -297zM256 15c131 0 227 133 227 270c0 110 -63 183 -171 183c-131 0 -227 -133 -227 -270
c0 -110 63 -183 171 -183zM394 734l-20 11c14 26 40 45 68 45c33 0 61 -21 61 -57c0 -25 -11 -47 -33 -66h-30c26 22 39 39 39 66c0 23 -19 35 -37 35s-35 -9 -48 -34z" />
    <glyph glyph-name="uni1ED7" unicode="&#x1ed7;" horiz-adv-x="570" 
d="M464 523h-26l-65 120l-114 -120h-30l130 144h36zM256 -12c-123 0 -205 81 -205 210c0 154 112 297 261 297c123 0 205 -81 205 -210c0 -154 -112 -297 -261 -297zM256 15c131 0 227 133 227 270c0 110 -63 183 -171 183c-131 0 -227 -133 -227 -270
c0 -110 63 -183 171 -183zM454 682c-77 0 -54 113 -116 113c-33 0 -59 -32 -76 -107h-27c15 72 52 134 109 134c77 0 54 -113 116 -113c33 0 59 32 77 107h27c-15 -72 -53 -134 -110 -134z" />
    <glyph glyph-name="uni1ED9" unicode="&#x1ed9;" horiz-adv-x="570" 
d="M472 556h-26l-65 120l-114 -120h-30l130 144h36zM256 -12c-123 0 -205 81 -205 210c0 154 112 297 261 297c123 0 205 -81 205 -210c0 -154 -112 -297 -261 -297zM256 15c131 0 227 133 227 270c0 110 -63 183 -171 183c-131 0 -227 -133 -227 -270
c0 -110 63 -183 171 -183zM230 -141c0 -18 -15 -32 -32 -32c-15 0 -26 11 -26 26c0 17 14 32 32 32c15 0 26 -11 26 -26z" />
    <glyph glyph-name="ohorn" unicode="&#x1a1;" horiz-adv-x="570" 
d="M553 544c0 -47 -38 -97 -78 -123c27 -35 42 -81 42 -136c0 -154 -112 -297 -261 -297c-123 0 -205 81 -205 210c0 154 112 297 261 297c60 0 110 -19 146 -54c31 20 54 50 60 77h-6c-14 0 -26 14 -26 28c0 20 16 36 35 36s32 -13 32 -38zM256 15c131 0 227 133 227 270
c0 110 -63 183 -171 183c-131 0 -227 -133 -227 -270c0 -110 63 -183 171 -183z" />
    <glyph glyph-name="uni1EDB" unicode="&#x1edb;" horiz-adv-x="570" 
d="M540 700l-207 -144h-32l192 144h47zM553 544c0 -47 -38 -97 -78 -123c27 -35 42 -81 42 -136c0 -154 -112 -297 -261 -297c-123 0 -205 81 -205 210c0 154 112 297 261 297c60 0 110 -19 146 -54c31 20 54 50 60 77h-6c-14 0 -26 14 -26 28c0 20 16 36 35 36
s32 -13 32 -38zM256 15c131 0 227 133 227 270c0 110 -63 183 -171 183c-131 0 -227 -133 -227 -270c0 -110 63 -183 171 -183z" />
    <glyph glyph-name="uni1EDD" unicode="&#x1edd;" horiz-adv-x="570" 
d="M553 544c0 -47 -38 -97 -78 -123c27 -35 42 -81 42 -136c0 -154 -112 -297 -261 -297c-123 0 -205 81 -205 210c0 154 112 297 261 297c60 0 110 -19 146 -54c31 20 54 50 60 77h-6c-14 0 -26 14 -26 28c0 20 16 36 35 36s32 -13 32 -38zM256 15c131 0 227 133 227 270
c0 110 -63 183 -171 183c-131 0 -227 -133 -227 -270c0 -110 63 -183 171 -183zM407 556h-30l-143 144h45z" />
    <glyph glyph-name="uni1EDF" unicode="&#x1edf;" horiz-adv-x="570" 
d="M553 544c0 -47 -38 -97 -78 -123c27 -35 42 -81 42 -136c0 -154 -112 -297 -261 -297c-123 0 -205 81 -205 210c0 154 112 297 261 297c60 0 110 -19 146 -54c31 20 54 50 60 77h-6c-14 0 -26 14 -26 28c0 20 16 36 35 36s32 -13 32 -38zM256 15c131 0 227 133 227 270
c0 110 -63 183 -171 183c-131 0 -227 -133 -227 -270c0 -110 63 -183 171 -183zM319 594l-20 11c14 26 40 45 68 45c33 0 61 -21 61 -57c0 -25 -11 -47 -33 -66h-30c26 22 39 39 39 66c0 23 -19 35 -37 35s-35 -9 -48 -34z" />
    <glyph glyph-name="uni1EE1" unicode="&#x1ee1;" horiz-adv-x="570" 
d="M553 544c0 -47 -38 -97 -78 -123c27 -35 42 -81 42 -136c0 -154 -112 -297 -261 -297c-123 0 -205 81 -205 210c0 154 112 297 261 297c60 0 110 -19 146 -54c31 20 54 50 60 77h-6c-14 0 -26 14 -26 28c0 20 16 36 35 36s32 -13 32 -38zM256 15c131 0 227 133 227 270
c0 110 -63 183 -171 183c-131 0 -227 -133 -227 -270c0 -110 63 -183 171 -183zM419 554c-77 0 -54 113 -116 113c-33 0 -59 -32 -76 -107h-27c15 72 52 134 109 134c77 0 54 -113 116 -113c33 0 59 32 77 107h27c-15 -72 -53 -134 -110 -134z" />
    <glyph glyph-name="uni1EE3" unicode="&#x1ee3;" horiz-adv-x="570" 
d="M553 544c0 -47 -38 -97 -78 -123c27 -35 42 -81 42 -136c0 -154 -112 -297 -261 -297c-123 0 -205 81 -205 210c0 154 112 297 261 297c60 0 110 -19 146 -54c31 20 54 50 60 77h-6c-14 0 -26 14 -26 28c0 20 16 36 35 36s32 -13 32 -38zM256 15c131 0 227 133 227 270
c0 110 -63 183 -171 183c-131 0 -227 -133 -227 -270c0 -110 63 -183 171 -183zM230 -141c0 -18 -15 -32 -32 -32c-15 0 -26 11 -26 26c0 17 14 32 32 32c15 0 26 -11 26 -26z" />
    <glyph glyph-name="oe" unicode="&#x153;" horiz-adv-x="988" 
d="M928 232h-419c-1 -5 -2 -20 -2 -32c0 -103 63 -185 188 -185c54 0 110 22 151 57l15 -22c-44 -37 -106 -62 -166 -62c-140 0 -211 101 -214 164c-30 -58 -90 -164 -227 -164c-120 0 -203 79 -203 210c0 154 110 297 259 297c137 0 194 -108 195 -164
c29 58 101 164 231 164c120 0 199 -82 199 -207c0 -19 -3 -40 -7 -56zM512 259h391c1 7 2 14 2 26c0 104 -61 183 -174 183c-119 0 -207 -117 -219 -209zM479 285c0 130 -82 183 -169 183c-126 0 -225 -128 -225 -270c0 -109 60 -183 169 -183c127 0 225 127 225 270z" />
    <glyph glyph-name="uni1E57" unicode="&#x1e57;" horiz-adv-x="562" 
d="M261 -12c-84 0 -147 42 -180 99l-60 -271h-30l148 667h30l-17 -77c39 52 100 89 172 89c111 0 190 -74 190 -198c0 -167 -104 -309 -253 -309zM261 15c133 0 219 139 219 278c0 108 -62 175 -158 175c-75 0 -144 -49 -180 -104l-55 -251c25 -53 88 -98 174 -98zM400 598
c0 -18 -15 -32 -32 -32c-15 0 -26 11 -26 26c0 17 14 32 32 32c15 0 26 -11 26 -26z" />
    <glyph glyph-name="racute" unicode="&#x155;" horiz-adv-x="304" 
d="M435 700l-207 -144h-32l192 144h47zM62 0h-30l107 483h30l-19 -82c52 61 98 91 187 91l-8 -35c-5 1 -16 2 -31 2c-63 0 -124 -49 -156 -97z" />
    <glyph glyph-name="rcaron" unicode="&#x159;" horiz-adv-x="304" 
d="M270 556h-36l-69 144h26l64 -120l115 120h30zM62 0h-30l107 483h30l-19 -82c52 61 98 91 187 91l-8 -35c-5 1 -16 2 -31 2c-63 0 -124 -49 -156 -97z" />
    <glyph glyph-name="rcommaaccent" unicode="&#x157;" horiz-adv-x="304" 
d="M133 -122c0 -51 -45 -106 -89 -130l-18 20c37 20 65 54 72 84h-6c-14 0 -26 14 -26 28c0 20 16 36 35 36s32 -13 32 -38zM62 0h-30l107 483h30l-19 -82c52 61 98 91 187 91l-8 -35c-5 1 -16 2 -31 2c-63 0 -124 -49 -156 -97z" />
    <glyph glyph-name="sacute" unicode="&#x15b;" horiz-adv-x="454" 
d="M474 700l-207 -144h-32l192 144h47zM197 -12c-87 0 -148 29 -184 84l27 20c24 -41 79 -77 154 -77c91 0 146 56 146 115c0 115 -262 103 -262 228c0 76 62 137 169 137c83 0 146 -39 168 -79l-25 -19c-20 40 -82 71 -147 71c-81 0 -134 -44 -134 -100
c0 -109 262 -94 262 -229c0 -77 -62 -151 -174 -151z" />
    <glyph glyph-name="scaron" unicode="&#x161;" horiz-adv-x="454" 
d="M309 556h-36l-69 144h26l64 -120l115 120h30zM197 -12c-87 0 -148 29 -184 84l27 20c24 -41 79 -77 154 -77c91 0 146 56 146 115c0 115 -262 103 -262 228c0 76 62 137 169 137c83 0 146 -39 168 -79l-25 -19c-20 40 -82 71 -147 71c-81 0 -134 -44 -134 -100
c0 -109 262 -94 262 -229c0 -77 -62 -151 -174 -151z" />
    <glyph glyph-name="scircumflex" unicode="&#x15d;" horiz-adv-x="454" 
d="M408 556h-26l-65 120l-114 -120h-30l130 144h36zM197 -12c-87 0 -148 29 -184 84l27 20c24 -41 79 -77 154 -77c91 0 146 56 146 115c0 115 -262 103 -262 228c0 76 62 137 169 137c83 0 146 -39 168 -79l-25 -19c-20 40 -82 71 -147 71c-81 0 -134 -44 -134 -100
c0 -109 262 -94 262 -229c0 -77 -62 -151 -174 -151z" />
    <glyph glyph-name="scedilla" unicode="&#x15f;" horiz-adv-x="454" 
d="M137 -187c-43 0 -77 15 -99 36l20 25c21 -24 53 -34 82 -34c49 0 71 26 71 56c0 22 -16 36 -43 36c-14 0 -29 -6 -40 -19l-19 13l38 66c-61 8 -105 36 -134 80l27 20c24 -41 79 -77 154 -77c91 0 146 56 146 115c0 115 -262 103 -262 228c0 76 62 137 169 137
c83 0 146 -39 168 -79l-25 -19c-20 40 -82 71 -147 71c-81 0 -134 -44 -134 -100c0 -109 262 -94 262 -229c0 -77 -62 -151 -174 -151c-8 0 -15 0 -22 1l-27 -47c11 9 22 12 35 12c34 0 57 -20 57 -56c0 -49 -40 -85 -103 -85z" />
    <glyph glyph-name="scommaaccent" unicode="&#x219;" horiz-adv-x="454" 
d="M173 -122c0 -51 -45 -106 -89 -130l-18 20c37 20 65 54 72 84h-6c-14 0 -26 14 -26 28c0 20 16 36 35 36s32 -13 32 -38zM197 -12c-87 0 -148 29 -184 84l27 20c24 -41 79 -77 154 -77c91 0 146 56 146 115c0 115 -262 103 -262 228c0 76 62 137 169 137
c83 0 146 -39 168 -79l-25 -19c-20 40 -82 71 -147 71c-81 0 -134 -44 -134 -100c0 -109 262 -94 262 -229c0 -77 -62 -151 -174 -151z" />
    <glyph glyph-name="uni1E61" unicode="&#x1e61;" horiz-adv-x="454" 
d="M197 -12c-87 0 -148 29 -184 84l27 20c24 -41 79 -77 154 -77c91 0 146 56 146 115c0 115 -262 103 -262 228c0 76 62 137 169 137c83 0 146 -39 168 -79l-25 -19c-20 40 -82 71 -147 71c-81 0 -134 -44 -134 -100c0 -109 262 -94 262 -229c0 -77 -62 -151 -174 -151z
M327 598c0 -18 -15 -32 -32 -32c-15 0 -26 11 -26 26c0 17 14 32 32 32c15 0 26 -11 26 -26z" />
    <glyph glyph-name="germandbls" unicode="&#xdf;" horiz-adv-x="558" 
d="M515 136c0 -70 -53 -148 -173 -148c-90 0 -144 27 -194 90l27 19c34 -47 86 -82 168 -82c94 0 142 61 142 117c0 115 -261 88 -261 222s214 118 214 214c0 53 -65 82 -112 82c-69 0 -131 -50 -149 -131l-115 -519h-30l115 519c20 90 84 158 178 158
c71 0 143 -40 143 -105c0 -128 -214 -101 -214 -214c0 -110 261 -85 261 -222z" />
    <glyph glyph-name="longs" unicode="&#x17f;" horiz-adv-x="246" 
d="M76 0h-30l101 456h-80l6 27h80l11 51c20 90 64 143 140 143c36 0 59 -9 85 -34l-20 -20c-16 17 -36 27 -68 27c-61 0 -91 -43 -107 -116z" />
    <glyph glyph-name="tbar" unicode="&#x167;" horiz-adv-x="256" 
d="M135 -12c-52 0 -82 23 -82 73c0 4 1 15 3 24l35 157h-80l6 27h80l42 187h-80l6 27h80l29 132h30l-29 -132h98l-6 -27h-98l-42 -187h71l-6 -27h-71l-35 -157c-1 -6 -2 -13 -2 -22c0 -31 17 -48 50 -48c21 0 42 10 55 21l12 -24c-18 -14 -39 -24 -66 -24z" />
    <glyph glyph-name="tcaron" unicode="&#x165;" horiz-adv-x="256" 
d="M353 687c0 -51 -45 -106 -89 -130l-18 20c37 20 65 54 72 84h-6c-14 0 -26 14 -26 28c0 20 16 36 35 36s32 -13 32 -38zM135 -12c-52 0 -82 23 -82 73c0 4 1 15 3 24l83 371h-80l6 27h80l29 132h30l-29 -132h98l-6 -27h-98l-83 -371c-1 -6 -2 -13 -2 -22
c0 -31 17 -48 50 -48c21 0 42 10 55 21l12 -24c-18 -14 -39 -24 -66 -24z" />
    <glyph glyph-name="tcommaaccent" unicode="&#x163;" horiz-adv-x="256" 
d="M69 -122c0 -51 -45 -106 -89 -130l-18 20c37 20 65 54 72 84h-6c-14 0 -26 14 -26 28c0 20 16 36 35 36s32 -13 32 -38zM135 -12c-52 0 -82 23 -82 73c0 4 1 15 3 24l83 371h-80l6 27h80l29 132h30l-29 -132h98l-6 -27h-98l-83 -371c-1 -6 -2 -13 -2 -22
c0 -31 17 -48 50 -48c21 0 42 10 55 21l12 -24c-18 -14 -39 -24 -66 -24z" />
    <glyph glyph-name="uni021B" unicode="&#x21b;" horiz-adv-x="256" 
d="M60 -122c0 -51 -45 -106 -89 -130l-18 20c37 20 65 54 72 84h-6c-14 0 -26 14 -26 28c0 20 16 36 35 36s32 -13 32 -38zM135 -12c-52 0 -82 23 -82 73c0 4 1 15 3 24l83 371h-80l6 27h80l29 132h30l-29 -132h98l-6 -27h-98l-83 -371c-1 -6 -2 -13 -2 -22
c0 -31 17 -48 50 -48c21 0 42 10 55 21l12 -24c-18 -14 -39 -24 -66 -24z" />
    <glyph glyph-name="uni1E6B" unicode="&#x1e6b;" horiz-adv-x="256" 
d="M135 -12c-52 0 -82 23 -82 73c0 4 1 15 3 24l83 371h-80l6 27h80l29 132h30l-29 -132h98l-6 -27h-98l-83 -371c-1 -6 -2 -13 -2 -22c0 -31 17 -48 50 -48c21 0 42 10 55 21l12 -24c-18 -14 -39 -24 -66 -24zM250 765c0 -18 -15 -32 -32 -32c-15 0 -26 11 -26 26
c0 17 14 32 32 32c15 0 26 -11 26 -26z" />
    <glyph glyph-name="uacute" unicode="&#xfa;" 
d="M518 700l-207 -144h-32l192 144h47zM139 483h30l-75 -338c-2 -10 -6 -25 -6 -38c0 -65 49 -92 115 -92s134 45 179 93l83 375h30l-107 -483h-30l17 76c-45 -44 -111 -88 -178 -88c-79 0 -138 36 -138 116c0 10 3 30 6 42z" />
    <glyph glyph-name="ubreve" unicode="&#x16d;" 
d="M139 483h30l-75 -338c-2 -10 -6 -25 -6 -38c0 -65 49 -92 115 -92s134 45 179 93l83 375h30l-107 -483h-30l17 76c-45 -44 -111 -88 -178 -88c-79 0 -138 36 -138 116c0 10 3 30 6 42zM517 632c-52 -54 -122 -88 -194 -88c-71 0 -128 34 -157 88l23 19
c25 -49 73 -80 138 -80s127 31 172 80z" />
    <glyph glyph-name="ucircumflex" unicode="&#xfb;" 
d="M450 556h-26l-65 120l-114 -120h-30l130 144h36zM139 483h30l-75 -338c-2 -10 -6 -25 -6 -38c0 -65 49 -92 115 -92s134 45 179 93l83 375h30l-107 -483h-30l17 76c-45 -44 -111 -88 -178 -88c-79 0 -138 36 -138 116c0 10 3 30 6 42z" />
    <glyph glyph-name="udieresis" unicode="&#xfc;" 
d="M470 601c0 -17 -14 -31 -31 -31c-14 0 -25 11 -25 25c0 17 14 31 31 31c14 0 25 -11 25 -25zM268 601c0 -17 -14 -31 -31 -31c-14 0 -25 11 -25 25c0 17 14 31 31 31c14 0 25 -11 25 -25zM139 483h30l-75 -338c-2 -10 -6 -25 -6 -38c0 -65 49 -92 115 -92s134 45 179 93
l83 375h30l-107 -483h-30l17 76c-45 -44 -111 -88 -178 -88c-79 0 -138 36 -138 116c0 10 3 30 6 42z" />
    <glyph glyph-name="ugrave" unicode="&#xf9;" 
d="M139 483h30l-75 -338c-2 -10 -6 -25 -6 -38c0 -65 49 -92 115 -92s134 45 179 93l83 375h30l-107 -483h-30l17 76c-45 -44 -111 -88 -178 -88c-79 0 -138 36 -138 116c0 10 3 30 6 42zM384 556h-30l-143 144h45z" />
    <glyph glyph-name="uhungarumlaut" unicode="&#x171;" 
d="M139 483h30l-75 -338c-2 -10 -6 -25 -6 -38c0 -65 49 -92 115 -92s134 45 179 93l83 375h30l-107 -483h-30l17 76c-45 -44 -111 -88 -178 -88c-79 0 -138 36 -138 116c0 10 3 30 6 42zM407 700l-147 -144h-28l132 144h43zM543 700l-147 -144h-28l132 144h43z" />
    <glyph glyph-name="umacron" unicode="&#x16b;" 
d="M139 483h30l-75 -338c-2 -10 -6 -25 -6 -38c0 -65 49 -92 115 -92s134 45 179 93l83 375h30l-107 -483h-30l17 76c-45 -44 -111 -88 -178 -88c-79 0 -138 36 -138 116c0 10 3 30 6 42zM519 581h-362l6 27h362z" />
    <glyph glyph-name="uogonek" unicode="&#x173;" 
d="M139 483h30l-75 -338c-2 -10 -6 -25 -6 -38c0 -65 49 -92 115 -92s134 45 179 93l83 375h30l-107 -483c-63 -27 -108 -63 -108 -113c0 -31 20 -46 50 -46c27 0 47 16 62 46l21 -13c-17 -31 -43 -60 -88 -60c-42 0 -72 24 -72 68c0 61 45 102 108 132l14 62
c-45 -44 -111 -88 -178 -88c-79 0 -138 36 -138 116c0 10 3 30 6 42z" />
    <glyph glyph-name="uring" unicode="&#x16f;" 
d="M342 553c-49 0 -84 35 -84 84c0 55 47 102 102 102c49 0 84 -35 84 -84c0 -55 -47 -102 -102 -102zM342 577c42 0 78 34 78 76c0 37 -24 62 -60 62c-42 0 -78 -34 -78 -76c0 -36 24 -62 60 -62zM139 483h30l-75 -338c-2 -10 -6 -25 -6 -38c0 -65 49 -92 115 -92
s134 45 179 93l83 375h30l-107 -483h-30l17 76c-45 -44 -111 -88 -178 -88c-79 0 -138 36 -138 116c0 10 3 30 6 42z" />
    <glyph glyph-name="utilde" unicode="&#x169;" 
d="M139 483h30l-75 -338c-2 -10 -6 -25 -6 -38c0 -65 49 -92 115 -92s134 45 179 93l83 375h30l-107 -483h-30l17 76c-45 -44 -111 -88 -178 -88c-79 0 -138 36 -138 116c0 10 3 30 6 42zM402 554c-77 0 -54 113 -116 113c-33 0 -59 -32 -76 -107h-27c15 72 52 134 109 134
c77 0 54 -113 116 -113c33 0 59 32 77 107h27c-15 -72 -53 -134 -110 -134z" />
    <glyph glyph-name="uni1EE5" unicode="&#x1ee5;" 
d="M139 483h30l-75 -338c-2 -10 -6 -25 -6 -38c0 -65 49 -92 115 -92s134 45 179 93l83 375h30l-107 -483h-30l17 76c-45 -44 -111 -88 -178 -88c-79 0 -138 36 -138 116c0 10 3 30 6 42zM207 -141c0 -18 -15 -32 -32 -32c-15 0 -26 11 -26 26c0 17 14 32 32 32
c15 0 26 -11 26 -26z" />
    <glyph glyph-name="uhorn" unicode="&#x1b0;" 
d="M618 543c0 -66 -63 -127 -145 -159l-85 -384h-30l17 76c-45 -44 -111 -88 -178 -88c-79 0 -138 36 -138 116c0 10 3 30 6 42l74 337h30l-75 -338c-2 -10 -6 -25 -6 -38c0 -65 49 -92 115 -92s134 45 179 93l83 375h30l-15 -68c62 30 95 66 103 102h-6
c-14 0 -26 14 -26 28c0 20 16 36 35 36s32 -13 32 -38z" />
    <glyph glyph-name="uni1EE7" unicode="&#x1ee7;" 
d="M139 483h30l-75 -338c-2 -10 -6 -25 -6 -38c0 -65 49 -92 115 -92s134 45 179 93l83 375h30l-107 -483h-30l17 76c-45 -44 -111 -88 -178 -88c-79 0 -138 36 -138 116c0 10 3 30 6 42zM296 594l-20 11c14 26 40 45 68 45c33 0 61 -21 61 -57c0 -25 -11 -47 -33 -66h-30
c26 22 39 39 39 66c0 23 -19 35 -37 35s-35 -9 -48 -34z" />
    <glyph glyph-name="uni1EE9" unicode="&#x1ee9;" 
d="M518 700l-207 -144h-32l192 144h47zM618 543c0 -66 -63 -127 -145 -159l-85 -384h-30l17 76c-45 -44 -111 -88 -178 -88c-79 0 -138 36 -138 116c0 10 3 30 6 42l74 337h30l-75 -338c-2 -10 -6 -25 -6 -38c0 -65 49 -92 115 -92s134 45 179 93l83 375h30l-15 -68
c62 30 95 66 103 102h-6c-14 0 -26 14 -26 28c0 20 16 36 35 36s32 -13 32 -38z" />
    <glyph glyph-name="uni1EEB" unicode="&#x1eeb;" 
d="M384 556h-30l-143 144h45zM618 543c0 -66 -63 -127 -145 -159l-85 -384h-30l17 76c-45 -44 -111 -88 -178 -88c-79 0 -138 36 -138 116c0 10 3 30 6 42l74 337h30l-75 -338c-2 -10 -6 -25 -6 -38c0 -65 49 -92 115 -92s134 45 179 93l83 375h30l-15 -68
c62 30 95 66 103 102h-6c-14 0 -26 14 -26 28c0 20 16 36 35 36s32 -13 32 -38z" />
    <glyph glyph-name="uni1EED" unicode="&#x1eed;" 
d="M296 594l-20 11c14 26 40 45 68 45c33 0 61 -21 61 -57c0 -25 -11 -47 -33 -66h-30c26 22 39 39 39 66c0 23 -19 35 -37 35s-35 -9 -48 -34zM618 543c0 -66 -63 -127 -145 -159l-85 -384h-30l17 76c-45 -44 -111 -88 -178 -88c-79 0 -138 36 -138 116c0 10 3 30 6 42
l74 337h30l-75 -338c-2 -10 -6 -25 -6 -38c0 -65 49 -92 115 -92s134 45 179 93l83 375h30l-15 -68c62 30 95 66 103 102h-6c-14 0 -26 14 -26 28c0 20 16 36 35 36s32 -13 32 -38z" />
    <glyph glyph-name="uni1EEF" unicode="&#x1eef;" 
d="M618 543c0 -66 -63 -127 -145 -159l-85 -384h-30l17 76c-45 -44 -111 -88 -178 -88c-79 0 -138 36 -138 116c0 10 3 30 6 42l74 337h30l-75 -338c-2 -10 -6 -25 -6 -38c0 -65 49 -92 115 -92s134 45 179 93l83 375h30l-15 -68c62 30 95 66 103 102h-6
c-14 0 -26 14 -26 28c0 20 16 36 35 36s32 -13 32 -38zM402 554c-77 0 -54 113 -116 113c-33 0 -59 -32 -76 -107h-27c15 72 52 134 109 134c77 0 54 -113 116 -113c33 0 59 32 77 107h27c-15 -72 -53 -134 -110 -134z" />
    <glyph glyph-name="uni1EF1" unicode="&#x1ef1;" 
d="M207 -141c0 -18 -15 -32 -32 -32c-15 0 -26 11 -26 26c0 17 14 32 32 32c15 0 26 -11 26 -26zM618 543c0 -66 -63 -127 -145 -159l-85 -384h-30l17 76c-45 -44 -111 -88 -178 -88c-79 0 -138 36 -138 116c0 10 3 30 6 42l74 337h30l-75 -338c-2 -10 -6 -25 -6 -38
c0 -65 49 -92 115 -92s134 45 179 93l83 375h30l-15 -68c62 30 95 66 103 102h-6c-14 0 -26 14 -26 28c0 20 16 36 35 36s32 -13 32 -38z" />
    <glyph glyph-name="wacute" unicode="&#x1e83;" horiz-adv-x="704" 
d="M605 700l-207 -144h-32l192 144h47zM468 0h-24l-49 438l-243 -438h-24l-53 483h31l43 -436l242 436h24l48 -436l237 436h35z" />
    <glyph glyph-name="wcircumflex" unicode="&#x175;" horiz-adv-x="704" 
d="M539 556h-26l-65 120l-114 -120h-30l130 144h36zM468 0h-24l-49 438l-243 -438h-24l-53 483h31l43 -436l242 436h24l48 -436l237 436h35z" />
    <glyph glyph-name="wdieresis" unicode="&#x1e85;" horiz-adv-x="704" 
d="M557 601c0 -17 -14 -31 -31 -31c-14 0 -25 11 -25 25c0 17 14 31 31 31c14 0 25 -11 25 -25zM355 601c0 -17 -14 -31 -31 -31c-14 0 -25 11 -25 25c0 17 14 31 31 31c14 0 25 -11 25 -25zM468 0h-24l-49 438l-243 -438h-24l-53 483h31l43 -436l242 436h24l48 -436
l237 436h35z" />
    <glyph glyph-name="wgrave" unicode="&#x1e81;" horiz-adv-x="704" 
d="M468 0h-24l-49 438l-243 -438h-24l-53 483h31l43 -436l242 436h24l48 -436l237 436h35zM470 556h-30l-143 144h45z" />
    <glyph glyph-name="yacute" unicode="&#xfd;" horiz-adv-x="471" 
d="M-45 -186l13 31c10 -5 27 -9 46 -9c27 0 49 13 81 61l66 100l-97 486h33l90 -448l289 448h37l-389 -597c-34 -52 -72 -82 -120 -82c-17 0 -36 4 -49 10zM487 700l-207 -144h-32l192 144h47z" />
    <glyph glyph-name="ycircumflex" unicode="&#x177;" horiz-adv-x="471" 
d="M-45 -186l13 31c10 -5 27 -9 46 -9c27 0 49 13 81 61l66 100l-97 486h33l90 -448l289 448h37l-389 -597c-34 -52 -72 -82 -120 -82c-17 0 -36 4 -49 10zM421 556h-26l-65 120l-114 -120h-30l130 144h36z" />
    <glyph glyph-name="ydieresis" unicode="&#xff;" horiz-adv-x="471" 
d="M-45 -186l13 31c10 -5 27 -9 46 -9c27 0 49 13 81 61l66 100l-97 486h33l90 -448l289 448h37l-389 -597c-34 -52 -72 -82 -120 -82c-17 0 -36 4 -49 10zM440 601c0 -17 -14 -31 -31 -31c-14 0 -25 11 -25 25c0 17 14 31 31 31c14 0 25 -11 25 -25zM238 601
c0 -17 -14 -31 -31 -31c-14 0 -25 11 -25 25c0 17 14 31 31 31c14 0 25 -11 25 -25z" />
    <glyph glyph-name="ygrave" unicode="&#x1ef3;" horiz-adv-x="471" 
d="M-45 -186l13 31c10 -5 27 -9 46 -9c27 0 49 13 81 61l66 100l-97 486h33l90 -448l289 448h37l-389 -597c-34 -52 -72 -82 -120 -82c-17 0 -36 4 -49 10zM353 556h-30l-143 144h45z" />
    <glyph glyph-name="yacute.alt1" 
d="M518 700l-207 -144h-32l192 144h47zM174 -196c-101 0 -158 24 -201 81l26 23c32 -53 93 -77 175 -77c102 0 160 65 183 165l17 78c-51 -46 -110 -86 -177 -86c-70 0 -137 29 -137 114c0 9 0 22 5 44l74 337h30l-75 -338c-3 -15 -5 -31 -5 -40c0 -70 56 -90 114 -90
c66 0 135 45 179 93l83 375h30l-108 -487c-33 -146 -117 -192 -213 -192z" />
    <glyph glyph-name="ycircumflex.alt1" 
d="M450 556h-26l-65 120l-114 -120h-30l130 144h36zM174 -196c-101 0 -158 24 -201 81l26 23c32 -53 93 -77 175 -77c102 0 160 65 183 165l17 78c-51 -46 -110 -86 -177 -86c-70 0 -137 29 -137 114c0 9 0 22 5 44l74 337h30l-75 -338c-3 -15 -5 -31 -5 -40
c0 -70 56 -90 114 -90c66 0 135 45 179 93l83 375h30l-108 -487c-33 -146 -117 -192 -213 -192z" />
    <glyph glyph-name="ydieresis.alt1" 
d="M470 601c0 -17 -14 -31 -31 -31c-14 0 -25 11 -25 25c0 17 14 31 31 31c14 0 25 -11 25 -25zM268 601c0 -17 -14 -31 -31 -31c-14 0 -25 11 -25 25c0 17 14 31 31 31c14 0 25 -11 25 -25zM174 -196c-101 0 -158 24 -201 81l26 23c32 -53 93 -77 175 -77
c102 0 160 65 183 165l17 78c-51 -46 -110 -86 -177 -86c-70 0 -137 29 -137 114c0 9 0 22 5 44l74 337h30l-75 -338c-3 -15 -5 -31 -5 -40c0 -70 56 -90 114 -90c66 0 135 45 179 93l83 375h30l-108 -487c-33 -146 -117 -192 -213 -192z" />
    <glyph glyph-name="ygrave.alt1" 
d="M174 -196c-101 0 -158 24 -201 81l26 23c32 -53 93 -77 175 -77c102 0 160 65 183 165l17 78c-51 -46 -110 -86 -177 -86c-70 0 -137 29 -137 114c0 9 0 22 5 44l74 337h30l-75 -338c-3 -15 -5 -31 -5 -40c0 -70 56 -90 114 -90c66 0 135 45 179 93l83 375h30l-108 -487
c-33 -146 -117 -192 -213 -192zM394 606h-30l-143 144h45z" />
    <glyph glyph-name="zacute" unicode="&#x17a;" horiz-adv-x="466" 
d="M485 700l-207 -144h-32l192 144h47zM352 0h-346l5 27l399 429h-303l6 27h342l-6 -27l-401 -429h309z" />
    <glyph glyph-name="zcaron" unicode="&#x17e;" horiz-adv-x="466" 
d="M317 556h-36l-69 144h26l64 -120l115 120h30zM352 0h-346l5 27l399 429h-303l6 27h342l-6 -27l-401 -429h309z" />
    <glyph glyph-name="zdotaccent" unicode="&#x17c;" horiz-adv-x="466" 
d="M352 0h-346l5 27l399 429h-303l6 27h342l-6 -27l-401 -429h309zM338 598c0 -18 -15 -32 -32 -32c-15 0 -26 11 -26 26c0 17 14 32 32 32c15 0 26 -11 26 -26z" />
    <glyph glyph-name="eth" unicode="&#xf0;" horiz-adv-x="570" 
d="M200 534l-7 25l140 42c-23 21 -47 42 -74 62l23 25c31 -23 61 -49 88 -76l120 36l7 -25l-107 -32c76 -85 126 -187 126 -291c0 -174 -111 -312 -257 -312c-123 0 -207 89 -207 203c0 169 117 304 256 304c57 0 133 -25 169 -104c-30 72 -70 134 -123 189zM259 15
c121 0 223 126 223 275c0 82 -50 178 -174 178c-118 0 -222 -117 -222 -269c0 -105 63 -184 173 -184z" />
    <glyph glyph-name="thorn" unicode="&#xfe;" horiz-adv-x="562" 
d="M261 -12c-84 0 -147 42 -180 99l-60 -271h-30l188 851h30l-57 -261c39 52 100 89 172 89c111 0 190 -74 190 -198c0 -167 -104 -309 -253 -309zM261 15c133 0 219 139 219 278c0 108 -62 175 -158 175c-75 0 -144 -49 -180 -104l-55 -251c25 -53 88 -98 174 -98z" />
    <glyph glyph-name="Aacute.smcp" unicode="&#xf7e1;" horiz-adv-x="551" 
d="M538 750l-207 -144h-32l192 144h47zM325 550h35l120 -550h-34l-32 146h-317l-95 -146h-39zM408 175l-71 337l-222 -337h293z" />
    <glyph glyph-name="Abreve.smcp" unicode="&#xf66d;" horiz-adv-x="551" 
d="M325 550h35l120 -550h-34l-32 146h-317l-95 -146h-39zM408 175l-71 337l-222 -337h293zM539 682c-52 -54 -122 -88 -194 -88c-71 0 -128 34 -157 88l23 19c25 -49 73 -80 138 -80s127 31 172 80z" />
    <glyph glyph-name="Acircumflex.smcp" unicode="&#xf7e2;" horiz-adv-x="551" 
d="M471 606h-26l-65 120l-114 -120h-30l130 144h36zM325 550h35l120 -550h-34l-32 146h-317l-95 -146h-39zM408 175l-71 337l-222 -337h293z" />
    <glyph glyph-name="Adieresis.smcp" unicode="&#xf7e4;" horiz-adv-x="551" 
d="M492 651c0 -17 -14 -31 -31 -31c-14 0 -25 11 -25 25c0 17 14 31 31 31c14 0 25 -11 25 -25zM290 651c0 -17 -14 -31 -31 -31c-14 0 -25 11 -25 25c0 17 14 31 31 31c14 0 25 -11 25 -25zM325 550h35l120 -550h-34l-32 146h-317l-95 -146h-39zM408 175l-71 337l-222 -337
h293z" />
    <glyph glyph-name="Agrave.smcp" unicode="&#xf7e0;" horiz-adv-x="551" 
d="M325 550h35l120 -550h-34l-32 146h-317l-95 -146h-39zM408 175l-71 337l-222 -337h293zM405 606h-30l-143 144h45z" />
    <glyph glyph-name="Amacron.smcp" unicode="&#xf66e;" horiz-adv-x="551" 
d="M539 631h-362l6 27h362zM325 550h35l120 -550h-34l-32 146h-317l-95 -146h-39zM408 175l-71 337l-222 -337h293z" />
    <glyph glyph-name="Aogonek.smcp" unicode="&#xf66f;" horiz-adv-x="551" 
d="M325 550h35l120 -550c-63 -27 -108 -63 -108 -113c0 -31 20 -46 50 -46c27 0 47 16 62 46l21 -13c-17 -31 -43 -60 -88 -60c-42 0 -72 24 -72 68c0 58 41 98 99 127l-30 137h-317l-95 -146h-39zM408 175l-71 337l-222 -337h293z" />
    <glyph glyph-name="Aring.smcp" unicode="&#xf7e5;" horiz-adv-x="551" 
d="M360 575c-49 0 -84 35 -84 84c0 55 47 102 102 102c49 0 84 -35 84 -84c0 -55 -47 -102 -102 -102zM360 599c42 0 78 34 78 76c0 37 -24 62 -60 62c-42 0 -78 -34 -78 -76c0 -36 24 -62 60 -62zM325 550h35l120 -550h-34l-32 146h-317l-95 -146h-39zM408 175l-71 337
l-222 -337h293z" />
    <glyph glyph-name="Atilde.smcp" unicode="&#xf7e3;" horiz-adv-x="551" 
d="M325 550h35l120 -550h-34l-32 146h-317l-95 -146h-39zM408 175l-71 337l-222 -337h293zM424 604c-77 0 -54 113 -116 113c-33 0 -59 -32 -76 -107h-27c15 72 52 134 109 134c77 0 54 -113 116 -113c33 0 59 32 77 107h27c-15 -72 -53 -134 -110 -134z" />
    <glyph glyph-name="uni1EA0.smcp" horiz-adv-x="551" 
d="M325 550h35l120 -550h-34l-32 146h-317l-95 -146h-39zM408 175l-71 337l-222 -337h293zM217 -141c0 -18 -15 -32 -32 -32c-15 0 -26 11 -26 26c0 17 14 32 32 32c15 0 26 -11 26 -26z" />
    <glyph glyph-name="uni1EA2.smcp" horiz-adv-x="551" 
d="M325 550h35l120 -550h-34l-32 146h-317l-95 -146h-39zM408 175l-71 337l-222 -337h293zM318 647l-20 11c14 26 40 45 68 45c33 0 61 -21 61 -57c0 -25 -11 -47 -33 -66h-30c26 22 39 39 39 66c0 23 -19 35 -37 35s-35 -9 -48 -34z" />
    <glyph glyph-name="uni1EA4.smcp" horiz-adv-x="551" 
d="M471 606h-26l-65 120l-114 -120h-30l130 144h36zM684 820l-207 -144h-32l192 144h47zM325 550h35l120 -550h-34l-32 146h-317l-95 -146h-39zM408 175l-71 337l-222 -337h293z" />
    <glyph glyph-name="uni1EAC.smcp" horiz-adv-x="551" 
d="M471 606h-26l-65 120l-114 -120h-30l130 144h36zM325 550h35l120 -550h-34l-32 146h-317l-95 -146h-39zM408 175l-71 337l-222 -337h293zM217 -141c0 -18 -15 -32 -32 -32c-15 0 -26 11 -26 26c0 17 14 32 32 32c15 0 26 -11 26 -26z" />
    <glyph glyph-name="uni1EA6.smcp" horiz-adv-x="551" 
d="M471 606h-26l-65 120l-114 -120h-30l130 144h36zM325 550h35l120 -550h-34l-32 146h-317l-95 -146h-39zM408 175l-71 337l-222 -337h293zM290 676h-30l-143 144h45z" />
    <glyph glyph-name="uni1EA8.smcp" horiz-adv-x="551" 
d="M472 606h-26l-65 120l-114 -120h-30l130 144h36zM325 550h35l120 -550h-34l-32 146h-317l-95 -146h-39zM408 175l-71 337l-222 -337h293zM393 784l-20 11c14 26 40 45 68 45c33 0 61 -21 61 -57c0 -25 -11 -47 -33 -66h-30c26 22 39 39 39 66c0 23 -19 35 -37 35
s-35 -9 -48 -34z" />
    <glyph glyph-name="uni1EAE.smcp" horiz-adv-x="551" 
d="M525 806l-207 -144h-32l192 144h47zM325 550h35l120 -550h-34l-32 146h-317l-95 -146h-39zM408 175l-71 337l-222 -337h293zM536 669c-52 -54 -122 -88 -194 -88c-71 0 -128 34 -157 88l23 19c25 -49 73 -80 138 -80s127 31 172 80z" />
    <glyph glyph-name="uni1EAA.smcp" horiz-adv-x="551" 
d="M466 573h-26l-65 120l-114 -120h-30l130 144h36zM325 550h35l120 -550h-34l-32 146h-317l-95 -146h-39zM408 175l-71 337l-222 -337h293zM451 732c-77 0 -54 113 -116 113c-33 0 -59 -32 -76 -107h-27c15 72 52 134 109 134c77 0 54 -113 116 -113c33 0 59 32 77 107h27
c-15 -72 -53 -134 -110 -134z" />
    <glyph glyph-name="uni1EB0.smcp" horiz-adv-x="551" 
d="M325 550h35l120 -550h-34l-32 146h-317l-95 -146h-39zM408 175l-71 337l-222 -337h293zM425 662h-30l-143 144h45zM536 669c-52 -54 -122 -88 -194 -88c-71 0 -128 34 -157 88l23 19c25 -49 73 -80 138 -80s127 31 172 80z" />
    <glyph glyph-name="uni1EB2.smcp" horiz-adv-x="551" 
d="M325 550h35l120 -550h-34l-32 146h-317l-95 -146h-39zM408 175l-71 337l-222 -337h293zM335 724l-20 11c14 26 40 45 68 45c33 0 61 -21 61 -57c0 -25 -11 -47 -33 -66h-30c26 22 39 39 39 66c0 23 -19 35 -37 35s-35 -9 -48 -34zM536 669c-52 -54 -122 -88 -194 -88
c-71 0 -128 34 -157 88l23 19c25 -49 73 -80 138 -80s127 31 172 80z" />
    <glyph glyph-name="uni1EB4.smcp" horiz-adv-x="551" 
d="M536 669c-52 -54 -122 -88 -194 -88c-71 0 -128 34 -157 88l23 19c25 -49 73 -80 138 -80s127 31 172 80zM325 550h35l120 -550h-34l-32 146h-317l-95 -146h-39zM408 175l-71 337l-222 -337h293zM445 702c-77 0 -54 113 -116 113c-33 0 -59 -32 -76 -107h-27
c15 72 52 134 109 134c77 0 54 -113 116 -113c33 0 59 32 77 107h27c-15 -72 -53 -134 -110 -134z" />
    <glyph glyph-name="uni1EB6.smcp" horiz-adv-x="551" 
d="M325 550h35l120 -550h-34l-32 146h-317l-95 -146h-39zM408 175l-71 337l-222 -337h293zM217 -141c0 -18 -15 -32 -32 -32c-15 0 -26 11 -26 26c0 17 14 32 32 32c15 0 26 -11 26 -26zM538 682c-52 -54 -122 -88 -194 -88c-71 0 -128 34 -157 88l23 19
c25 -49 73 -80 138 -80s127 31 172 80z" />
    <glyph glyph-name="AE.smcp" unicode="&#xf7e6;" horiz-adv-x="801" 
d="M687 0h-355l32 146h-236l-126 -146h-39l480 550h365l-6 -29h-323l-50 -223h317l-6 -29h-317l-53 -240h323zM370 175l75 337l-293 -337h218z" />
    <glyph glyph-name="AEacute.smcp" unicode="&#xf670;" horiz-adv-x="801" 
d="M667 750l-207 -144h-32l192 144h47zM687 0h-355l32 146h-236l-126 -146h-39l480 550h365l-6 -29h-323l-50 -223h317l-6 -29h-317l-53 -240h323zM370 175l75 337l-293 -337h218z" />
    <glyph glyph-name="uni1E02.smcp" horiz-adv-x="527" 
d="M265 0h-233l121 550h194c80 0 155 -36 155 -123c0 -67 -43 -132 -125 -148c45 -16 79 -65 79 -115c0 -94 -69 -164 -191 -164zM70 29h201c86 0 150 57 150 135c0 60 -42 105 -118 105h-180zM314 298h20c88 0 134 65 134 129c0 65 -57 94 -127 94h-162l-51 -223h186z
M388 648c0 -18 -15 -32 -32 -32c-15 0 -26 11 -26 26c0 17 14 32 32 32c15 0 26 -11 26 -26z" />
    <glyph glyph-name="Cacute.smcp" unicode="&#xf671;" horiz-adv-x="580" 
d="M612 750l-207 -144h-32l192 144h47zM325 -12c-152 0 -265 95 -265 249c0 177 152 325 323 325c82 0 162 -38 205 -100l-25 -18c-37 55 -109 89 -180 89c-149 0 -289 -128 -289 -296c0 -132 98 -220 231 -220c66 0 129 22 180 71l20 -22c-63 -55 -127 -78 -200 -78z" />
    <glyph glyph-name="Ccaron.smcp" unicode="&#xf672;" horiz-adv-x="580" 
d="M447 606h-36l-69 144h26l64 -120l115 120h30zM325 -12c-152 0 -265 95 -265 249c0 177 152 325 323 325c82 0 162 -38 205 -100l-25 -18c-37 55 -109 89 -180 89c-149 0 -289 -128 -289 -296c0 -132 98 -220 231 -220c66 0 129 22 180 71l20 -22
c-63 -55 -127 -78 -200 -78z" />
    <glyph glyph-name="Ccedilla.smcp" unicode="&#xf7e7;" horiz-adv-x="580" 
d="M266 -187c-43 0 -77 15 -99 36l20 25c21 -24 53 -34 82 -34c49 0 71 26 71 56c0 22 -16 36 -43 36c-14 0 -29 -6 -40 -19l-19 13l38 66c-127 17 -216 108 -216 245c0 177 152 325 323 325c82 0 162 -38 205 -100l-25 -18c-37 55 -109 89 -180 89
c-149 0 -289 -128 -289 -296c0 -132 98 -220 231 -220c66 0 129 22 180 71l20 -22c-63 -55 -127 -78 -200 -78c-7 0 -14 0 -21 1l-27 -47c11 9 22 12 35 12c34 0 57 -20 57 -56c0 -49 -40 -85 -103 -85z" />
    <glyph glyph-name="Ccircumflex.smcp" unicode="&#xf673;" horiz-adv-x="580" 
d="M546 606h-26l-65 120l-114 -120h-30l130 144h36zM325 -12c-152 0 -265 95 -265 249c0 177 152 325 323 325c82 0 162 -38 205 -100l-25 -18c-37 55 -109 89 -180 89c-149 0 -289 -128 -289 -296c0 -132 98 -220 231 -220c66 0 129 22 180 71l20 -22
c-63 -55 -127 -78 -200 -78z" />
    <glyph glyph-name="Cdotaccent.smcp" unicode="&#xf674;" horiz-adv-x="580" 
d="M325 -12c-152 0 -265 95 -265 249c0 177 152 325 323 325c82 0 162 -38 205 -100l-25 -18c-37 55 -109 89 -180 89c-149 0 -289 -128 -289 -296c0 -132 98 -220 231 -220c66 0 129 22 180 71l20 -22c-63 -55 -127 -78 -200 -78zM464 648c0 -18 -15 -32 -32 -32
c-15 0 -26 11 -26 26c0 17 14 32 32 32c15 0 26 -11 26 -26z" />
    <glyph glyph-name="Dcaron.smcp" unicode="&#xf675;" horiz-adv-x="606" 
d="M414 606h-36l-69 144h26l64 -120l115 120h30zM215 0h-183l121 550h156c155 0 250 -115 250 -239c0 -152 -120 -311 -344 -311zM215 29h6c195 0 303 142 303 282c0 120 -87 210 -221 210h-124l-109 -492h145z" />
    <glyph glyph-name="Dcroat.smcp" unicode="&#xf676;" horiz-adv-x="606" 
d="M215 0h-183l59 268h-71l6 27h71l56 255h156c155 0 250 -115 250 -239c0 -152 -120 -311 -344 -311zM221 29c195 0 303 142 303 282c0 120 -87 210 -221 210h-124l-50 -226h150l-6 -27h-150l-53 -239h151z" />
    <glyph glyph-name="uni1E0A.smcp" horiz-adv-x="606" 
d="M215 0h-183l121 550h156c155 0 250 -115 250 -239c0 -152 -120 -311 -344 -311zM215 29h6c195 0 303 142 303 282c0 120 -87 210 -221 210h-124l-109 -492h145zM430 648c0 -18 -15 -32 -32 -32c-15 0 -26 11 -26 26c0 17 14 32 32 32c15 0 26 -11 26 -26z" />
    <glyph glyph-name="Eacute.smcp" unicode="&#xf7e9;" horiz-adv-x="500" 
d="M527 750l-207 -144h-32l192 144h47zM386 0h-354l121 550h354l-6 -29h-322l-50 -223h317l-6 -29h-317l-53 -240h322z" />
    <glyph glyph-name="Ebreve.smcp" unicode="&#xf677;" horiz-adv-x="500" 
d="M386 0h-354l121 550h354l-6 -29h-322l-50 -223h317l-6 -29h-317l-53 -240h322zM528 682c-52 -54 -122 -88 -194 -88c-71 0 -128 34 -157 88l23 19c25 -49 73 -80 138 -80s127 31 172 80z" />
    <glyph glyph-name="Ecaron.smcp" unicode="&#xf678;" horiz-adv-x="500" 
d="M364 606h-36l-69 144h26l64 -120l115 120h30zM386 0h-354l121 550h354l-6 -29h-322l-50 -223h317l-6 -29h-317l-53 -240h322z" />
    <glyph glyph-name="Ecircumflex.smcp" unicode="&#xf7ea;" horiz-adv-x="500" 
d="M461 606h-26l-65 120l-114 -120h-30l130 144h36zM386 0h-354l121 550h354l-6 -29h-322l-50 -223h317l-6 -29h-317l-53 -240h322z" />
    <glyph glyph-name="Edieresis.smcp" unicode="&#xf7eb;" horiz-adv-x="500" 
d="M482 651c0 -17 -14 -31 -31 -31c-14 0 -25 11 -25 25c0 17 14 31 31 31c14 0 25 -11 25 -25zM280 651c0 -17 -14 -31 -31 -31c-14 0 -25 11 -25 25c0 17 14 31 31 31c14 0 25 -11 25 -25zM386 0h-354l121 550h354l-6 -29h-322l-50 -223h317l-6 -29h-317l-53 -240h322z
" />
    <glyph glyph-name="Edotaccent.smcp" unicode="&#xf679;" horiz-adv-x="500" 
d="M386 0h-354l121 550h354l-6 -29h-322l-50 -223h317l-6 -29h-317l-53 -240h322zM382 648c0 -18 -15 -32 -32 -32c-15 0 -26 11 -26 26c0 17 14 32 32 32c15 0 26 -11 26 -26z" />
    <glyph glyph-name="Egrave.smcp" unicode="&#xf7e8;" horiz-adv-x="500" 
d="M386 0h-354l121 550h354l-6 -29h-322l-50 -223h317l-6 -29h-317l-53 -240h322zM395 606h-30l-143 144h45z" />
    <glyph glyph-name="Emacron.smcp" unicode="&#xf67a;" horiz-adv-x="500" 
d="M386 0h-354l121 550h354l-6 -29h-322l-50 -223h317l-6 -29h-317l-53 -240h322zM530 631h-362l6 27h362z" />
    <glyph glyph-name="Eogonek.smcp" unicode="&#xf67c;" horiz-adv-x="500" 
d="M390 -113l21 -13c-17 -31 -43 -60 -88 -60c-42 0 -72 24 -72 68c0 52 33 90 82 118h-301l121 550h354l-6 -29h-322l-50 -223h317l-6 -29h-317l-53 -240h322l-6 -29c-63 -27 -108 -63 -108 -113c0 -31 20 -46 50 -46c27 0 47 16 62 46z" />
    <glyph glyph-name="uni1EB8.smcp" horiz-adv-x="500" 
d="M386 0h-354l121 550h354l-6 -29h-322l-50 -223h317l-6 -29h-317l-53 -240h322zM207 -141c0 -18 -15 -32 -32 -32c-15 0 -26 11 -26 26c0 17 14 32 32 32c15 0 26 -11 26 -26z" />
    <glyph glyph-name="uni1EBA.smcp" horiz-adv-x="500" 
d="M386 0h-354l121 550h354l-6 -29h-322l-50 -223h317l-6 -29h-317l-53 -240h322zM308 647l-20 11c14 26 40 45 68 45c33 0 61 -21 61 -57c0 -25 -11 -47 -33 -66h-30c26 22 39 39 39 66c0 23 -19 35 -37 35s-35 -9 -48 -34z" />
    <glyph glyph-name="uni1EBC.smcp" horiz-adv-x="500" 
d="M386 0h-354l121 550h354l-6 -29h-322l-50 -223h317l-6 -29h-317l-53 -240h322zM413 604c-77 0 -54 113 -116 113c-33 0 -59 -32 -76 -107h-27c15 72 52 134 109 134c77 0 54 -113 116 -113c33 0 59 32 77 107h27c-15 -72 -53 -134 -110 -134z" />
    <glyph glyph-name="uni1EBE.smcp" horiz-adv-x="500" 
d="M461 606h-26l-65 120l-114 -120h-30l130 144h36zM674 820l-207 -144h-32l192 144h47zM386 0h-354l121 550h354l-6 -29h-322l-50 -223h317l-6 -29h-317l-53 -240h322z" />
    <glyph glyph-name="uni1EC0.smcp" horiz-adv-x="500" 
d="M461 606h-26l-65 120l-114 -120h-30l130 144h36zM386 0h-354l121 550h354l-6 -29h-322l-50 -223h317l-6 -29h-317l-53 -240h322zM280 676h-30l-143 144h45z" />
    <glyph glyph-name="uni1EC2.smcp" horiz-adv-x="500" 
d="M461 606h-26l-65 120l-114 -120h-30l130 144h36zM386 0h-354l121 550h354l-6 -29h-322l-50 -223h317l-6 -29h-317l-53 -240h322zM382 784l-20 11c14 26 40 45 68 45c33 0 61 -21 61 -57c0 -25 -11 -47 -33 -66h-30c26 22 39 39 39 66c0 23 -19 35 -37 35s-35 -9 -48 -34z
" />
    <glyph glyph-name="uni1EC4.smcp" horiz-adv-x="500" 
d="M454 573h-26l-65 120l-114 -120h-30l130 144h36zM386 0h-354l121 550h354l-6 -29h-322l-50 -223h317l-6 -29h-317l-53 -240h322zM441 732c-77 0 -54 113 -116 113c-33 0 -59 -32 -76 -107h-27c15 72 52 134 109 134c77 0 54 -113 116 -113c33 0 59 32 77 107h27
c-15 -72 -53 -134 -110 -134z" />
    <glyph glyph-name="uni1EC6.smcp" horiz-adv-x="500" 
d="M461 606h-26l-65 120l-114 -120h-30l130 144h36zM386 0h-354l121 550h354l-6 -29h-322l-50 -223h317l-6 -29h-317l-53 -240h322zM207 -141c0 -18 -15 -32 -32 -32c-15 0 -26 11 -26 26c0 17 14 32 32 32c15 0 26 -11 26 -26z" />
    <glyph glyph-name="uni1E1E.smcp" horiz-adv-x="476" 
d="M382 648c0 -18 -15 -32 -32 -32c-15 0 -26 11 -26 26c0 17 14 32 32 32c15 0 26 -11 26 -26zM64 0h-32l121 550h354l-6 -29h-322l-50 -223h317l-6 -29h-317z" />
    <glyph glyph-name="Gbreve.smcp" unicode="&#xf67d;" horiz-adv-x="634" 
d="M325 -12c-149 0 -266 96 -266 244c0 172 140 330 324 330c87 0 167 -41 215 -102l-25 -20c-35 49 -110 93 -190 93c-165 0 -289 -143 -289 -301c0 -126 100 -216 231 -216c72 0 129 26 163 50l38 172h-203l6 29h235l-47 -216c-44 -33 -106 -63 -192 -63zM613 682
c-52 -54 -122 -88 -194 -88c-71 0 -128 34 -157 88l23 19c25 -49 73 -80 138 -80s127 31 172 80z" />
    <glyph glyph-name="Gcircumflex.smcp" unicode="&#xf67e;" horiz-adv-x="634" 
d="M325 -12c-149 0 -266 96 -266 244c0 172 140 330 324 330c87 0 167 -41 215 -102l-25 -20c-35 49 -110 93 -190 93c-165 0 -289 -143 -289 -301c0 -126 100 -216 231 -216c72 0 129 26 163 50l38 172h-203l6 29h235l-47 -216c-44 -33 -106 -63 -192 -63zM547 606h-26
l-65 120l-114 -120h-30l130 144h36z" />
    <glyph glyph-name="Gcommaaccent.smcp" unicode="&#xf67f;" horiz-adv-x="634" 
d="M325 -12c-149 0 -266 96 -266 244c0 172 140 330 324 330c87 0 167 -41 215 -102l-25 -20c-35 49 -110 93 -190 93c-165 0 -289 -143 -289 -301c0 -126 100 -216 231 -216c72 0 129 26 163 50l38 172h-203l6 29h235l-47 -216c-44 -33 -106 -63 -192 -63zM302 -122
c0 -51 -45 -106 -89 -130l-18 20c37 20 65 54 72 84h-6c-14 0 -26 14 -26 28c0 20 16 36 35 36s32 -13 32 -38z" />
    <glyph glyph-name="Gdotaccent.smcp" unicode="&#xf680;" horiz-adv-x="634" 
d="M325 -12c-149 0 -266 96 -266 244c0 172 140 330 324 330c87 0 167 -41 215 -102l-25 -20c-35 49 -110 93 -190 93c-165 0 -289 -143 -289 -301c0 -126 100 -216 231 -216c72 0 129 26 163 50l38 172h-203l6 29h235l-47 -216c-44 -33 -106 -63 -192 -63zM467 648
c0 -18 -15 -32 -32 -32c-15 0 -26 11 -26 26c0 17 14 32 32 32c15 0 26 -11 26 -26z" />
    <glyph glyph-name="Gbreve.smcp.alt1" horiz-adv-x="652" 
d="M329 -12c-161 0 -269 104 -269 243c0 190 153 331 320 331c87 0 163 -31 223 -106l-25 -21c-43 63 -119 98 -195 98c-145 0 -289 -120 -289 -297c0 -132 105 -220 231 -220c118 0 227 89 253 222h-255l6 28h284c-12 -144 -130 -278 -284 -278zM615 682
c-52 -54 -122 -88 -194 -88c-71 0 -128 34 -157 88l23 19c25 -49 73 -80 138 -80s127 31 172 80z" />
    <glyph glyph-name="Gcommaaccent.smcp.alt1" horiz-adv-x="652" 
d="M302 -122c0 -51 -45 -106 -89 -130l-18 20c37 20 65 54 72 84h-6c-14 0 -26 14 -26 28c0 20 16 36 35 36s32 -13 32 -38zM329 -12c-161 0 -269 104 -269 243c0 190 153 331 320 331c87 0 163 -31 223 -106l-25 -21c-43 63 -119 98 -195 98c-145 0 -289 -120 -289 -297
c0 -132 105 -220 231 -220c118 0 227 89 253 222h-255l6 28h284c-12 -144 -130 -278 -284 -278z" />
    <glyph glyph-name="Gcircumflex.smcp.alt1" horiz-adv-x="652" 
d="M547 606h-26l-65 120l-114 -120h-30l130 144h36zM329 -12c-161 0 -269 104 -269 243c0 190 153 331 320 331c87 0 163 -31 223 -106l-25 -21c-43 63 -119 98 -195 98c-145 0 -289 -120 -289 -297c0 -132 105 -220 231 -220c118 0 227 89 253 222h-255l6 28h284
c-12 -144 -130 -278 -284 -278z" />
    <glyph glyph-name="Gdotaccent.smcp.alt1" horiz-adv-x="652" 
d="M329 -12c-161 0 -269 104 -269 243c0 190 153 331 320 331c87 0 163 -31 223 -106l-25 -21c-43 63 -119 98 -195 98c-145 0 -289 -120 -289 -297c0 -132 105 -220 231 -220c118 0 227 89 253 222h-255l6 28h284c-12 -144 -130 -278 -284 -278zM467 648
c0 -18 -15 -32 -32 -32c-15 0 -26 11 -26 26c0 17 14 32 32 32c15 0 26 -11 26 -26z" />
    <glyph glyph-name="Hbar.smcp" unicode="&#xf682;" horiz-adv-x="645" 
d="M494 0h-31l59 269h-387l-59 -269h-32l90 411h-85l6 27h85l25 112h32l-25 -112h387l25 112h31l-25 -112h84l-6 -27h-84zM141 298h387l25 113h-387z" />
    <glyph glyph-name="Hcircumflex.smcp" unicode="&#xf681;" horiz-adv-x="622" 
d="M507 606h-26l-65 120l-114 -120h-30l130 144h36zM482 0h-31l59 269h-387l-59 -269h-32l121 550h32l-56 -252h387l56 252h31z" />
    <glyph glyph-name="uni1E22.smcp" horiz-adv-x="622" 
d="M482 0h-31l59 269h-387l-59 -269h-32l121 550h32l-56 -252h387l56 252h31zM428 648c0 -18 -15 -32 -32 -32c-15 0 -26 11 -26 26c0 17 14 32 32 32c15 0 26 -11 26 -26z" />
    <glyph glyph-name="Iacute.smcp" unicode="&#xf7ed;" horiz-adv-x="204" 
d="M367 750l-207 -144h-32l192 144h47zM64 0h-32l121 550h32z" />
    <glyph glyph-name="Ibreve.smcp" unicode="&#xf683;" horiz-adv-x="204" 
d="M64 0h-32l121 550h32zM367 682c-52 -54 -122 -88 -194 -88c-71 0 -128 34 -157 88l23 19c25 -49 73 -80 138 -80s127 31 172 80z" />
    <glyph glyph-name="Igrave.smcp" unicode="&#xf7ec;" horiz-adv-x="204" 
d="M64 0h-32l121 550h32zM233 606h-30l-143 144h45z" />
    <glyph glyph-name="Icircumflex.smcp" unicode="&#xf7ee;" horiz-adv-x="204" 
d="M302 606h-26l-65 120l-114 -120h-30l130 144h36zM64 0h-32l121 550h32z" />
    <glyph glyph-name="Idieresis.smcp" unicode="&#xf7ef;" horiz-adv-x="204" 
d="M321 651c0 -17 -14 -31 -31 -31c-14 0 -25 11 -25 25c0 17 14 31 31 31c14 0 25 -11 25 -25zM119 651c0 -17 -14 -31 -31 -31c-14 0 -25 11 -25 25c0 17 14 31 31 31c14 0 25 -11 25 -25zM64 0h-32l121 550h32z" />
    <glyph glyph-name="Idotaccent.smcp" unicode="&#xf6ad;" horiz-adv-x="204" 
d="M64 0h-32l121 550h32zM220 648c0 -18 -15 -32 -32 -32c-15 0 -26 11 -26 26c0 17 14 32 32 32c15 0 26 -11 26 -26z" />
    <glyph glyph-name="Imacron.smcp" unicode="&#xf685;" horiz-adv-x="204" 
d="M369 631h-362l6 27h362zM64 0h-32l121 550h32z" />
    <glyph glyph-name="Iogonek.smcp" unicode="&#xf686;" horiz-adv-x="204" 
d="M64 0c-63 -27 -108 -63 -108 -113c0 -31 20 -46 50 -46c27 0 47 16 62 46l21 -13c-17 -31 -43 -60 -88 -60c-42 0 -72 24 -72 68c0 60 45 102 106 131l118 537h32z" />
    <glyph glyph-name="Itilde.smcp" unicode="&#xf687;" horiz-adv-x="204" 
d="M64 0h-32l121 550h32zM251 604c-77 0 -54 113 -116 113c-33 0 -59 -32 -76 -107h-27c15 72 52 134 109 134c77 0 54 -113 116 -113c33 0 59 32 77 107h27c-15 -72 -53 -134 -110 -134z" />
    <glyph glyph-name="uni1EC8.smcp" horiz-adv-x="204" 
d="M64 0h-32l121 550h32zM147 647l-20 11c14 26 40 45 68 45c33 0 61 -21 61 -57c0 -25 -11 -47 -33 -66h-30c26 22 39 39 39 66c0 23 -19 35 -37 35s-35 -9 -48 -34z" />
    <glyph glyph-name="uni1ECA.smcp" horiz-adv-x="204" 
d="M64 0h-32l121 550h32zM45 -141c0 -18 -15 -32 -32 -32c-15 0 -26 11 -26 26c0 17 14 32 32 32c15 0 26 -11 26 -26z" />
    <glyph glyph-name="IJ.smcp" unicode="&#xf684;" horiz-adv-x="616" 
d="M325 -12c-73 0 -122 30 -147 80l29 18c23 -44 59 -69 118 -69c89 0 134 55 152 134l88 399h32l-88 -399c-24 -110 -87 -163 -184 -163zM64 0h-32l121 550h32z" />
    <glyph glyph-name="Jcircumflex.smcp" unicode="&#xf688;" horiz-adv-x="412" 
d="M507 606h-26l-65 120l-114 -120h-30l130 144h36zM121 -12c-73 0 -122 30 -147 80l29 18c23 -44 59 -69 118 -69c89 0 134 55 152 134l88 399h32l-88 -399c-24 -110 -87 -163 -184 -163z" />
    <glyph glyph-name="Kcommaaccent.smcp" unicode="&#xf689;" horiz-adv-x="507" 
d="M222 -122c0 -51 -45 -106 -89 -130l-18 20c37 20 65 54 72 84h-6c-14 0 -26 14 -26 28c0 20 16 36 35 36s32 -13 32 -38zM428 0h-41l-197 269l-83 -71l-43 -198h-32l121 550h32l-68 -309l361 309h45l-310 -263z" />
    <glyph glyph-name="Lacute.smcp" unicode="&#xf68a;" horiz-adv-x="449" 
d="M352 0h-320l121 550h32l-115 -521h288zM514 750l-207 -144h-32l192 144h47z" />
    <glyph glyph-name="Lcaron.smcp" unicode="&#xf68b;" horiz-adv-x="449" 
d="M344 522c0 -51 -45 -106 -89 -130l-18 20c37 20 65 54 72 84h-6c-14 0 -26 14 -26 28c0 20 16 36 35 36s32 -13 32 -38zM352 0h-320l121 550h32l-115 -521h288z" />
    <glyph glyph-name="Lcommaaccent.smcp" unicode="&#xf68c;" horiz-adv-x="449" 
d="M202 -122c0 -51 -45 -106 -89 -130l-18 20c37 20 65 54 72 84h-6c-14 0 -26 14 -26 28c0 20 16 36 35 36s32 -13 32 -38zM352 0h-320l121 550h32l-115 -521h288z" />
    <glyph glyph-name="Ldot.smcp" unicode="&#xf68d;" horiz-adv-x="449" 
d="M352 0h-320l121 550h32l-115 -521h288zM337 252c-17 0 -30 13 -30 30c0 20 16 35 36 35c17 0 30 -13 30 -30c0 -20 -16 -35 -36 -35z" />
    <glyph glyph-name="Lslash.smcp" unicode="&#xf6f9;" horiz-adv-x="483" 
d="M1 198l8 34l122 62l56 256h32l-53 -237l121 62l-8 -34l-120 -62l-55 -250h288l-6 -29h-320l57 261z" />
    <glyph glyph-name="Nacute.smcp" unicode="&#xf68e;" horiz-adv-x="618" 
d="M576 750l-207 -144h-32l192 144h47zM478 0h-30l-273 505l-111 -505h-32l121 550h30l274 -499l110 499h32z" />
    <glyph glyph-name="Ncaron.smcp" unicode="&#xf68f;" horiz-adv-x="618" 
d="M409 606h-36l-69 144h26l64 -120l115 120h30zM478 0h-30l-273 505l-111 -505h-32l121 550h30l274 -499l110 499h32z" />
    <glyph glyph-name="Ncommaaccent.smcp" unicode="&#xf690;" horiz-adv-x="618" 
d="M262 -122c0 -51 -45 -106 -89 -130l-18 20c37 20 65 54 72 84h-6c-14 0 -26 14 -26 28c0 20 16 36 35 36s32 -13 32 -38zM478 0h-30l-273 505l-111 -505h-32l121 550h30l274 -499l110 499h32z" />
    <glyph glyph-name="Ntilde.smcp" unicode="&#xf7f1;" horiz-adv-x="618" 
d="M478 0h-30l-273 505l-111 -505h-32l121 550h30l274 -499l110 499h32zM461 604c-77 0 -54 113 -116 113c-33 0 -59 -32 -76 -107h-27c15 72 52 134 109 134c77 0 54 -113 116 -113c33 0 59 32 77 107h27c-15 -72 -53 -134 -110 -134z" />
    <glyph glyph-name="Eng.smcp" unicode="&#xf67b;" horiz-adv-x="618" 
d="M286 -196c-66 0 -119 24 -147 80l29 18c22 -43 58 -69 118 -69c91 0 136 58 152 134l8 37l-271 501l-111 -505h-32l121 550h30l274 -499l110 499h32l-129 -586c-23 -107 -89 -160 -184 -160z" />
    <glyph glyph-name="Oacute.smcp" unicode="&#xf7f3;" horiz-adv-x="669" 
d="M313 -12c-161 0 -253 105 -253 249c0 169 131 325 308 325c161 0 253 -105 253 -249c0 -169 -131 -325 -308 -325zM313 17c164 0 275 142 275 296c0 125 -80 220 -220 220c-164 0 -275 -142 -275 -296c0 -125 80 -220 220 -220zM600 750l-207 -144h-32l192 144h47z" />
    <glyph glyph-name="Obreve.smcp" unicode="&#xf691;" horiz-adv-x="669" 
d="M313 -12c-161 0 -253 105 -253 249c0 169 131 325 308 325c161 0 253 -105 253 -249c0 -169 -131 -325 -308 -325zM313 17c164 0 275 142 275 296c0 125 -80 220 -220 220c-164 0 -275 -142 -275 -296c0 -125 80 -220 220 -220zM600 682c-52 -54 -122 -88 -194 -88
c-71 0 -128 34 -157 88l23 19c25 -49 73 -80 138 -80s127 31 172 80z" />
    <glyph glyph-name="Ocircumflex.smcp" unicode="&#xf7f4;" horiz-adv-x="669" 
d="M313 -12c-161 0 -253 105 -253 249c0 169 131 325 308 325c161 0 253 -105 253 -249c0 -169 -131 -325 -308 -325zM313 17c164 0 275 142 275 296c0 125 -80 220 -220 220c-164 0 -275 -142 -275 -296c0 -125 80 -220 220 -220zM534 606h-26l-65 120l-114 -120h-30
l130 144h36z" />
    <glyph glyph-name="Odieresis.smcp" unicode="&#xf7f6;" horiz-adv-x="669" 
d="M313 -12c-161 0 -253 105 -253 249c0 169 131 325 308 325c161 0 253 -105 253 -249c0 -169 -131 -325 -308 -325zM313 17c164 0 275 142 275 296c0 125 -80 220 -220 220c-164 0 -275 -142 -275 -296c0 -125 80 -220 220 -220zM554 651c0 -17 -14 -31 -31 -31
c-14 0 -25 11 -25 25c0 17 14 31 31 31c14 0 25 -11 25 -25zM352 651c0 -17 -14 -31 -31 -31c-14 0 -25 11 -25 25c0 17 14 31 31 31c14 0 25 -11 25 -25z" />
    <glyph glyph-name="Ograve.smcp" unicode="&#xf7f2;" horiz-adv-x="669" 
d="M313 -12c-161 0 -253 105 -253 249c0 169 131 325 308 325c161 0 253 -105 253 -249c0 -169 -131 -325 -308 -325zM313 17c164 0 275 142 275 296c0 125 -80 220 -220 220c-164 0 -275 -142 -275 -296c0 -125 80 -220 220 -220zM466 606h-30l-143 144h45z" />
    <glyph glyph-name="Ohungarumlaut.smcp" unicode="&#xf692;" horiz-adv-x="669" 
d="M313 -12c-161 0 -253 105 -253 249c0 169 131 325 308 325c161 0 253 -105 253 -249c0 -169 -131 -325 -308 -325zM313 17c164 0 275 142 275 296c0 125 -80 220 -220 220c-164 0 -275 -142 -275 -296c0 -125 80 -220 220 -220zM492 750l-147 -144h-28l132 144h43z
M628 750l-147 -144h-28l132 144h43z" />
    <glyph glyph-name="Omacron.smcp" unicode="&#xf693;" horiz-adv-x="669" 
d="M313 -12c-161 0 -253 105 -253 249c0 169 131 325 308 325c161 0 253 -105 253 -249c0 -169 -131 -325 -308 -325zM313 17c164 0 275 142 275 296c0 125 -80 220 -220 220c-164 0 -275 -142 -275 -296c0 -125 80 -220 220 -220zM601 631h-362l6 27h362z" />
    <glyph glyph-name="Otilde.smcp" unicode="&#xf7f5;" horiz-adv-x="669" 
d="M313 -12c-161 0 -253 105 -253 249c0 169 131 325 308 325c161 0 253 -105 253 -249c0 -169 -131 -325 -308 -325zM313 17c164 0 275 142 275 296c0 125 -80 220 -220 220c-164 0 -275 -142 -275 -296c0 -125 80 -220 220 -220zM486 604c-77 0 -54 113 -116 113
c-33 0 -59 -32 -76 -107h-27c15 72 52 134 109 134c77 0 54 -113 116 -113c33 0 59 32 77 107h27c-15 -72 -53 -134 -110 -134z" />
    <glyph glyph-name="Oslash.smcp" unicode="&#xf7f8;" horiz-adv-x="669" 
d="M313 -12c-70 0 -127 20 -169 54l-38 -42h-38l56 61c-42 44 -64 105 -64 176c0 169 131 325 308 325c68 0 124 -19 166 -52l37 40h38l-54 -59c43 -44 66 -106 66 -178c0 -169 -131 -325 -308 -325zM313 17c164 0 275 142 275 296c0 61 -19 115 -55 154l-367 -402
c36 -30 86 -48 147 -48zM93 237c0 -60 18 -113 53 -152l367 401c-37 30 -86 47 -145 47c-164 0 -275 -142 -275 -296z" />
    <glyph glyph-name="Oslashacute.smcp" unicode="&#xf694;" horiz-adv-x="669" 
d="M313 -12c-70 0 -127 20 -169 54l-38 -42h-38l56 61c-42 44 -64 105 -64 176c0 169 131 325 308 325c68 0 124 -19 166 -52l37 40h38l-54 -59c43 -44 66 -106 66 -178c0 -169 -131 -325 -308 -325zM313 17c164 0 275 142 275 296c0 61 -19 115 -55 154l-367 -402
c36 -30 86 -48 147 -48zM93 237c0 -60 18 -113 53 -152l367 401c-37 30 -86 47 -145 47c-164 0 -275 -142 -275 -296zM600 750l-207 -144h-32l192 144h47z" />
    <glyph glyph-name="uni1ECC.smcp" horiz-adv-x="669" 
d="M313 -12c-161 0 -253 105 -253 249c0 169 131 325 308 325c161 0 253 -105 253 -249c0 -169 -131 -325 -308 -325zM313 17c164 0 275 142 275 296c0 125 -80 220 -220 220c-164 0 -275 -142 -275 -296c0 -125 80 -220 220 -220zM278 -141c0 -18 -15 -32 -32 -32
c-15 0 -26 11 -26 26c0 17 14 32 32 32c15 0 26 -11 26 -26z" />
    <glyph glyph-name="uni1ECE.smcp" horiz-adv-x="669" 
d="M313 -12c-161 0 -253 105 -253 249c0 169 131 325 308 325c161 0 253 -105 253 -249c0 -169 -131 -325 -308 -325zM313 17c164 0 275 142 275 296c0 125 -80 220 -220 220c-164 0 -275 -142 -275 -296c0 -125 80 -220 220 -220zM379 647l-20 11c14 26 40 45 68 45
c33 0 61 -21 61 -57c0 -25 -11 -47 -33 -66h-30c26 22 39 39 39 66c0 23 -19 35 -37 35s-35 -9 -48 -34z" />
    <glyph glyph-name="uni1ED0.smcp" horiz-adv-x="669" 
d="M313 -12c-161 0 -253 105 -253 249c0 169 131 325 308 325c161 0 253 -105 253 -249c0 -169 -131 -325 -308 -325zM313 17c164 0 275 142 275 296c0 125 -80 220 -220 220c-164 0 -275 -142 -275 -296c0 -125 80 -220 220 -220zM531 606h-26l-65 120l-114 -120h-30
l130 144h36zM744 820l-207 -144h-32l192 144h47z" />
    <glyph glyph-name="uni1ED2.smcp" horiz-adv-x="669" 
d="M313 -12c-161 0 -253 105 -253 249c0 169 131 325 308 325c161 0 253 -105 253 -249c0 -169 -131 -325 -308 -325zM313 17c164 0 275 142 275 296c0 125 -80 220 -220 220c-164 0 -275 -142 -275 -296c0 -125 80 -220 220 -220zM531 606h-26l-65 120l-114 -120h-30
l130 144h36zM350 676h-30l-143 144h45z" />
    <glyph glyph-name="uni1ED4.smcp" horiz-adv-x="669" 
d="M313 -12c-161 0 -253 105 -253 249c0 169 131 325 308 325c161 0 253 -105 253 -249c0 -169 -131 -325 -308 -325zM313 17c164 0 275 142 275 296c0 125 -80 220 -220 220c-164 0 -275 -142 -275 -296c0 -125 80 -220 220 -220zM532 606h-26l-65 120l-114 -120h-30
l130 144h36zM453 784l-20 11c14 26 40 45 68 45c33 0 61 -21 61 -57c0 -25 -11 -47 -33 -66h-30c26 22 39 39 39 66c0 23 -19 35 -37 35s-35 -9 -48 -34z" />
    <glyph glyph-name="uni1ED6.smcp" horiz-adv-x="669" 
d="M313 -12c-161 0 -253 105 -253 249c0 169 131 325 308 325c161 0 253 -105 253 -249c0 -169 -131 -325 -308 -325zM313 17c164 0 275 142 275 296c0 125 -80 220 -220 220c-164 0 -275 -142 -275 -296c0 -125 80 -220 220 -220zM524 573h-26l-65 120l-114 -120h-30
l130 144h36zM514 732c-77 0 -54 113 -116 113c-33 0 -59 -32 -76 -107h-27c15 72 52 134 109 134c77 0 54 -113 116 -113c33 0 59 32 77 107h27c-15 -72 -53 -134 -110 -134z" />
    <glyph glyph-name="uni1ED8.smcp" horiz-adv-x="669" 
d="M313 -12c-161 0 -253 105 -253 249c0 169 131 325 308 325c161 0 253 -105 253 -249c0 -169 -131 -325 -308 -325zM313 17c164 0 275 142 275 296c0 125 -80 220 -220 220c-164 0 -275 -142 -275 -296c0 -125 80 -220 220 -220zM532 606h-26l-65 120l-114 -120h-30
l130 144h36zM278 -141c0 -18 -15 -32 -32 -32c-15 0 -26 11 -26 26c0 17 14 32 32 32c15 0 26 -11 26 -26z" />
    <glyph glyph-name="Ohorn.smcp" horiz-adv-x="669" 
d="M313 -12c-161 0 -253 105 -253 249c0 169 131 325 308 325c100 0 174 -41 215 -107c33 20 58 52 65 80h-6c-14 0 -26 14 -26 28c0 20 16 36 35 36s32 -13 32 -38c0 -51 -44 -105 -87 -129c16 -35 25 -75 25 -119c0 -169 -131 -325 -308 -325zM313 17
c164 0 275 142 275 296c0 125 -80 220 -220 220c-164 0 -275 -142 -275 -296c0 -125 80 -220 220 -220z" />
    <glyph glyph-name="uni1EDA.smcp" horiz-adv-x="669" 
d="M313 -12c-161 0 -253 105 -253 249c0 169 131 325 308 325c100 0 174 -41 215 -107c33 20 58 52 65 80h-6c-14 0 -26 14 -26 28c0 20 16 36 35 36s32 -13 32 -38c0 -51 -44 -105 -87 -129c16 -35 25 -75 25 -119c0 -169 -131 -325 -308 -325zM313 17
c164 0 275 142 275 296c0 125 -80 220 -220 220c-164 0 -275 -142 -275 -296c0 -125 80 -220 220 -220zM600 750l-207 -144h-32l192 144h47z" />
    <glyph glyph-name="uni1EDC.smcp" horiz-adv-x="669" 
d="M313 -12c-161 0 -253 105 -253 249c0 169 131 325 308 325c100 0 174 -41 215 -107c33 20 58 52 65 80h-6c-14 0 -26 14 -26 28c0 20 16 36 35 36s32 -13 32 -38c0 -51 -44 -105 -87 -129c16 -35 25 -75 25 -119c0 -169 -131 -325 -308 -325zM313 17
c164 0 275 142 275 296c0 125 -80 220 -220 220c-164 0 -275 -142 -275 -296c0 -125 80 -220 220 -220zM466 606h-30l-143 144h45z" />
    <glyph glyph-name="uni1EDE.smcp" horiz-adv-x="669" 
d="M313 -12c-161 0 -253 105 -253 249c0 169 131 325 308 325c100 0 174 -41 215 -107c33 20 58 52 65 80h-6c-14 0 -26 14 -26 28c0 20 16 36 35 36s32 -13 32 -38c0 -51 -44 -105 -87 -129c16 -35 25 -75 25 -119c0 -169 -131 -325 -308 -325zM313 17
c164 0 275 142 275 296c0 125 -80 220 -220 220c-164 0 -275 -142 -275 -296c0 -125 80 -220 220 -220zM379 647l-20 11c14 26 40 45 68 45c33 0 61 -21 61 -57c0 -25 -11 -47 -33 -66h-30c26 22 39 39 39 66c0 23 -19 35 -37 35s-35 -9 -48 -34z" />
    <glyph glyph-name="uni1EE0.smcp" horiz-adv-x="669" 
d="M313 -12c-161 0 -253 105 -253 249c0 169 131 325 308 325c100 0 174 -41 215 -107c33 20 58 52 65 80h-6c-14 0 -26 14 -26 28c0 20 16 36 35 36s32 -13 32 -38c0 -51 -44 -105 -87 -129c16 -35 25 -75 25 -119c0 -169 -131 -325 -308 -325zM313 17
c164 0 275 142 275 296c0 125 -80 220 -220 220c-164 0 -275 -142 -275 -296c0 -125 80 -220 220 -220zM485 604c-77 0 -54 113 -116 113c-33 0 -59 -32 -76 -107h-27c15 72 52 134 109 134c77 0 54 -113 116 -113c33 0 59 32 77 107h27c-15 -72 -53 -134 -110 -134z" />
    <glyph glyph-name="uni1EE2.smcp" horiz-adv-x="669" 
d="M313 -12c-161 0 -253 105 -253 249c0 169 131 325 308 325c100 0 174 -41 215 -107c33 20 58 52 65 80h-6c-14 0 -26 14 -26 28c0 20 16 36 35 36s32 -13 32 -38c0 -51 -44 -105 -87 -129c16 -35 25 -75 25 -119c0 -169 -131 -325 -308 -325zM313 17
c164 0 275 142 275 296c0 125 -80 220 -220 220c-164 0 -275 -142 -275 -296c0 -125 80 -220 220 -220zM278 -141c0 -18 -15 -32 -32 -32c-15 0 -26 11 -26 26c0 17 14 32 32 32c15 0 26 -11 26 -26z" />
    <glyph glyph-name="OE.smcp" unicode="&#xf6fa;" horiz-adv-x="974" 
d="M860 0h-355l23 106c-56 -83 -133 -118 -215 -118c-158 0 -253 101 -253 249c0 168 129 325 308 325c99 0 190 -43 227 -157l31 145h355l-6 -29h-323l-50 -223h317l-6 -29h-317l-53 -240h323zM546 189l39 174c-27 125 -124 170 -217 170c-154 0 -275 -133 -275 -296
c0 -137 93 -220 220 -220c102 0 189 61 233 172z" />
    <glyph glyph-name="uni1E56.smcp" horiz-adv-x="496" 
d="M64 0h-32l121 550h180c98 0 160 -54 160 -133c0 -98 -73 -182 -195 -182h-182zM122 264h182c97 0 155 69 155 153c0 64 -48 104 -132 104h-148zM387 648c0 -18 -15 -32 -32 -32c-15 0 -26 11 -26 26c0 17 14 32 32 32c15 0 26 -11 26 -26z" />
    <glyph glyph-name="Racute.smcp" unicode="&#xf695;" horiz-adv-x="521" 
d="M535 750l-207 -144h-32l192 144h47zM413 0h-40l-121 235h-136l-52 -235h-32l121 550h184c92 0 157 -58 157 -136c0 -87 -56 -179 -206 -179zM290 264h9c106 0 161 68 161 150c0 65 -55 107 -129 107h-152l-57 -257h168z" />
    <glyph glyph-name="Rcaron.smcp" unicode="&#xf696;" horiz-adv-x="521" 
d="M369 606h-36l-69 144h26l64 -120l115 120h30zM413 0h-40l-121 235h-136l-52 -235h-32l121 550h184c92 0 157 -58 157 -136c0 -87 -56 -179 -206 -179zM290 264h9c106 0 161 68 161 150c0 65 -55 107 -129 107h-152l-57 -257h168z" />
    <glyph glyph-name="Rcommaaccent.smcp" unicode="&#xf697;" horiz-adv-x="521" 
d="M222 -122c0 -51 -45 -106 -89 -130l-18 20c37 20 65 54 72 84h-6c-14 0 -26 14 -26 28c0 20 16 36 35 36s32 -13 32 -38zM413 0h-40l-121 235h-136l-52 -235h-32l121 550h184c92 0 157 -58 157 -136c0 -87 -56 -179 -206 -179zM290 264h9c106 0 161 68 161 150
c0 65 -55 107 -129 107h-152l-57 -257h168z" />
    <glyph glyph-name="Sacute.smcp" unicode="&#xf698;" horiz-adv-x="494" 
d="M517 750l-207 -144h-32l192 144h47zM232 -12c-90 0 -170 31 -215 98l29 18c34 -52 105 -87 186 -87c121 0 160 69 160 131c0 143 -295 109 -295 266c0 87 93 148 189 148c85 0 154 -37 188 -88l-26 -19c-30 51 -96 78 -162 78c-82 0 -154 -50 -154 -119
c0 -128 295 -94 295 -266c0 -76 -53 -160 -195 -160z" />
    <glyph glyph-name="Scaron.smcp" unicode="&#xf6fd;" horiz-adv-x="494" 
d="M353 606h-36l-69 144h26l64 -120l115 120h30zM232 -12c-90 0 -170 31 -215 98l29 18c34 -52 105 -87 186 -87c121 0 160 69 160 131c0 143 -295 109 -295 266c0 87 93 148 189 148c85 0 154 -37 188 -88l-26 -19c-30 51 -96 78 -162 78c-82 0 -154 -50 -154 -119
c0 -128 295 -94 295 -266c0 -76 -53 -160 -195 -160z" />
    <glyph glyph-name="Scircumflex.smcp" unicode="&#xf69a;" horiz-adv-x="494" 
d="M450 606h-26l-65 120l-114 -120h-30l130 144h36zM232 -12c-90 0 -170 31 -215 98l29 18c34 -52 105 -87 186 -87c121 0 160 69 160 131c0 143 -295 109 -295 266c0 87 93 148 189 148c85 0 154 -37 188 -88l-26 -19c-30 51 -96 78 -162 78c-82 0 -154 -50 -154 -119
c0 -128 295 -94 295 -266c0 -76 -53 -160 -195 -160z" />
    <glyph glyph-name="Scedilla.smcp" unicode="&#xf699;" horiz-adv-x="494" 
d="M162 -187c-43 0 -77 15 -99 36l20 25c21 -24 53 -34 82 -34c49 0 71 26 71 56c0 22 -16 36 -43 36c-14 0 -29 -6 -40 -19l-19 13l39 67c-65 11 -121 41 -156 93l29 18c34 -52 105 -87 186 -87c121 0 160 69 160 131c0 143 -295 109 -295 266c0 87 93 148 189 148
c85 0 154 -37 188 -88l-26 -19c-30 51 -96 78 -162 78c-82 0 -154 -50 -154 -119c0 -128 295 -94 295 -266c0 -76 -53 -160 -195 -160c-11 0 -21 1 -31 2l-28 -48c11 9 22 12 35 12c34 0 57 -20 57 -56c0 -49 -40 -85 -103 -85z" />
    <glyph glyph-name="Scommaaccent.smcp" unicode="&#xf69b;" horiz-adv-x="494" 
d="M206 -122c0 -51 -45 -106 -89 -130l-18 20c37 20 65 54 72 84h-6c-14 0 -26 14 -26 28c0 20 16 36 35 36s32 -13 32 -38zM232 -12c-90 0 -170 31 -215 98l29 18c34 -52 105 -87 186 -87c121 0 160 69 160 131c0 143 -295 109 -295 266c0 87 93 148 189 148
c85 0 154 -37 188 -88l-26 -19c-30 51 -96 78 -162 78c-82 0 -154 -50 -154 -119c0 -128 295 -94 295 -266c0 -76 -53 -160 -195 -160z" />
    <glyph glyph-name="uni1E60.smcp" horiz-adv-x="494" 
d="M232 -12c-90 0 -170 31 -215 98l29 18c34 -52 105 -87 186 -87c121 0 160 69 160 131c0 143 -295 109 -295 266c0 87 93 148 189 148c85 0 154 -37 188 -88l-26 -19c-30 51 -96 78 -162 78c-82 0 -154 -50 -154 -119c0 -128 295 -94 295 -266c0 -76 -53 -160 -195 -160z
M371 648c0 -18 -15 -32 -32 -32c-15 0 -26 11 -26 26c0 17 14 32 32 32c15 0 26 -11 26 -26z" />
    <glyph glyph-name="Tbar.smcp" unicode="&#xf69c;" horiz-adv-x="459" 
d="M191 0h-32l60 271h-128l6 27h128l49 223h-182l6 29h397l-6 -29h-183l-49 -223h130l-6 -27h-130z" />
    <glyph glyph-name="Tcaron.smcp" unicode="&#xf69d;" horiz-adv-x="459" 
d="M329 606h-36l-69 144h26l64 -120l115 120h30zM191 0h-32l115 521h-182l6 29h397l-6 -29h-183z" />
    <glyph glyph-name="Tcommaaccent.smcp" unicode="&#xf69e;" horiz-adv-x="459" 
d="M182 -122c0 -51 -45 -106 -89 -130l-18 20c37 20 65 54 72 84h-6c-14 0 -26 14 -26 28c0 20 16 36 35 36s32 -13 32 -38zM191 0h-32l115 521h-182l6 29h397l-6 -29h-183z" />
    <glyph glyph-name="uni021A.smcp" horiz-adv-x="459" 
d="M182 -122c0 -51 -45 -106 -89 -130l-18 20c37 20 65 54 72 84h-6c-14 0 -26 14 -26 28c0 20 16 36 35 36s32 -13 32 -38zM191 0h-32l115 521h-182l6 29h397l-6 -29h-183z" />
    <glyph glyph-name="uni1E6A.smcp" horiz-adv-x="459" 
d="M191 0h-32l115 521h-182l6 29h397l-6 -29h-183zM347 648c0 -18 -15 -32 -32 -32c-15 0 -26 11 -26 26c0 17 14 32 32 32c15 0 26 -11 26 -26z" />
    <glyph glyph-name="Uacute.smcp" unicode="&#xf7fa;" horiz-adv-x="603" 
d="M568 750l-207 -144h-32l192 144h47zM279 -12c-129 0 -208 62 -208 173c0 12 3 31 6 46l76 343h32l-76 -343c-3 -15 -5 -31 -5 -44c0 -97 69 -146 175 -146c112 0 170 65 197 190l76 343h32l-76 -343c-31 -140 -94 -219 -229 -219z" />
    <glyph glyph-name="Ubreve.smcp" unicode="&#xf69f;" horiz-adv-x="603" 
d="M279 -12c-129 0 -208 62 -208 173c0 12 3 31 6 46l76 343h32l-76 -343c-3 -15 -5 -31 -5 -44c0 -97 69 -146 175 -146c112 0 170 65 197 190l76 343h32l-76 -343c-31 -140 -94 -219 -229 -219zM569 682c-52 -54 -122 -88 -194 -88c-71 0 -128 34 -157 88l23 19
c25 -49 73 -80 138 -80s127 31 172 80z" />
    <glyph glyph-name="Ucircumflex.smcp" unicode="&#xf7fb;" horiz-adv-x="603" 
d="M501 606h-26l-65 120l-114 -120h-30l130 144h36zM279 -12c-129 0 -208 62 -208 173c0 12 3 31 6 46l76 343h32l-76 -343c-3 -15 -5 -31 -5 -44c0 -97 69 -146 175 -146c112 0 170 65 197 190l76 343h32l-76 -343c-31 -140 -94 -219 -229 -219z" />
    <glyph glyph-name="Udieresis.smcp" unicode="&#xf7fc;" horiz-adv-x="603" 
d="M522 651c0 -17 -14 -31 -31 -31c-14 0 -25 11 -25 25c0 17 14 31 31 31c14 0 25 -11 25 -25zM320 651c0 -17 -14 -31 -31 -31c-14 0 -25 11 -25 25c0 17 14 31 31 31c14 0 25 -11 25 -25zM279 -12c-129 0 -208 62 -208 173c0 12 3 31 6 46l76 343h32l-76 -343
c-3 -15 -5 -31 -5 -44c0 -97 69 -146 175 -146c112 0 170 65 197 190l76 343h32l-76 -343c-31 -140 -94 -219 -229 -219z" />
    <glyph glyph-name="Ugrave.smcp" unicode="&#xf7f9;" horiz-adv-x="603" 
d="M279 -12c-129 0 -208 62 -208 173c0 12 3 31 6 46l76 343h32l-76 -343c-3 -15 -5 -31 -5 -44c0 -97 69 -146 175 -146c112 0 170 65 197 190l76 343h32l-76 -343c-31 -140 -94 -219 -229 -219zM434 606h-30l-143 144h45z" />
    <glyph glyph-name="Uhungarumlaut.smcp" unicode="&#xf6a0;" horiz-adv-x="603" 
d="M279 -12c-129 0 -208 62 -208 173c0 12 3 31 6 46l76 343h32l-76 -343c-3 -15 -5 -31 -5 -44c0 -97 69 -146 175 -146c112 0 170 65 197 190l76 343h32l-76 -343c-31 -140 -94 -219 -229 -219zM456 750l-147 -144h-28l132 144h43zM592 750l-147 -144h-28l132 144h43z" />
    <glyph glyph-name="Umacron.smcp" unicode="&#xf6a1;" horiz-adv-x="603" 
d="M279 -12c-129 0 -208 62 -208 173c0 12 3 31 6 46l76 343h32l-76 -343c-3 -15 -5 -31 -5 -44c0 -97 69 -146 175 -146c112 0 170 65 197 190l76 343h32l-76 -343c-31 -140 -94 -219 -229 -219zM570 631h-362l6 27h362z" />
    <glyph glyph-name="Uogonek.smcp" unicode="&#xf6a2;" horiz-adv-x="603" 
d="M365 -113l21 -13c-17 -31 -43 -60 -88 -60c-42 0 -72 24 -72 68c0 45 25 79 63 106h-10c-129 0 -208 62 -208 173c0 12 3 31 6 46l76 343h32l-76 -343c-3 -15 -5 -31 -5 -44c0 -97 69 -146 175 -146c112 0 170 65 197 190l76 343h32l-76 -343
c-24 -108 -67 -180 -148 -207h1c-63 -27 -108 -63 -108 -113c0 -31 20 -46 50 -46c27 0 47 16 62 46z" />
    <glyph glyph-name="Uring.smcp" unicode="&#xf6a3;" horiz-adv-x="603" 
d="M279 -12c-129 0 -208 62 -208 173c0 12 3 31 6 46l76 343h32l-76 -343c-3 -15 -5 -31 -5 -44c0 -97 69 -146 175 -146c112 0 170 65 197 190l76 343h32l-76 -343c-31 -140 -94 -219 -229 -219zM388 575c-49 0 -84 35 -84 84c0 55 47 102 102 102c49 0 84 -35 84 -84
c0 -55 -47 -102 -102 -102zM388 599c42 0 78 34 78 76c0 37 -24 62 -60 62c-42 0 -78 -34 -78 -76c0 -36 24 -62 60 -62z" />
    <glyph glyph-name="Utilde.smcp" unicode="&#xf6a4;" horiz-adv-x="603" 
d="M279 -12c-129 0 -208 62 -208 173c0 12 3 31 6 46l76 343h32l-76 -343c-3 -15 -5 -31 -5 -44c0 -97 69 -146 175 -146c112 0 170 65 197 190l76 343h32l-76 -343c-31 -140 -94 -219 -229 -219zM454 604c-77 0 -54 113 -116 113c-33 0 -59 -32 -76 -107h-27
c15 72 52 134 109 134c77 0 54 -113 116 -113c33 0 59 32 77 107h27c-15 -72 -53 -134 -110 -134z" />
    <glyph glyph-name="uni1EE4.smcp" horiz-adv-x="603" 
d="M279 -12c-129 0 -208 62 -208 173c0 12 3 31 6 46l76 343h32l-76 -343c-3 -15 -5 -31 -5 -44c0 -97 69 -146 175 -146c112 0 170 65 197 190l76 343h32l-76 -343c-31 -140 -94 -219 -229 -219zM247 -141c0 -18 -15 -32 -32 -32c-15 0 -26 11 -26 26c0 17 14 32 32 32
c15 0 26 -11 26 -26z" />
    <glyph glyph-name="Uhorn.smcp" horiz-adv-x="603" 
d="M279 -12c-129 0 -208 62 -208 173c0 12 3 31 6 46l76 343h32l-76 -343c-3 -15 -5 -31 -5 -44c0 -97 69 -146 175 -146c112 0 170 65 197 190l76 343h32l-16 -70c64 31 97 67 105 103h-6c-14 0 -26 14 -26 28c0 20 16 36 35 36s32 -13 32 -38c0 -66 -63 -127 -146 -159
l-54 -243c-31 -140 -94 -219 -229 -219z" />
    <glyph glyph-name="uni1EE6.smcp" horiz-adv-x="603" 
d="M279 -12c-129 0 -208 62 -208 173c0 12 3 31 6 46l76 343h32l-76 -343c-3 -15 -5 -31 -5 -44c0 -97 69 -146 175 -146c112 0 170 65 197 190l76 343h32l-76 -343c-31 -140 -94 -219 -229 -219zM347 647l-20 11c14 26 40 45 68 45c33 0 61 -21 61 -57
c0 -25 -11 -47 -33 -66h-30c26 22 39 39 39 66c0 23 -19 35 -37 35s-35 -9 -48 -34z" />
    </font>
</defs>
</svg>
